<svg width="1440" height="900" viewBox="0 0 1440 900" fill="none" xmlns="http://www.w3.org/2000/svg">
<g clip-path="url(#clip0_1_41508)">
<path d="M971.078 252.497C920.407 246.414 892.864 262.304 885.385 329.65C875.405 367.484 910.476 408.925 904.587 459.66C889.336 591.032 1033.6 471.913 1056.2 465.223C1087.48 455.964 1118.93 487.163 1175.67 481.456C1235.96 475.391 1195.83 420.419 1217.25 355.202C1258.86 228.442 1144.47 287.549 1100.91 288.291C1057.34 289.033 1034.42 260.101 971.078 252.497Z" fill="#D4F6FC"/>
<path d="M1395.62 352.422C1409.43 350.928 1416.93 354.832 1418.97 371.377C1421.69 380.672 1412.13 390.853 1413.74 403.317C1417.89 435.592 1378.59 406.327 1372.43 404.684C1363.91 402.409 1355.33 410.074 1339.87 408.672C1323.45 407.182 1334.38 393.676 1328.55 377.654C1317.21 346.512 1348.38 361.034 1360.25 361.216C1372.12 361.398 1378.36 354.29 1395.62 352.422Z" fill="#D4F6FC"/>
<path d="M1240 426.84H945.414C834.957 426.84 745.414 516.383 745.414 626.84V708.066C745.414 818.523 834.957 908.066 945.414 908.066H1240C1350.45 908.066 1440 818.523 1440 708.066V626.84C1440 516.383 1350.45 426.84 1240 426.84Z" fill="#FFF6F0"/>
<path d="M1374.9 892.317C1363.5 889.114 1352.71 877.116 1346.66 861.036C1337.66 836.978 1341.18 809.466 1356.35 785.534C1357.52 783.65 1358.75 781.828 1360.04 780.132C1358.13 778.813 1356.16 777.557 1354.13 776.3L1357.15 771.401C1359.37 772.783 1361.52 774.227 1363.62 775.672C1379.59 756.765 1399.38 750.295 1414.12 748.285C1432.5 745.773 1446 749.793 1446.62 749.919L1446.68 755.383C1446.55 755.321 1432 751.615 1414.68 754.001C1395.75 756.64 1380.21 764.994 1368.31 778.938C1395.44 798.411 1411.65 819.516 1417.64 843.323C1421.71 859.403 1418.44 874.164 1408.69 883.9C1402.28 890.307 1393.77 893.762 1384.77 893.762C1381.56 893.762 1378.23 893.26 1374.9 892.317ZM1361.15 788.675C1346.97 811.036 1343.64 836.664 1351.97 858.963C1357.27 873.159 1366.89 884.026 1376.38 886.727C1386.81 889.679 1397.41 887.041 1404.75 879.755C1413.01 871.526 1415.66 858.775 1412.15 844.767C1406.48 822.28 1390.94 802.117 1364.73 783.461C1363.5 785.094 1362.33 786.853 1361.15 788.675Z" fill="#2D2D2D"/>
<path d="M1330.76 779.504C1342.2 779.504 1351.47 770.055 1351.47 758.398C1351.47 746.742 1342.2 737.293 1330.76 737.293C1319.31 737.293 1310.04 746.742 1310.04 758.398C1310.04 770.055 1319.31 779.504 1330.76 779.504Z" fill="#9C9C9C"/>
<path d="M1330.76 778.435C1341.62 778.435 1350.43 769.463 1350.43 758.397C1350.43 747.331 1341.62 738.359 1330.76 738.359C1319.89 738.359 1311.09 747.331 1311.09 758.397C1311.09 769.463 1319.89 778.435 1330.76 778.435Z" fill="#161616"/>
<path d="M1331.19 777.178C1340.76 777.178 1348.51 769.276 1348.51 759.528C1348.51 749.779 1340.76 741.877 1331.19 741.877C1321.62 741.877 1313.86 749.779 1313.86 759.528C1313.86 769.276 1321.62 777.178 1331.19 777.178Z" fill="#EDEDED"/>
<path d="M1331.19 775.231C1339.7 775.231 1346.6 768.2 1346.6 759.528C1346.6 750.855 1339.7 743.824 1331.19 743.824C1322.68 743.824 1315.77 750.855 1315.77 759.528C1315.77 768.2 1322.68 775.231 1331.19 775.231Z" fill="#E0E0E0"/>
<path d="M1355.67 770.337L1345.93 764.182L1343.34 769.207L1354.13 776.305L1357.15 771.405L1355.67 770.337Z" fill="#606060"/>
<path d="M1331.19 769.518C1336.6 769.518 1340.99 765.046 1340.99 759.53C1340.99 754.014 1336.6 749.543 1331.19 749.543C1325.77 749.543 1321.38 754.014 1321.38 759.53C1321.38 765.046 1325.77 769.518 1331.19 769.518Z" fill="#161616"/>
<path d="M1331.19 768.514C1336.06 768.514 1340 764.492 1340 759.531C1340 754.57 1336.06 750.549 1331.19 750.549C1326.32 750.549 1322.37 754.57 1322.37 759.531C1322.37 764.492 1326.32 768.514 1331.19 768.514Z" fill="#EDEDED"/>
<path d="M1331.19 761.664C1332.35 761.664 1333.29 760.708 1333.29 759.528C1333.29 758.349 1332.35 757.393 1331.19 757.393C1330.03 757.393 1329.09 758.349 1329.09 759.528C1329.09 760.708 1330.03 761.664 1331.19 761.664Z" fill="#161616"/>
<g opacity="0.2">
<path d="M1377.37 892.949C1365.96 889.745 1355.17 877.748 1349.13 861.667C1340.13 837.61 1343.64 810.097 1358.81 786.165C1359.98 784.281 1361.22 782.459 1362.51 780.763C1360.6 779.444 1353.45 774.67 1351.41 773.414L1354.25 769.08C1356.47 770.462 1364.05 774.796 1366.15 776.241C1382.12 757.334 1401.91 750.864 1416.65 748.854C1435.02 746.341 1448.53 750.361 1449.14 750.487L1449.21 755.952C1449.08 755.889 1434.53 752.183 1417.2 754.57C1398.27 757.208 1382.74 765.562 1370.84 779.507C1397.97 798.979 1414.18 820.085 1420.16 843.891C1424.23 859.971 1420.97 874.733 1411.22 884.469C1404.81 890.876 1396.3 894.33 1387.3 894.33C1384.09 894.33 1380.7 893.891 1377.37 892.949ZM1363.62 789.306C1349.44 811.668 1346.11 837.296 1354.43 859.594C1359.74 873.79 1369.36 884.657 1378.85 887.358C1389.27 890.31 1399.88 887.672 1407.22 880.386C1415.48 872.157 1418.13 859.406 1414.61 845.399C1408.94 822.911 1393.4 802.748 1367.2 784.092C1366.03 785.725 1364.79 787.484 1363.62 789.306Z" fill="#2D2D2D"/>
</g>
<path opacity="0.15" d="M1205.9 558.354C1205.9 558.354 1202.39 615.828 1194.31 640.451C1186.23 665.137 1144.3 731.154 1139.68 737.247C1135.05 743.34 1107.86 786.807 1107 793.529C1106.13 800.25 1106.63 814.948 1104.78 820.413C1102.93 825.878 1089.42 839.885 1087.57 844.471C1085.72 849.056 1088.07 853.202 1085.48 854.898C1082.89 856.656 1082.89 856.656 1082.89 856.656L1079.31 865.576C1079.31 865.576 1083.38 883.227 1085.48 890.325C1085.91 891.707 1086.53 895.601 1087.7 901.443L1088.13 905.902C1093 930.463 1088.13 914.194 1088.13 914.194L1070.06 914.257L1069.51 849.558L1195.23 558.354L1208.06 552.072L1205.9 558.354Z" fill="#2D2D2D"/>
<path opacity="0.15" d="M1054.52 537.877C1054.52 537.877 1058.9 540.515 1059.09 544.661C1059.27 548.807 1056.62 566.143 1058.29 575.691C1059.95 585.239 1062.6 603.203 1062.6 611.809C1062.6 620.414 1052.61 635.176 1051.19 639.196C1049.78 643.216 1049.96 692.65 1051.19 699.497C1052.43 706.406 1059.89 754.27 1059.89 754.27C1059.89 754.27 1075.43 731.155 1082.27 723.115C1089.05 715.075 1098.92 706.281 1098.92 706.281L1095.22 718.341C1095.22 718.341 1081.96 728.894 1079.25 733.982C1076.54 739.07 1064.33 757.6 1063.28 760.049C1062.23 762.499 1061.49 764.132 1061.49 764.132L1064.82 773.617L1059.77 777.072L1050.45 770.853C1050.45 770.853 1041.64 704.334 1041.88 692.273C1042.13 680.276 1044.04 626.068 1044.04 626.068C1044.04 626.068 1049.84 563.442 1049.34 564.133C1048.79 564.824 1054.52 537.877 1054.52 537.877Z" fill="#2D2D2D"/>
<path d="M1045.9 636.308C1045.71 637.815 1047.13 683.292 1047.13 687.312C1047.13 691.333 1046.51 696.609 1046.7 699.122C1046.88 701.634 1054.59 745.478 1056.19 766.772V769.724C1056.19 769.724 1054.9 769.536 1052.86 769.284C1046.94 768.594 1034.49 767.526 1026.84 770.164C1016.48 773.744 1009.89 776.508 1009.89 776.508C1009.89 776.508 1009.08 763.254 1009.89 748.682C1010.69 734.109 1014.02 720.038 1014.02 716.647C1014.02 713.255 1013.83 711.81 1014.02 705.466C1014.08 703.958 1014.63 699.75 1015.37 694.096C1015.93 690.202 1016.55 685.617 1017.22 680.78C1019.63 663.38 1022.34 642.463 1021.48 636.936C1020 627.639 1017.16 614.197 1014.63 609.549C1012.17 604.901 1009.33 598.996 1009.52 593.971C1009.7 588.883 1010.93 574.562 1011.98 572.049C1012.91 569.851 1016.18 565.517 1017.41 563.067C1017.59 562.753 1017.72 562.439 1017.78 562.187C1017.84 561.999 1017.9 561.748 1017.96 561.371C1018.7 558.042 1020.31 548.243 1021.66 543.657C1023.14 538.632 1030.79 524.248 1032.27 523.62C1032.7 523.431 1033.07 523.494 1033.44 523.683C1034.37 524.185 1035.17 525.63 1035.17 527.012C1035.17 528.833 1034.18 533.796 1034.12 533.984C1034.24 533.607 1039.11 522.112 1039.73 521.484C1040.35 520.856 1043.68 519.16 1044.72 521.484C1045.77 523.808 1044.72 530.152 1044.72 530.152C1044.72 530.152 1047.19 528.896 1048.67 530.592C1050.09 532.288 1049.1 537.125 1048.67 540.077C1048.24 543.029 1046.2 553.77 1046.2 553.77V557.853C1046.2 557.853 1051.38 537.502 1053.85 537.753C1056.32 537.941 1056.75 541.522 1055.7 544.725C1054.65 547.866 1053.42 563.695 1053.6 569.285C1053.79 574.122 1056.75 595.479 1057.12 605.843C1057.18 607.476 1057.18 608.858 1057.12 609.863C1056.5 617.024 1049.9 629.273 1049.04 630.529C1048.18 631.659 1046.08 634.8 1045.9 636.308Z" fill="#7A4E2D"/>
<path d="M1016.73 851.318L1017.47 868.09L1020.49 908.667H1083.2C1083.2 908.667 1080.61 885.175 1078.33 877.072C1076.05 868.969 1074.38 858.479 1074.38 858.479L1066.43 843.906L1016.73 851.318Z" fill="#7A4E2D"/>
<path d="M1033.32 526.635C1033.32 526.635 1033.01 531.221 1032.39 533.922C1031.77 536.623 1030.36 538.695 1030.36 538.695H1027.58C1027.58 538.695 1030.97 539.512 1030.48 540.266C1029.92 541.082 1027.58 550.881 1027.58 550.881L1024.93 550.065L1027.7 552.766C1027.7 552.766 1026.9 563.067 1027.09 566.019C1027.27 568.972 1027.27 572.741 1027.27 572.741H1025.55L1029.12 573.746L1028.32 570.919L1030.05 572.05C1030.05 572.05 1030.23 560.366 1030.54 555.781C1030.85 551.195 1035.84 533.356 1037.2 530.341C1038.62 527.326 1039.85 523.495 1040.71 522.364C1041.64 521.233 1042.93 520.291 1042.93 520.291C1042.93 520.291 1040.28 520.165 1039.42 521.924C1038.56 523.683 1036.03 529.399 1036.03 529.399L1034.12 534.047C1034.12 534.047 1035.04 528.771 1035.1 527.766C1035.17 526.761 1035.17 524.939 1033.75 523.809C1033.75 523.809 1033.87 525.693 1033.81 526.133C1033.75 526.572 1033.32 526.635 1033.32 526.635Z" fill="#6D4429"/>
<path d="M1044.66 530.088C1044.66 530.088 1041.64 538.945 1041.27 539.699C1040.9 540.453 1038.25 548.053 1037.57 553.078C1036.89 558.103 1036.03 572.676 1036.03 572.676L1038.25 573.179C1038.25 573.179 1036.83 571.922 1036.96 571.294C1037.02 570.666 1039.42 573.179 1039.42 573.179C1039.42 573.179 1038.19 569.85 1038.31 564.887C1038.5 559.925 1040.66 547.425 1041.64 543.656C1042.63 539.887 1045.28 532.099 1045.65 530.905C1046.08 529.712 1047.25 529.774 1047.25 529.774C1047.25 529.774 1045.34 529.523 1044.66 530.088Z" fill="#6D4429"/>
<path d="M1042.32 538.505C1042.32 538.505 1039.54 539.008 1038.93 538.505C1038.31 538.003 1037.75 537.877 1037.75 537.877C1037.75 537.877 1038.12 539.008 1039.48 539.322C1040.78 539.636 1041.64 539.824 1041.64 539.824L1042.32 538.505Z" fill="#6D4429"/>
<path d="M1038.62 551.383C1038.62 551.383 1036.03 552.451 1034.3 552.011C1034.3 552.011 1036.34 553.833 1038.19 552.702L1038.62 551.383Z" fill="#6D4429"/>
<path d="M1054.52 537.881C1054.52 537.881 1053.84 538.823 1053.41 539.765C1052.98 540.708 1050.02 551.637 1049.1 554.778C1048.17 557.919 1046.63 565.393 1046.38 568.22C1046.14 571.047 1047.8 572.429 1047.8 572.429H1044.16L1046.14 557.479L1049.22 546.989L1051.69 540.394C1051.69 540.394 1052.98 537.441 1053.78 537.63C1054.52 537.881 1054.52 537.881 1054.52 537.881Z" fill="#6D4429"/>
<path d="M1055.45 545.227L1053.23 544.662L1055.33 545.856L1055.45 545.227Z" fill="#6D4429"/>
<path d="M1054.53 551.885C1054.53 551.885 1052.68 551.948 1052.31 551.885C1051.94 551.822 1051.32 551.445 1051.32 551.445L1052.49 552.262L1054.46 553.078L1054.53 551.885Z" fill="#6D4429"/>
<path d="M1046.51 551.383C1046.51 551.383 1043.55 552.137 1042.94 552.199C1042.32 552.262 1041.64 551.76 1041.64 551.76C1041.64 551.76 1042.87 552.765 1044.11 552.639C1045.34 552.513 1046.39 552.137 1046.39 552.137L1046.51 551.383Z" fill="#6D4429"/>
<path d="M1048.61 540.014C1048.61 540.014 1046.88 540.767 1046.57 540.642C1046.26 540.579 1044.79 540.328 1044.79 540.328C1044.79 540.328 1045.9 541.019 1046.57 541.207C1047.25 541.396 1048.55 540.579 1048.55 540.579L1048.61 540.014Z" fill="#6D4429"/>
<path d="M1022.84 556.783C1022.84 556.783 1025.49 561.871 1024.93 565.577C1024.38 569.283 1022.53 575.879 1022.22 576.067C1021.91 576.318 1016.92 577.198 1016.92 577.198C1016.92 577.198 1020.86 577.386 1021.42 577.889C1021.97 578.454 1026.91 588.064 1026.78 588.504C1026.6 588.881 1021.85 592.901 1021.85 592.901C1021.85 592.901 1025.67 589.823 1026.78 590.137C1027.89 590.451 1038.62 598.303 1040.35 607.976C1040.35 607.976 1039.55 600.439 1034.68 595.162C1029.8 589.886 1023.45 579.208 1023.58 577.449C1023.7 575.69 1026.91 571.733 1026.29 565.766C1025.74 559.735 1023.39 557.16 1022.84 556.783Z" fill="#6D4429"/>
<path d="M1030.66 586.558C1030.85 586.496 1032.58 585.365 1036.89 586.558C1041.15 587.752 1043.12 588.066 1045.22 587.752C1047.31 587.438 1052.92 590.139 1052.92 590.139C1052.92 590.139 1046.08 588.568 1044.85 588.82C1043.61 589.071 1041.02 589.197 1039.42 588.568C1037.82 587.94 1035.23 586.81 1033.99 586.747C1032.7 586.621 1030.66 586.558 1030.66 586.558Z" fill="#6D4429"/>
<path d="M1033.31 579.207C1032.88 579.082 1044.04 580.212 1048.42 579.584C1052.8 578.956 1054.34 578.014 1054.34 578.014L1054.46 580.966C1054.52 580.966 1043.98 582.159 1033.31 579.207Z" fill="#6D4429"/>
<path d="M1045.89 636.308C1045.71 637.816 1047.13 683.293 1047.13 687.313C1047.13 691.333 1046.51 696.61 1046.7 699.122C1046.88 701.635 1054.59 745.479 1056.19 766.773V769.725C1056.19 769.725 1054.9 769.537 1052.86 769.285L1051.26 768.908C1051.26 768.908 1041.08 767.338 1038.43 767.15C1035.78 766.898 1030.91 767.841 1030.91 767.841C1030.91 767.841 1032.02 761.748 1032.02 755.215C1032.02 748.871 1030.66 730.655 1030.6 729.587C1030.79 730.466 1032.7 741.27 1033.32 749.876C1033.99 758.858 1036.03 763.632 1036.03 763.632C1036.03 763.632 1039.48 764.951 1040.41 764.197C1041.33 763.506 1041.58 764.072 1042.19 760.743C1042.81 757.413 1044.66 739.449 1044.04 731.723C1043.43 723.997 1037.01 708.67 1030.73 700.881C1024.44 693.092 1015.43 694.16 1015.43 694.16L1016.54 686.936L1019.63 686.748L1028.69 689.7L1037.75 698.745C1037.75 698.745 1041.76 695.793 1042.93 686.12C1044.11 676.446 1042.81 636.497 1042.81 636.497C1042.81 636.497 1040.9 636.434 1038.37 635.869C1035.9 635.303 1031.96 633.607 1031.96 633.607C1031.96 633.607 1040.9 634.738 1042.87 633.607C1044.91 632.477 1045.4 631.095 1046.76 628.205C1048.05 625.379 1050.95 621.422 1053.05 618.03C1055.14 614.638 1056.68 607.54 1056.68 607.54L1057.12 605.844C1057.18 607.477 1057.18 608.859 1057.12 609.864C1056.5 617.025 1049.9 629.273 1049.04 630.53C1048.18 631.66 1046.08 634.801 1045.89 636.308Z" fill="#6D4429"/>
<path d="M1039.05 856.155C1039.05 856.155 1052.86 858.165 1057.11 865.577C1061.37 872.926 1061.43 908.667 1061.43 908.667H1083.13L1079.06 880.338L1075.06 863.693L1073.39 859.296C1073.39 859.296 1053.97 852.198 1039.05 856.155Z" fill="#6D4429"/>
<path d="M1020.86 702.135C1020.86 702.135 1017.16 706.218 1019.01 719.848C1020.86 733.479 1022.71 742.964 1022.34 747.424C1021.91 751.82 1018.27 729.145 1016.98 723.177C1015.68 717.21 1017.96 706.595 1020.86 702.135Z" fill="#6D4429"/>
<path d="M1028.69 637.752C1028.69 637.752 1026.04 688.317 1026.66 689.196C1027.27 690.076 1029.74 690.641 1029.74 690.641L1028.69 637.752Z" fill="#6D4429"/>
<path d="M1023.33 631.03C1022.77 630.34 1031.59 632.475 1035.97 631.03C1035.97 631.03 1027.15 635.616 1023.33 631.03Z" fill="#6D4429"/>
<path d="M1042.32 605.719C1042.32 605.719 1043.49 614.764 1042.94 618.596C1042.38 622.364 1042.32 624.5 1042.32 624.5C1042.32 624.5 1046.2 616.648 1042.32 605.719Z" fill="#6D4429"/>
<path d="M1024.75 634.36C1024.38 634.549 1023.64 635.177 1023.33 636.873C1022.96 639.197 1023.88 642.275 1022.4 653.833C1020.92 665.39 1016.98 685.993 1016.98 685.993L1017.22 680.717C1019.63 663.318 1022.34 642.401 1021.48 636.873C1020 627.576 1017.16 614.134 1014.63 609.486C1012.17 604.838 1009.33 598.933 1009.52 593.908C1009.7 588.82 1010.93 574.499 1011.98 571.986C1012.91 569.788 1016.18 565.454 1017.41 563.004C1017.41 563.13 1016.98 564.511 1016.98 564.511C1016.98 564.511 1013.46 571.17 1013.03 573.117C1012.6 575.064 1010.44 589.825 1011.18 594.16C1011.92 598.494 1012.41 603.644 1014.02 606.157C1015.62 608.67 1017.41 612.124 1018.64 615.139C1019.88 618.092 1022.65 634.737 1022.65 635.051C1022.59 635.303 1024.13 634.612 1024.75 634.36Z" fill="#8F5F43"/>
<path d="M1024.93 634.297C1024.93 634.297 1024.87 634.359 1024.75 634.359C1024.81 634.297 1024.93 634.297 1024.93 634.297Z" fill="#855839"/>
<path d="M1035.54 642.337C1035.54 642.337 1034.06 677.576 1035.54 677.89C1037.02 678.204 1035.97 637.752 1035.97 637.752L1035.54 642.337Z" fill="#8F5F43"/>
<path d="M1033.44 523.618C1031.16 527.45 1024.93 538.191 1023.39 542.337C1021.54 547.424 1020 555.779 1020 555.779L1017.96 561.306C1018.7 557.977 1020.31 548.178 1021.66 543.593C1023.14 538.568 1030.79 524.183 1032.27 523.555C1032.64 523.367 1033.07 523.43 1033.44 523.618Z" fill="#8F5F43"/>
<path d="M1026.04 574.252C1025.73 574.377 1044.29 572.053 1049.96 573.121C1049.9 573.121 1035.9 570.043 1026.04 574.252Z" fill="#6D4429"/>
<path d="M1020.74 558.355C1020.74 558.355 1023.08 559.863 1023.33 560.68C1023.58 561.433 1020.99 566.835 1020.25 566.898C1019.44 566.961 1016.48 565.579 1016.48 565.579C1016.48 565.579 1018.52 560.491 1020.74 558.355Z" fill="#8F5F43"/>
<path d="M1075.06 863.694L1073.4 859.297C1073.4 859.297 1070.5 858.229 1051.26 856.156C1050.09 856.031 1048.92 855.968 1047.81 855.905C1030.42 855.151 1018.58 863.129 1018.58 863.129L1017.35 865.641C1017.35 865.641 1014.63 862.061 1013.65 860.804L1013.59 860.742C1012.66 859.423 1014.02 855.654 1013.65 851.445C1013.22 847.111 1012.23 836.37 1010.56 827.953C1009.21 820.981 1006.74 795.729 1006.25 785.554C1006.13 783.355 1006.13 781.848 1006.25 781.408C1006.87 778.644 1012.48 774.247 1012.48 774.247C1012.48 774.247 1022.4 768.971 1033.44 767.526C1034.67 767.338 1036.03 767.275 1037.39 767.275C1045.09 767.212 1054.04 769.473 1058.23 770.667C1059.71 771.106 1060.88 772.363 1061.13 773.933L1061.62 776.571L1069.51 821.546C1069.51 821.546 1075.8 852.387 1076.23 855.968V856.031C1076.48 859.548 1075.06 863.694 1075.06 863.694Z" fill="#9E9E9E"/>
<path d="M1061.44 776.444C1057.06 774.874 1047.93 772.55 1034.49 773.303C1020.25 774.057 1010.44 781.469 1006.19 785.489C1006.07 783.291 1006.07 781.783 1006.19 781.344C1006.81 778.58 1012.42 774.183 1012.42 774.183C1012.42 774.183 1022.35 768.906 1033.38 767.462C1041.77 766.331 1053.18 769.221 1058.17 770.602C1059.65 771.042 1060.82 772.298 1061.07 773.869L1061.44 776.444Z" fill="#757575"/>
<path d="M1075.06 863.697L1073.39 859.3C1073.39 859.3 1070.49 858.232 1051.26 856.16C1032.02 854.024 1018.58 863.132 1018.58 863.132L1017.34 865.644C1017.34 865.644 1014.63 862.064 1013.64 860.808L1013.58 860.745C1019.75 857.102 1032.45 851.072 1047.8 851.448C1062.6 851.825 1071.79 854.464 1076.17 856.097C1076.48 859.551 1075.06 863.697 1075.06 863.697Z" fill="#757575"/>
<path opacity="0.2" d="M1075.06 863.691L1073.39 859.294C1073.39 859.294 1070.5 858.226 1051.26 856.153C1050.09 856.027 1048.92 855.965 1047.81 855.902C1049.72 847.359 1054.59 831.593 1052.31 822.736C1049.41 811.681 1039.97 782.912 1039.05 779.395C1038.56 777.51 1037.82 771.92 1037.26 767.146C1044.97 767.083 1053.91 769.344 1058.1 770.538C1059.58 770.977 1060.75 772.234 1061 773.804L1061.49 776.442L1069.39 821.417C1069.39 821.417 1075.68 852.259 1076.11 855.839V855.902C1076.48 859.545 1075.06 863.691 1075.06 863.691Z" fill="black"/>
<path d="M1106.94 690.705C1106.94 690.705 1086.03 710.115 1072.78 728.645C1059.52 747.175 1053.54 762.815 1051.26 778.582L1055.39 779.398C1055.39 779.398 1057.86 764.009 1066.36 748.619C1074.87 733.23 1098.24 707.288 1102.81 704.587C1107.31 701.823 1106.94 690.705 1106.94 690.705Z" fill="#2D2D2D"/>
<path d="M1042.56 777.451L1041.89 788.506L1046.57 789.071L1047.87 777.137L1042.56 777.451Z" fill="#ADADAD"/>
<path d="M1043.74 793.595C1045.48 793.595 1046.88 792.16 1046.88 790.391C1046.88 788.622 1045.48 787.188 1043.74 787.188C1042 787.188 1040.59 788.622 1040.59 790.391C1040.59 792.16 1042 793.595 1043.74 793.595Z" fill="#2D2D2D"/>
<path d="M1051.26 778.58L1050.46 790.389L1055.39 791.017V779.397L1051.26 778.58Z" fill="#ADADAD"/>
<path d="M1052.31 794.915C1054.05 794.915 1055.45 793.481 1055.45 791.711C1055.45 789.942 1054.05 788.508 1052.31 788.508C1050.57 788.508 1049.16 789.942 1049.16 791.711C1049.16 793.481 1050.57 794.915 1052.31 794.915Z" fill="#2D2D2D"/>
<path d="M967.955 802.071C964.256 802.071 960.741 801.191 957.535 799.432C951.8 796.229 947.669 790.324 946.312 783.226L951.369 782.221C952.479 787.812 955.623 792.397 960.001 794.847C964.687 797.422 970.36 797.548 976.403 795.035C981.891 792.774 985.898 788 988.303 780.777C990.4 774.495 990.708 767.963 990.708 764.633C990.708 762.058 990.215 757.787 989.66 752.887C988.735 744.345 987.502 733.666 987.995 724.37C987.995 723.993 990.091 687.184 1016.24 684.672C1022.22 684.106 1028.57 686.493 1033.69 691.267C1036.15 693.591 1038.43 696.104 1040.41 698.867C1056.68 721.355 1053.23 751.317 1047.74 777.636L1042.5 777.447C1051.88 732.536 1044.72 713.691 1036.28 702.008C1034.49 699.558 1032.45 697.234 1030.23 695.161C1026.22 691.455 1021.17 689.508 1016.73 689.948C1008.47 690.764 1002.12 695.978 997.799 705.526C993.606 714.822 993.113 724.307 993.113 724.684C992.681 733.603 993.853 744.031 994.778 752.385C995.333 757.473 995.826 761.807 995.826 764.696C995.826 768.339 995.456 775.5 993.174 782.473C990.276 791.204 985.282 797.108 978.314 799.935C974.861 801.38 971.347 802.071 967.955 802.071Z" fill="#2D2D2D"/>
<path d="M1116.68 653.33C1116.37 652.953 1109.34 643.782 1103.8 628.204C1098.68 613.82 1093.99 591.081 1100.65 564.134C1110.82 522.928 1132.16 499.75 1133.27 498.682L1141.28 498.557C1141.04 498.808 1115.51 525.629 1105.64 565.391C1093.5 614.448 1120.44 649.687 1120.69 650.001L1116.68 653.33Z" fill="#2D2D2D"/>
<g opacity="0.15">
<path d="M1119.95 653.33C1119.64 652.953 1112.61 643.782 1107.06 628.204C1101.94 613.82 1097.26 591.081 1103.92 564.134C1114.09 522.928 1135.42 499.75 1136.53 498.682L1144.55 498.557C1144.3 498.808 1118.78 525.629 1108.91 565.391C1096.76 614.448 1123.71 649.687 1123.96 650.001L1119.95 653.33Z" fill="#2D2D2D"/>
</g>
<path d="M990.028 755.655C990.028 755.655 988.98 758.168 986.76 758.984C984.602 759.801 981.827 759.11 981.827 759.11C981.827 759.11 980.162 771.045 978.127 774.625C976.031 778.205 971.098 778.205 969.125 778.017C967.152 777.829 964.994 776.195 964.994 776.195C964.994 776.195 962.527 780.592 959.629 784.424C956.731 788.193 953.833 789.386 953.833 789.386L953.34 788.633L951.367 784.864C951.367 784.864 947.421 786.12 945.694 784.361C943.906 782.54 944.584 782.163 944.584 782.163C944.584 782.163 943.783 781.409 942.488 780.467C941.254 779.525 924.791 765.58 924.051 763.758C923.25 761.937 923.743 757.351 923.805 756.032C923.866 755.153 925.346 741.522 926.641 730.781C927.319 725.316 927.874 720.668 928.182 718.721C929.107 712.942 930.711 706.472 930.711 703.143C930.711 699.814 928.861 692.213 924.668 678.96C920.475 665.706 906.54 625.819 902.347 615.392C898.154 604.965 887.425 576.008 885.575 552.83C883.725 529.588 888.966 485.305 888.966 485.305L940.823 498.81C940.823 498.81 940.823 498.998 940.885 499.438C941.131 502.076 942.364 513.194 948.284 533.357C955.128 556.787 952.415 591.083 954.265 614.701C956.115 638.319 964.809 688.445 966.474 692.779C968.138 697.113 970.913 700.882 973.195 705.844C974.859 709.424 975.106 715.454 975.168 718.47C975.168 719.663 975.168 720.354 975.168 720.354C975.168 720.354 976.216 720.668 977.264 721.422C978.312 722.176 987.993 731.598 987.993 731.598C987.993 731.598 988.363 737.816 988.733 741.836C988.98 745.731 990.028 755.655 990.028 755.655Z" fill="#9D744D"/>
<path d="M1202.32 557.791C1202.32 557.791 1202.2 558.796 1202.01 560.68C1200.9 570.605 1196.65 604.462 1189.62 631.158C1181.23 662.753 1147.38 716.521 1137.76 730.717C1128.14 744.913 1103.91 785.805 1102.31 791.521C1100.64 797.237 1101.51 805.089 1100.77 812.941C1100.03 820.73 1094.97 827.074 1090.96 832.539C1087.76 836.873 1084.73 842.023 1083.19 844.536C1082.82 845.227 1082.51 845.667 1082.39 845.918C1081.65 847.049 1081.34 850.629 1080.29 851.194C1079.25 851.697 1074.81 851.383 1072.09 847.174C1069.38 842.966 1071.48 834.549 1071.48 834.549L1066.91 808.858L1061.49 776.509C1061.49 776.509 1067.04 771.86 1071.05 768.406C1071.17 768.28 1071.29 768.154 1071.42 768.029C1075.61 763.883 1084.3 747.866 1091.52 729.21C1098.98 709.926 1108.6 669.16 1120.68 635.931C1132.77 602.766 1144.91 581.849 1148 575.881C1151.08 569.851 1150.77 564.198 1150.77 564.198V557.854H1202.32V557.791Z" fill="#9D744D"/>
<path d="M1218.11 520.794C1216.57 532.477 1210.96 554.337 1210.96 554.337C1210.96 554.337 1208.24 556.849 1203.74 559.801C1197.33 564.073 1187.28 569.223 1176.49 569.223C1158.18 569.223 1144.24 559.425 1144.24 559.425C1144.24 559.425 1146.71 544.852 1146.4 532.54C1146.09 520.229 1142.08 498.684 1142.08 498.684H1219.34C1219.34 498.684 1219.65 509.111 1218.11 520.794Z" fill="white"/>
<path d="M961.479 725.189C961.479 725.189 955.868 731.973 953.895 736.056C951.86 740.202 950.319 743.657 950.195 745.855C950.072 748.054 952.847 759.674 955.005 761.433C957.163 763.255 959.321 764.008 959.321 764.008L961.479 754.398L963.822 752.199H968.015V748.242L963.822 741.709C963.822 741.709 961.973 736.684 963.822 736.056C965.672 735.428 968.139 736.307 970.05 738.255C971.9 740.202 976.463 744.034 976.463 744.034L977.079 741.709L973.503 736.056L965.302 725.189H961.479V725.189Z" fill="#1E1E1E"/>
<path d="M929.539 741.711C929.539 741.711 931.882 744.286 932.93 745.417C933.979 746.548 935.088 753.646 936.507 757.289C937.925 760.932 940.823 767.088 942.426 771.359C943.968 775.63 945.201 783.294 945.201 783.294L942.796 780.341L938.172 776.447C938.172 776.447 939.651 774.311 939.343 771.485C939.035 768.658 936.26 760.178 935.15 759.362C934.04 758.545 930.156 758.231 930.156 758.231C930.156 758.231 933.547 758.671 933.732 757.226C933.917 755.781 932.499 748.872 932.19 747.176C931.82 745.605 929.539 741.711 929.539 741.711Z" fill="#916844"/>
<path d="M964.249 736.055C964.249 736.055 962.708 738.253 963.756 740.326C964.866 742.399 969.675 746.482 970.909 748.366C972.142 750.251 972.142 753.894 972.142 753.894L974.485 754.836L972.327 755.778C972.327 755.778 972.82 769.221 972.82 771.607C972.82 773.994 970.97 776.004 970.785 776.381C970.6 776.758 970.785 777.952 970.785 777.952L969.429 777.889L965.298 776.067C965.298 776.067 968.072 772.11 968.751 770.037C969.429 767.964 969.675 754.02 968.751 753.077C967.826 752.135 966.161 751.633 966.161 751.633L966.346 750.314C966.346 750.314 961.351 745.603 961.536 740.577C961.66 735.615 964.249 736.055 964.249 736.055Z" fill="#916844"/>
<path d="M964.745 720.793C964.745 720.793 963.82 722.803 963.82 724.059C963.82 725.316 964.314 727.074 964.314 727.074C964.314 727.074 965.855 728.331 966.78 729.273C967.705 730.215 973.748 737.941 974.549 739.26C975.351 740.516 975.659 743.343 975.659 743.343C975.659 743.343 979.852 746.735 981.27 749.373C982.688 752.011 982.503 755.341 982.503 755.341L982.257 759.047C982.257 759.047 986.388 759.423 987.251 758.921C988.053 758.418 989.101 757.225 989.101 757.225C989.101 757.225 986.696 748.996 985.34 748.243C983.922 747.426 978.804 743.406 978.064 741.71C977.262 740.014 976.522 738.255 976.522 738.255L977.756 736.057L975.597 737.125C975.597 737.125 967.212 727.828 966.102 725.316C964.869 722.803 964.745 720.793 964.745 720.793Z" fill="#916844"/>
<path d="M957.901 728.329C957.901 728.329 961.477 723.618 961.477 718.844C961.477 714.133 960.861 709.861 960.861 709.861C960.861 709.861 962.587 716.645 964.745 717.148C966.904 717.65 969.863 715.703 971.713 715.891C973.563 716.08 975.104 716.582 975.104 716.582L975.166 720.351L974.488 720.854L973.378 722.236C973.378 722.236 971.528 719.409 969.37 719.158C967.212 718.907 965.485 718.655 964.745 720.854C963.944 723.052 964.252 727.135 964.252 727.135C964.252 727.135 963.142 726.319 961.477 727.135C959.751 727.952 954.941 733.291 954.941 733.291L957.901 728.329Z" fill="#916844"/>
<path d="M973.441 719.787C973.441 719.787 985.835 731.345 986.637 732.601C987.438 733.857 988.178 736.056 988.178 736.056L989.288 748.242C989.288 748.242 986.328 735.616 984.17 733.229C982.012 730.842 973.441 722.174 973.441 722.174V719.787Z" fill="#916844"/>
<path d="M966.532 752.324C966.532 752.324 963.326 753.203 962.894 754.585C962.462 755.967 961.476 763.882 961.476 765.201C961.476 766.457 963.572 770.289 963.387 770.917C963.202 771.545 962.092 771.859 962.092 771.859L961.476 773.744C961.476 773.744 960.058 776.947 959.626 778.015C959.133 779.083 956.543 783.857 955.741 784.485C954.94 785.113 952.72 786.809 952.72 786.809L951.672 784.799C951.672 784.799 953.768 783.04 955.002 781.03C956.235 778.957 955.926 775.125 955.926 775.125C955.926 775.125 960.736 773.932 960.736 771.733C960.736 769.535 958.516 767.211 958.516 767.211L955.803 768.404L954.015 761.62C954.015 761.62 952.658 756.344 952.658 756.909C952.658 757.475 956.728 761.62 957.468 761.495C958.27 761.369 958.455 760.741 958.455 760.741C958.455 760.741 959.749 755.025 960.551 753.957C961.353 752.827 964.867 751.319 966.532 752.324Z" fill="#916844"/>
<path d="M945.141 742.145C945.141 742.145 947.793 749.746 948.779 753.263C949.704 756.844 949.642 760.298 950.876 763.565C952.109 766.831 952.664 766.391 954.082 772.233C955.5 778.075 955.007 780.901 955.007 780.901C955.007 780.901 956.178 778.766 955.932 774.997C955.685 771.228 955.932 767.396 955.932 767.396L952.602 756.781C952.602 756.781 949.951 748.112 950.136 746.416C950.321 744.72 947.608 741.705 946.991 740.889C946.374 740.072 945.141 736.555 945.141 736.555C945.141 736.555 944.648 740.7 945.141 742.145Z" fill="#916844"/>
<path d="M937.554 702.073C936.752 702.701 947.605 697.425 950.441 697.425C953.277 697.425 946.556 695.1 937.554 702.073Z" fill="#916844"/>
<path d="M953.216 695.293C953.524 696.109 943.905 671.926 941.438 652.328C938.91 632.73 951.736 691.084 953.216 695.293Z" fill="#916844"/>
<path d="M957.78 694.03C958.828 695.349 948.962 664.508 951.059 664.319C953.217 664.131 956.732 692.774 957.78 694.03Z" fill="#916844"/>
<path d="M965.793 695.349H960.059L960.244 694.344L965.793 695.349Z" fill="#916844"/>
<path d="M975.169 718.407H973.443C973.443 718.407 972.333 708.608 969.25 702.138C966.167 695.668 960.063 695.354 960.063 695.354C960.063 695.354 959.631 684.236 956.548 671.862C953.465 659.425 945.387 632.415 941.133 604.965C936.878 577.453 935.768 534.174 934.844 525.003C933.919 515.832 923.93 499.375 923.93 499.375H940.948C941.195 502.013 942.428 513.131 948.347 533.294C955.192 556.724 952.478 591.02 954.328 614.638C956.178 638.256 964.872 688.382 966.537 692.716C968.202 697.05 970.977 700.819 973.258 705.781C974.861 709.299 975.169 715.329 975.169 718.407Z" fill="#916844"/>
<path d="M1201.96 560.678C1200.85 570.602 1196.59 604.459 1189.56 631.155C1181.18 662.75 1147.33 716.519 1137.71 730.715C1128.09 744.911 1103.85 785.802 1102.25 791.518C1100.59 797.234 1101.45 805.086 1100.71 812.938C1099.97 820.727 1094.91 827.071 1090.91 832.536C1087.7 836.87 1084.68 842.021 1083.14 844.533C1083.38 843.968 1091.89 826.506 1095.78 816.393C1099.72 806.154 1096.21 790.388 1096.21 786.807C1096.21 783.227 1091.03 777.134 1091.03 777.134L1098.86 782.41C1098.86 782.41 1100.71 782.787 1104.66 773.679C1108.6 764.508 1119.33 738.755 1130.12 723.994C1140.85 709.232 1164.47 664.32 1173.78 642.461C1183.09 620.539 1188.7 583.039 1188.27 581.155C1187.84 579.271 1182.9 576.318 1173.78 573.994C1164.84 571.733 1155.16 565.075 1154.85 564.886C1175.32 572.487 1194.56 564.509 1201.96 560.678Z" fill="#916844"/>
<path d="M1063.46 780.023C1063.46 780.023 1068.21 798.742 1069.87 800.124C1071.54 801.506 1072.16 787.75 1072.16 787.75C1072.16 787.75 1076.29 798.554 1078.14 808.981C1079.99 819.408 1078.69 822.172 1076.16 827.008C1073.64 831.845 1073.02 834.986 1073.02 839.006C1073.02 843.026 1073.27 844.219 1073.45 846.606C1073.64 848.993 1076.23 850.689 1076.23 850.689C1076.23 850.689 1070.49 848.553 1070.8 842.586C1071.11 836.619 1071.29 831.908 1071.29 831.908L1061.98 779.458L1061.49 776.506L1063.46 780.023Z" fill="#916844"/>
<path d="M1085.41 768.972C1085.41 768.972 1093.68 753.897 1095.96 747.615C1098.24 741.271 1098.67 736.246 1100.09 737.502C1101.51 738.759 1099.29 746.924 1095.96 751.007C1092.63 755.09 1085.41 768.972 1085.41 768.972Z" fill="#916844"/>
<path d="M1093 768.969C1093 768.969 1108.6 729.899 1110.69 730.716C1112.79 731.532 1093 768.969 1093 768.969Z" fill="#916844"/>
<path d="M1076.16 767.023C1076.16 767.023 1082.7 769.285 1082.33 770.101C1081.9 770.981 1076.16 767.023 1076.16 767.023Z" fill="#916844"/>
<path d="M1153.43 569.158C1153.43 569.158 1167.43 575.816 1177.54 573.555C1187.71 571.357 1161.94 583.605 1153.43 569.158Z" fill="#916844"/>
<path d="M962.28 737.186C962.28 737.186 961.54 740.452 962.712 742.964C963.822 745.414 968.446 749.874 969.186 750.565C969.926 751.256 970.543 752.261 970.543 753.894C970.543 755.527 969.618 765.452 969.618 765.452C969.618 765.452 969.803 754.145 969.125 753.391C968.446 752.638 966.042 752.261 966.042 752.261L966.288 750.502C966.288 750.502 962.958 747.173 962.095 744.158C961.17 741.08 961.479 738.693 962.28 737.186Z" fill="#855C3C"/>
<path d="M963.081 752.387C963.081 752.387 961.169 752.45 960.553 753.957C959.936 755.402 957.901 762.06 957.901 762.06L956.977 767.776L958.703 766.645L960.738 755.904C960.738 755.904 961.601 752.764 963.081 752.387Z" fill="#855C3C"/>
<path d="M975.352 741.711C975.352 741.711 982.258 746.924 983.244 750.065C984.169 753.206 983.244 759.11 983.244 759.11L981.826 759.048C981.826 759.048 983.059 752.389 981.209 749.374C979.421 746.359 975.598 743.344 975.598 743.344L975.352 741.711Z" fill="#855C3C"/>
<path d="M964.255 727.071C964.255 727.071 963.084 724.244 964.255 721.92C965.427 719.596 965.982 719.156 965.982 719.156C965.982 719.156 963.207 720.413 962.899 722.36C962.59 724.244 962.344 727.071 962.344 727.071C962.344 727.071 963.392 726.317 964.255 727.071Z" fill="#855C3C"/>
<path d="M973.935 721.547C974.551 721.987 985.28 731.848 985.897 733.23C986.513 734.612 987.562 741.71 987.562 741.71C987.562 741.71 986.082 735.429 984.725 734.047C983.369 732.602 973.441 722.175 973.441 722.175L973.935 721.547Z" fill="#855C3C"/>
<path d="M950.132 745.918L949.762 746.735L952.043 758.355L955.928 767.526L957.161 767.212L958.456 760.805C958.456 760.805 957.963 761.747 957.469 761.559C956.976 761.37 953.646 758.355 953.646 758.355L950.132 745.918Z" fill="#855C3C"/>
<path d="M928.12 718.594C929.044 712.815 930.648 706.345 930.648 703.016C930.648 699.687 928.798 692.086 924.605 678.833C920.412 665.579 906.477 625.692 902.284 615.265C898.091 604.838 887.67 575.881 885.512 552.703C880.703 500.379 888.903 485.178 888.903 485.178L892.172 488.632C891.123 496.359 885.82 536.308 890.692 560.617C896.303 588.758 918.254 649.75 921.399 664.323C924.605 678.896 932.251 689.951 932.559 699.561C932.867 709.109 926.64 730.214 926.516 730.654C927.195 725.252 927.811 720.541 928.12 718.594Z" fill="#B38662"/>
<path d="M1154.85 564.827C1154.85 564.827 1151.27 577.892 1149.85 581.661C1148.43 585.43 1124.82 628.206 1119.45 653.332C1114.03 678.395 1108.29 694.098 1100.58 721.548C1095.96 738.068 1079.31 760.681 1079.31 760.681L1071.48 767.967C1075.67 763.821 1084.37 747.804 1091.58 729.148C1099.04 709.864 1108.66 669.098 1120.75 635.87C1132.83 602.704 1144.98 581.787 1148.06 575.82C1151.15 569.789 1150.84 564.136 1150.84 564.136V563.068L1154.85 564.827Z" fill="#B38662"/>
<path opacity="0.15" d="M950.685 495.037C952.35 514.07 958.269 535.364 959.132 539.949C961.352 551.758 960.366 590.2 961.537 615.074C962.709 639.949 970.663 683.479 973.438 690.639C976.212 697.8 978.679 705.212 980.467 709.798C982.255 714.383 981.33 728.39 981.33 728.39C981.33 728.39 959.133 715.074 958.454 704.521C957.776 693.968 937.305 506.909 937.305 506.909" fill="#2D2D2D"/>
<path d="M943.598 775.378C943.598 775.378 944.399 773.494 946.372 772.866C948.346 772.237 949.949 772.237 950.442 772.866C950.935 773.494 951.983 779.712 951.675 780.969C951.367 782.225 949.579 783.732 948.654 784.046C947.729 784.361 945.571 784.235 945.571 784.235L945.139 782.539L943.598 775.378Z" fill="#B38662"/>
<path d="M969.126 753.334C969.126 753.334 966.043 752.517 965.056 754.465C964.07 756.412 964.686 758.987 965.056 760.181C965.426 761.437 966.721 761.814 967.461 762.065C968.201 762.254 969.311 761.437 969.311 761.437C969.311 761.437 969.249 754.088 969.126 753.334Z" fill="#B38662"/>
<path d="M966.042 735.992C966.042 735.992 964.623 736.181 964.562 737.186C964.5 738.191 964.253 739.133 965.302 740.64C966.35 742.085 968.446 743.279 970.173 743.404C971.961 743.53 972.948 741.017 972.948 741.017L968.693 737.123L966.042 735.992Z" fill="#B38662"/>
<path d="M966.904 719.221C966.904 719.221 965.609 720.414 966.904 723.178C968.198 725.879 969.493 727.449 970.48 727.575C971.467 727.701 975.104 723.995 975.104 723.995C975.104 723.995 972.083 720.351 971.035 719.849C970.11 719.284 968.568 718.279 966.904 719.221Z" fill="#B38662"/>
<path d="M955.498 767.462C955.498 767.462 958.766 766.897 959.32 767.148C959.875 767.4 961.294 771.482 960.554 772.425C959.814 773.304 955.929 775.126 955.929 775.126C955.929 775.126 955.436 769.033 955.498 767.462Z" fill="#CCCCCC"/>
<path d="M972.326 457.73C972.326 457.73 959.501 478.081 954.506 489.262C949.512 500.443 946.244 514.89 946.244 514.89C946.244 514.89 929.657 518.408 912.762 511.121C895.867 503.898 882.672 483.232 882.672 483.232C882.672 483.232 889.886 461.498 892.907 450.066C895.929 438.697 901.108 427.014 901.108 427.014L972.326 457.73Z" fill="white"/>
<path d="M1219.34 498.682H1142.08C1142.08 498.682 1093.99 497.3 1062.11 495.102C1030.23 492.903 963.758 460.617 963.758 460.617L898.398 433.67L903.393 407.476C903.393 407.476 922.199 369.6 937.306 358.482C952.413 347.363 981.702 337.25 1015.37 335.806C1048.97 334.298 1092.88 335.554 1126.79 344.474C1153.24 351.446 1173.1 368.532 1189.93 386.308C1194.68 391.333 1198.81 396.924 1202.32 403.268C1215.89 428.016 1216.13 424.876 1219.4 451.886C1222.67 478.707 1219.34 498.682 1219.34 498.682Z" fill="white"/>
<path d="M1123.77 380.023C1123.77 380.023 1139.13 387.875 1138.76 420.852C1138.39 453.83 1125.93 470.224 1113.11 480.526C1100.28 490.827 1075.49 492.963 1075.49 492.963L1123.77 380.023Z" fill="#EDEDED"/>
<path d="M1004.09 455.532C1004.09 455.532 1013.95 474.125 1018.39 478.271C1022.83 482.417 1040.03 490.583 1040.03 490.583C1040.03 490.583 1041.02 490.897 1041.02 492.027C1041.02 493.158 1041.02 495.985 1042.25 498.56C1043.49 501.198 1046.69 506.474 1049.78 507.04C1052.86 507.605 1060.51 501.449 1061.25 499.314C1061.99 497.115 1061.37 495.042 1061.99 494.477C1062.54 493.912 1065.62 493.974 1065.62 493.974C1065.62 493.974 1081.96 492.467 1084.92 490.583C1087.88 488.635 1094.3 483.233 1094.3 483.233L1102.68 475.13L1109.34 463.007L1085.97 466.902L1006.61 451.387L1004.09 455.532Z" fill="#9D744D"/>
<path d="M1012.41 456.28C1012.41 456.28 1049.34 480.401 1091.77 471.418C1091.77 471.418 1098.36 474.182 1098.98 478.768C1098.98 478.768 1116.49 467.461 1122.6 447.298C1128.7 427.135 1131.35 405.401 1126.85 389.07C1122.35 372.675 1108.91 348.68 1086.9 344.535C1064.88 340.389 1035.96 341.896 1023.32 353.705C1009.14 366.959 998.659 386.431 996.81 407.411C994.96 428.391 996.44 443.152 1006.18 459.358C1006.18 459.233 1008.77 454.584 1012.41 456.28Z" fill="black"/>
<path d="M1015.62 474.814C1015.62 474.814 1024.62 480.279 1028.87 482.729C1033.13 485.179 1042.93 488.508 1042.93 488.508C1042.93 488.508 1040.65 490.644 1040.03 490.644C1039.42 490.644 1024.19 483.734 1021.72 481.787C1019.19 479.714 1015.62 474.814 1015.62 474.814Z" fill="black"/>
<path d="M1061.92 491.962L1064.39 494.097C1064.39 494.097 1081.1 492.527 1084.86 490.58C1088.62 488.632 1094.23 483.23 1094.23 483.23C1094.23 483.23 1089.42 485.743 1084.43 487.879C1079.5 490.014 1061.92 491.962 1061.92 491.962Z" fill="black"/>
<path d="M960.06 387.564C960.06 387.564 953.771 427.074 963.822 456.346C963.822 456.346 957.101 405.089 960.06 387.564Z" fill="#EDEDED"/>
<path d="M969.124 463.13C969.124 463.13 951.921 456.408 948.653 454.398C948.653 454.398 947.728 475.944 945.261 487.69C942.795 499.436 937.492 515.768 937.492 515.768L946.186 514.951C946.248 514.888 959.073 476.823 969.124 463.13Z" fill="#EDEDED"/>
<path d="M1219.34 498.684C1219.34 498.684 1219.65 509.111 1218.11 520.794C1216.57 532.478 1210.96 554.337 1210.96 554.337C1210.96 554.337 1208.24 556.849 1203.74 559.802C1202.63 560.367 1201.95 560.681 1201.95 560.681C1201.95 560.681 1201.95 548.872 1202.26 542.402C1202.51 537.377 1205.16 523.056 1206.82 498.684C1207.32 491.586 1207.75 483.608 1208 474.815C1209.11 435.807 1194.49 391.523 1194.49 391.523C1199.24 395.732 1207.13 410.242 1209.91 416.021C1219.59 436.31 1217.18 435.367 1220.45 458.043C1223.72 480.656 1219.34 498.684 1219.34 498.684Z" fill="#EDEDED"/>
<path opacity="0.15" d="M1222.53 849.502L1197.19 875.318C1195.95 876.574 1193.92 876.574 1192.69 875.318L1158.28 840.268C1157.05 839.012 1157.05 836.939 1158.28 835.682L1183.62 809.866C1184.86 808.61 1186.89 808.61 1188.12 809.866L1222.53 844.916C1223.76 846.172 1223.76 848.245 1222.53 849.502Z" fill="black"/>
<path d="M1220.43 849.06L1195.09 874.877C1193.86 876.133 1191.82 876.133 1190.59 874.877L1156.18 839.826C1154.95 838.57 1154.95 836.497 1156.18 835.241L1181.53 809.425C1182.76 808.168 1184.8 808.168 1186.03 809.425L1220.43 844.475C1221.67 845.731 1221.67 847.804 1220.43 849.06Z" fill="#F5F5F5"/>
<path d="M1167.78 828.837L1162.29 834.427C1161.49 835.244 1161.49 836.626 1162.29 837.443L1163.28 838.448C1164.08 839.264 1165.43 839.264 1166.23 838.448L1171.72 832.857C1172.52 832.041 1172.52 830.659 1171.72 829.842L1170.74 828.837C1169.93 828.02 1168.58 828.02 1167.78 828.837Z" fill="#3ED0FF"/>
<path d="M1180.97 815.896L1175.48 821.486C1174.68 822.303 1174.68 823.685 1175.48 824.501L1176.47 825.506C1177.27 826.323 1178.63 826.323 1179.43 825.506L1184.92 819.916C1185.72 819.099 1185.72 817.717 1184.92 816.901L1183.93 815.896C1183.13 815.079 1181.77 815.079 1180.97 815.896Z" fill="#3ED0FF"/>
<path d="M1174.56 835.808L1169.07 841.398C1168.27 842.215 1168.27 843.597 1169.07 844.413L1170.06 845.418C1170.86 846.235 1172.22 846.235 1173.02 845.418L1178.51 839.828C1179.31 839.011 1179.31 837.629 1178.51 836.813L1177.52 835.808C1176.72 834.991 1175.42 834.991 1174.56 835.808Z" fill="#3ED0FF"/>
<path d="M1187.76 822.87L1182.27 828.461C1181.47 829.277 1181.47 830.659 1182.27 831.476L1183.25 832.481C1184.06 833.297 1185.41 833.297 1186.21 832.481L1191.7 826.89C1192.5 826.074 1192.5 824.692 1191.7 823.875L1190.71 822.87C1189.91 822.054 1188.56 822.054 1187.76 822.87Z" fill="#3ED0FF"/>
<path d="M1182.89 843.408L1177.4 848.998C1176.6 849.815 1176.6 851.197 1177.4 852.013L1178.38 853.018C1179.19 853.835 1180.54 853.835 1181.34 853.018L1186.83 847.428C1187.63 846.611 1187.63 845.229 1186.83 844.413L1185.85 843.408C1185.04 842.528 1183.69 842.528 1182.89 843.408Z" fill="#3ED0FF"/>
<path d="M1196.08 830.47L1190.59 836.06C1189.79 836.877 1189.79 838.259 1190.59 839.076L1191.58 840.081C1192.38 840.897 1193.74 840.897 1194.54 840.081L1200.03 834.49C1200.83 833.674 1200.83 832.292 1200.03 831.475L1199.04 830.47C1198.24 829.591 1196.88 829.591 1196.08 830.47Z" fill="#3ED0FF"/>
<path d="M1189.67 850.382L1184.18 855.972C1183.38 856.789 1183.38 858.171 1184.18 858.987L1185.17 859.992C1185.97 860.809 1187.32 860.809 1188.13 859.992L1193.61 854.402C1194.41 853.585 1194.41 852.204 1193.61 851.387L1192.63 850.382C1191.83 849.565 1190.53 849.565 1189.67 850.382Z" fill="#3ED0FF"/>
<path d="M1202.86 837.443L1197.37 843.033C1196.57 843.85 1196.57 845.231 1197.37 846.048L1198.36 847.053C1199.16 847.87 1200.52 847.87 1201.32 847.053L1206.81 841.463C1207.61 840.646 1207.61 839.264 1206.81 838.448L1205.82 837.443C1205.02 836.626 1203.66 836.626 1202.86 837.443Z" fill="#3ED0FF"/>
<path d="M1197.19 857.667L1191.7 863.258C1190.9 864.074 1190.9 865.456 1191.7 866.273L1192.69 867.278C1193.49 868.094 1194.85 868.094 1195.65 867.278L1201.14 861.687C1201.94 860.871 1201.94 859.489 1201.14 858.672L1200.15 857.667C1199.35 856.788 1198.05 856.788 1197.19 857.667Z" fill="#3ED0FF"/>
<path d="M1210.38 844.728L1204.89 850.318C1204.09 851.135 1204.09 852.517 1204.89 853.333L1205.88 854.338C1206.68 855.155 1208.04 855.155 1208.84 854.338L1214.33 848.748C1215.13 847.931 1215.13 846.549 1214.33 845.733L1213.34 844.728C1212.54 843.911 1211.18 843.911 1210.38 844.728Z" fill="#3ED0FF"/>
<path opacity="0.15" d="M844.155 782.693L818.813 808.509C817.58 809.766 815.545 809.766 814.312 808.509L779.905 773.459C778.672 772.203 778.672 770.13 779.905 768.874L805.248 743.057C806.481 741.801 808.516 741.801 809.749 743.057L844.155 778.108C845.388 779.364 845.388 781.437 844.155 782.693Z" fill="black"/>
<path d="M842.06 782.252L816.717 808.068C815.484 809.324 813.449 809.324 812.216 808.068L777.81 773.018C776.576 771.762 776.576 769.689 777.81 768.432L803.152 742.616C804.385 741.36 806.42 741.36 807.653 742.616L842.06 777.666C843.293 778.922 843.293 780.995 842.06 782.252Z" fill="#F5F5F5"/>
<path d="M789.4 762.028L783.912 767.619C783.11 768.435 783.11 769.817 783.912 770.634L784.898 771.639C785.7 772.456 787.056 772.456 787.858 771.639L793.346 766.049C794.147 765.232 794.147 763.85 793.346 763.033L792.359 762.028C791.558 761.212 790.201 761.212 789.4 762.028Z" fill="#3ED0FF"/>
<path d="M802.597 749.087L797.109 754.677C796.308 755.494 796.308 756.876 797.109 757.693L798.096 758.698C798.897 759.514 800.254 759.514 801.056 758.698L806.543 753.107C807.345 752.291 807.345 750.909 806.543 750.092L805.557 749.087C804.755 748.27 803.399 748.27 802.597 749.087Z" fill="#3ED0FF"/>
<path d="M796.185 768.999L790.697 774.59C789.895 775.406 789.895 776.788 790.697 777.605L791.683 778.61C792.485 779.426 793.842 779.426 794.643 778.61L800.131 773.019C800.933 772.203 800.933 770.821 800.131 770.004L799.144 768.999C798.343 768.183 797.048 768.183 796.185 768.999Z" fill="#3ED0FF"/>
<path d="M809.38 756.062L803.892 761.652C803.091 762.469 803.091 763.851 803.892 764.667L804.879 765.672C805.681 766.489 807.037 766.489 807.839 765.672L813.326 760.082C814.128 759.265 814.128 757.883 813.326 757.067L812.34 756.062C811.538 755.245 810.182 755.245 809.38 756.062Z" fill="#3ED0FF"/>
<path d="M804.511 776.599L799.023 782.189C798.221 783.006 798.221 784.388 799.023 785.204L800.01 786.21C800.811 787.026 802.168 787.026 802.969 786.21L808.457 780.619C809.259 779.803 809.259 778.421 808.457 777.604L807.471 776.599C806.669 775.72 805.312 775.72 804.511 776.599Z" fill="#3ED0FF"/>
<path d="M817.704 763.661L812.216 769.252C811.415 770.068 811.415 771.45 812.216 772.267L813.203 773.272C814.005 774.089 815.361 774.089 816.163 773.272L821.65 767.682C822.452 766.865 822.452 765.483 821.65 764.667L820.664 763.661C819.862 762.782 818.506 762.782 817.704 763.661Z" fill="#3ED0FF"/>
<path d="M811.292 783.573L805.804 789.164C805.003 789.98 805.003 791.362 805.804 792.179L806.791 793.184C807.592 794 808.949 794 809.751 793.184L815.238 787.593C816.04 786.777 816.04 785.395 815.238 784.578L814.252 783.573C813.45 782.757 812.155 782.757 811.292 783.573Z" fill="#3ED0FF"/>
<path d="M824.487 770.632L819 776.222C818.198 777.039 818.198 778.421 819 779.237L819.986 780.242C820.788 781.059 822.144 781.059 822.946 780.242L828.434 774.652C829.235 773.835 829.235 772.454 828.434 771.637L827.447 770.632C826.645 769.815 825.289 769.815 824.487 770.632Z" fill="#3ED0FF"/>
<path d="M818.816 790.859L813.328 796.449C812.526 797.266 812.526 798.648 813.328 799.464L814.314 800.469C815.116 801.286 816.472 801.286 817.274 800.469L822.762 794.879C823.563 794.062 823.563 792.68 822.762 791.864L821.775 790.859C820.974 789.979 819.679 789.979 818.816 790.859Z" fill="#3ED0FF"/>
<path d="M832.007 777.919L826.519 783.509C825.718 784.326 825.718 785.708 826.519 786.525L827.506 787.53C828.307 788.346 829.664 788.346 830.465 787.53L835.953 781.939C836.755 781.123 836.755 779.741 835.953 778.924L834.967 777.919C834.165 777.102 832.809 777.102 832.007 777.919Z" fill="#3ED0FF"/>
<path opacity="0.15" d="M1251.76 737.766L1239.8 778.407C1239.31 780.103 1237.52 781.108 1235.79 780.605L1189.18 766.346C1187.51 765.844 1186.53 764.022 1187.02 762.264L1198.98 721.623C1199.48 719.927 1201.26 718.922 1202.99 719.425L1249.61 733.683C1251.27 734.249 1252.26 736.07 1251.76 737.766Z" fill="black"/>
<path d="M1248.68 739.083L1236.72 779.723C1236.22 781.419 1234.43 782.424 1232.71 781.922L1186.09 767.663C1184.43 767.16 1183.44 765.339 1183.93 763.58L1195.9 722.94C1196.39 721.244 1198.18 720.239 1199.9 720.741L1246.52 735C1248.25 735.502 1249.23 737.324 1248.68 739.083Z" fill="#F5F5F5"/>
<path d="M1191.64 765.216C1193.51 765.216 1195.03 763.669 1195.03 761.761C1195.03 759.853 1193.51 758.307 1191.64 758.307C1189.77 758.307 1188.25 759.853 1188.25 761.761C1188.25 763.669 1189.77 765.216 1191.64 765.216Z" fill="#FF4622"/>
<path d="M1194.11 755.73C1195.98 755.73 1197.5 754.183 1197.5 752.275C1197.5 750.367 1195.98 748.82 1194.11 748.82C1192.24 748.82 1190.72 750.367 1190.72 752.275C1190.72 754.183 1192.24 755.73 1194.11 755.73Z" fill="#FF4622"/>
<path d="M1198.67 741.597C1200.54 741.597 1202.06 740.05 1202.06 738.142C1202.06 736.234 1200.54 734.688 1198.67 734.688C1196.8 734.688 1195.28 736.234 1195.28 738.142C1195.28 740.05 1196.8 741.597 1198.67 741.597Z" fill="#FF4622"/>
<path d="M1201.14 732.113C1203.01 732.113 1204.53 730.566 1204.53 728.658C1204.53 726.75 1203.01 725.203 1201.14 725.203C1199.26 725.203 1197.75 726.75 1197.75 728.658C1197.75 730.566 1199.26 732.113 1201.14 732.113Z" fill="#FF4622"/>
<path d="M1200.4 767.915C1202.27 767.915 1203.79 766.369 1203.79 764.461C1203.79 762.553 1202.27 761.006 1200.4 761.006C1198.52 761.006 1197.01 762.553 1197.01 764.461C1197.01 766.369 1198.52 767.915 1200.4 767.915Z" fill="#FF4622"/>
<path d="M1202.86 758.429C1204.74 758.429 1206.25 756.882 1206.25 754.974C1206.25 753.066 1204.74 751.52 1202.86 751.52C1200.99 751.52 1199.47 753.066 1199.47 754.974C1199.47 756.882 1200.99 758.429 1202.86 758.429Z" fill="#FF4622"/>
<path d="M1207.37 744.298C1209.24 744.298 1210.76 742.751 1210.76 740.843C1210.76 738.935 1209.24 737.389 1207.37 737.389C1205.49 737.389 1203.97 738.935 1203.97 740.843C1203.97 742.751 1205.49 744.298 1207.37 744.298Z" fill="#FF4622"/>
<path d="M1209.89 734.814C1211.77 734.814 1213.28 733.267 1213.28 731.359C1213.28 729.451 1211.77 727.904 1209.89 727.904C1208.02 727.904 1206.5 729.451 1206.5 731.359C1206.5 733.267 1208.02 734.814 1209.89 734.814Z" fill="#FF4622"/>
<path d="M1209.89 770.806C1211.77 770.806 1213.28 769.259 1213.28 767.351C1213.28 765.443 1211.77 763.896 1209.89 763.896C1208.02 763.896 1206.5 765.443 1206.5 767.351C1206.5 769.259 1208.02 770.806 1209.89 770.806Z" fill="#FF4622"/>
<path d="M1212.36 761.322C1214.23 761.322 1215.75 759.775 1215.75 757.867C1215.75 755.959 1214.23 754.412 1212.36 754.412C1210.49 754.412 1208.97 755.959 1208.97 757.867C1208.97 759.775 1210.49 761.322 1212.36 761.322Z" fill="#FF4622"/>
<path d="M1216.92 747.187C1218.79 747.187 1220.31 745.64 1220.31 743.732C1220.31 741.824 1218.79 740.277 1216.92 740.277C1215.05 740.277 1213.53 741.824 1213.53 743.732C1213.53 745.64 1215.05 747.187 1216.92 747.187Z" fill="#FF4622"/>
<path d="M1219.39 737.702C1221.26 737.702 1222.78 736.156 1222.78 734.248C1222.78 732.34 1221.26 730.793 1219.39 730.793C1217.52 730.793 1216 732.34 1216 734.248C1216 736.156 1217.52 737.702 1219.39 737.702Z" fill="#FF4622"/>
<path d="M1220.31 773.191C1222.19 773.191 1223.7 771.644 1223.7 769.736C1223.7 767.828 1222.19 766.281 1220.31 766.281C1218.44 766.281 1216.92 767.828 1216.92 769.736C1216.92 771.644 1218.44 773.191 1220.31 773.191Z" fill="#FF4622"/>
<path d="M1222.78 763.708C1224.65 763.708 1226.17 762.162 1226.17 760.254C1226.17 758.346 1224.65 756.799 1222.78 756.799C1220.91 756.799 1219.39 758.346 1219.39 760.254C1219.39 762.162 1220.91 763.708 1222.78 763.708Z" fill="#FF4622"/>
<path d="M1227.34 749.574C1229.22 749.574 1230.73 748.027 1230.73 746.119C1230.73 744.211 1229.22 742.664 1227.34 742.664C1225.47 742.664 1223.95 744.211 1223.95 746.119C1223.95 748.027 1225.47 749.574 1227.34 749.574Z" fill="#FF4622"/>
<path d="M1229.81 740.091C1231.68 740.091 1233.2 738.544 1233.2 736.636C1233.2 734.728 1231.68 733.182 1229.81 733.182C1227.94 733.182 1226.42 734.728 1226.42 736.636C1226.42 738.544 1227.94 740.091 1229.81 740.091Z" fill="#FF4622"/>
<path d="M1229.99 776.21C1231.87 776.21 1233.38 774.664 1233.38 772.756C1233.38 770.848 1231.87 769.301 1229.99 769.301C1228.12 769.301 1226.6 770.848 1226.6 772.756C1226.6 774.664 1228.12 776.21 1229.99 776.21Z" fill="#FF4622"/>
<path d="M1232.46 766.722C1234.33 766.722 1235.85 765.175 1235.85 763.267C1235.85 761.359 1234.33 759.812 1232.46 759.812C1230.59 759.812 1229.07 761.359 1229.07 763.267C1229.07 765.175 1230.59 766.722 1232.46 766.722Z" fill="#FF4622"/>
<path d="M1236.96 752.589C1238.83 752.589 1240.35 751.042 1240.35 749.134C1240.35 747.226 1238.83 745.68 1236.96 745.68C1235.09 745.68 1233.57 747.226 1233.57 749.134C1233.57 751.042 1235.09 752.589 1236.96 752.589Z" fill="#FF4622"/>
<path d="M1239.49 743.107C1241.36 743.107 1242.88 741.56 1242.88 739.652C1242.88 737.744 1241.36 736.197 1239.49 736.197C1237.62 736.197 1236.1 737.744 1236.1 739.652C1236.1 741.56 1237.62 743.107 1239.49 743.107Z" fill="#FF4622"/>
<path opacity="0.15" d="M907.607 691.825L895.645 732.465C895.152 734.161 893.364 735.166 891.637 734.664L845.022 720.405C843.357 719.903 842.37 718.081 842.864 716.322L854.826 675.682C855.319 673.986 857.107 672.981 858.834 673.483L905.449 687.742C907.114 688.307 908.1 690.129 907.607 691.825Z" fill="black"/>
<path d="M904.521 693.141L892.559 733.782C892.066 735.478 890.278 736.483 888.551 735.98L841.936 721.722C840.271 721.219 839.284 719.397 839.778 717.639L851.74 676.998C852.233 675.302 854.021 674.297 855.748 674.8L902.363 689.058C904.09 689.561 905.076 691.382 904.521 693.141Z" fill="#F5F5F5"/>
<path d="M847.485 719.275C849.358 719.275 850.876 717.728 850.876 715.82C850.876 713.912 849.358 712.365 847.485 712.365C845.612 712.365 844.094 713.912 844.094 715.82C844.094 717.728 845.612 719.275 847.485 719.275Z" fill="#1FAD58"/>
<path d="M849.954 709.788C851.827 709.788 853.345 708.242 853.345 706.334C853.345 704.426 851.827 702.879 849.954 702.879C848.081 702.879 846.562 704.426 846.562 706.334C846.562 708.242 848.081 709.788 849.954 709.788Z" fill="#1FAD58"/>
<path d="M854.515 695.656C856.388 695.656 857.906 694.109 857.906 692.201C857.906 690.293 856.388 688.746 854.515 688.746C852.642 688.746 851.123 690.293 851.123 692.201C851.123 694.109 852.642 695.656 854.515 695.656Z" fill="#1FAD58"/>
<path d="M856.981 686.171C858.854 686.171 860.372 684.624 860.372 682.716C860.372 680.808 858.854 679.262 856.981 679.262C855.108 679.262 853.59 680.808 853.59 682.716C853.59 684.624 855.108 686.171 856.981 686.171Z" fill="#1FAD58"/>
<path d="M856.241 721.974C858.114 721.974 859.632 720.427 859.632 718.519C859.632 716.611 858.114 715.064 856.241 715.064C854.368 715.064 852.85 716.611 852.85 718.519C852.85 720.427 854.368 721.974 856.241 721.974Z" fill="#1FAD58"/>
<path d="M858.706 712.488C860.579 712.488 862.097 710.941 862.097 709.033C862.097 707.125 860.579 705.578 858.706 705.578C856.833 705.578 855.314 707.125 855.314 709.033C855.314 710.941 856.833 712.488 858.706 712.488Z" fill="#1FAD58"/>
<path d="M863.21 698.357C865.083 698.357 866.601 696.81 866.601 694.902C866.601 692.994 865.083 691.447 863.21 691.447C861.337 691.447 859.818 692.994 859.818 694.902C859.818 696.81 861.337 698.357 863.21 698.357Z" fill="#1FAD58"/>
<path d="M865.737 688.872C867.61 688.872 869.128 687.326 869.128 685.418C869.128 683.51 867.61 681.963 865.737 681.963C863.864 681.963 862.346 683.51 862.346 685.418C862.346 687.326 863.864 688.872 865.737 688.872Z" fill="#1FAD58"/>
<path d="M865.737 724.865C867.61 724.865 869.128 723.318 869.128 721.41C869.128 719.502 867.61 717.955 865.737 717.955C863.864 717.955 862.346 719.502 862.346 721.41C862.346 723.318 863.864 724.865 865.737 724.865Z" fill="#1FAD58"/>
<path d="M868.204 715.38C870.077 715.38 871.595 713.833 871.595 711.925C871.595 710.017 870.077 708.471 868.204 708.471C866.331 708.471 864.812 710.017 864.812 711.925C864.812 713.833 866.331 715.38 868.204 715.38Z" fill="#1FAD58"/>
<path d="M872.764 701.245C874.637 701.245 876.156 699.699 876.156 697.791C876.156 695.883 874.637 694.336 872.764 694.336C870.891 694.336 869.373 695.883 869.373 697.791C869.373 699.699 870.891 701.245 872.764 701.245Z" fill="#1FAD58"/>
<path d="M875.233 691.761C877.106 691.761 878.624 690.214 878.624 688.306C878.624 686.398 877.106 684.852 875.233 684.852C873.36 684.852 871.842 686.398 871.842 688.306C871.842 690.214 873.36 691.761 875.233 691.761Z" fill="#1FAD58"/>
<path d="M876.157 727.249C878.03 727.249 879.548 725.703 879.548 723.795C879.548 721.887 878.03 720.34 876.157 720.34C874.284 720.34 872.766 721.887 872.766 723.795C872.766 725.703 874.284 727.249 876.157 727.249Z" fill="#1FAD58"/>
<path d="M878.624 717.767C880.497 717.767 882.015 716.22 882.015 714.312C882.015 712.404 880.497 710.857 878.624 710.857C876.751 710.857 875.232 712.404 875.232 714.312C875.232 716.22 876.751 717.767 878.624 717.767Z" fill="#1FAD58"/>
<path d="M883.186 703.632C885.059 703.632 886.578 702.085 886.578 700.177C886.578 698.269 885.059 696.723 883.186 696.723C881.313 696.723 879.795 698.269 879.795 700.177C879.795 702.085 881.313 703.632 883.186 703.632Z" fill="#1FAD58"/>
<path d="M885.653 694.15C887.526 694.15 889.044 692.603 889.044 690.695C889.044 688.787 887.526 687.24 885.653 687.24C883.78 687.24 882.261 688.787 882.261 690.695C882.261 692.603 883.78 694.15 885.653 694.15Z" fill="#1FAD58"/>
<path d="M885.837 730.269C887.71 730.269 889.228 728.722 889.228 726.814C889.228 724.906 887.71 723.359 885.837 723.359C883.964 723.359 882.445 724.906 882.445 726.814C882.445 728.722 883.964 730.269 885.837 730.269Z" fill="#1FAD58"/>
<path d="M888.305 720.781C890.178 720.781 891.697 719.234 891.697 717.326C891.697 715.418 890.178 713.871 888.305 713.871C886.432 713.871 884.914 715.418 884.914 717.326C884.914 719.234 886.432 720.781 888.305 720.781Z" fill="#1FAD58"/>
<path d="M892.805 706.648C894.678 706.648 896.197 705.101 896.197 703.193C896.197 701.285 894.678 699.738 892.805 699.738C890.932 699.738 889.414 701.285 889.414 703.193C889.414 705.101 890.932 706.648 892.805 706.648Z" fill="#1FAD58"/>
<path d="M895.333 697.165C897.206 697.165 898.724 695.619 898.724 693.711C898.724 691.803 897.206 690.256 895.333 690.256C893.46 690.256 891.941 691.803 891.941 693.711C891.941 695.619 893.46 697.165 895.333 697.165Z" fill="#1FAD58"/>
<path d="M1447.45 547.351L1359.4 516.07C1356.93 515.191 1354.22 516.573 1353.36 519.085L1305.69 665.19C1304.77 668.08 1306.31 671.157 1309.08 672.1L1411.56 706.333C1413.66 707.024 1415.94 705.893 1416.68 703.695L1447.45 609.6V547.351V547.351Z" fill="#161616"/>
<path d="M1447.45 556.835L1360.45 525.805L1315.19 661.42L1410.76 695.59L1447.45 588.43V556.835Z" fill="#EDEDED"/>
<path d="M1383.07 672.978L1345.89 659.661C1344.17 659.033 1342.25 659.975 1341.7 661.797L1338.74 671.219C1338.18 672.978 1339.11 674.799 1340.77 675.365L1378.14 688.493C1379.87 689.121 1381.78 688.116 1382.33 686.294L1385.11 677.123C1385.6 675.365 1384.74 673.543 1383.07 672.978Z" fill="#A8A8A8"/>
<path d="M1376.97 601.62L1393.93 639.497L1396.89 638.115L1400.22 636.545L1387.02 607.085L1382.34 598.229L1379.25 600.176L1376.97 601.62Z" fill="#CDE5FF"/>
<path opacity="0.15" d="M1400.59 648.858H1398.92C1398.92 648.858 1392.14 639.75 1391.96 639.499C1391.77 639.248 1374.94 601.434 1374.94 601.434C1374.94 601.434 1371.12 591.446 1370.99 591.195C1370.87 590.944 1370.01 581.459 1370.01 581.459H1370.62L1400.59 648.607V648.858Z" fill="#2D2D2D"/>
<path d="M1376.97 601.62L1393.93 639.497L1396.89 638.115L1383.82 608.718L1379.25 600.176L1376.97 601.62Z" fill="#BEE1FF"/>
<path d="M1388.87 611.166C1389 611.041 1379.07 590.061 1378.64 589.307C1378.15 588.49 1372.53 581.016 1372.04 581.016C1371.55 581.016 1370.75 581.267 1370.62 581.518C1370.56 581.769 1372.23 590.501 1372.47 591.317C1372.72 592.134 1377.1 602.121 1377.1 602.121C1377.1 602.121 1379.38 601.681 1381.29 600.425C1381.29 600.425 1386.78 611.92 1387.02 612.046C1387.33 612.234 1388.26 611.732 1388.87 611.166Z" fill="#0061D4"/>
<path d="M1400.22 636.545L1402.75 647.349C1402.81 647.6 1402.75 647.851 1402.56 648.04C1402.13 648.48 1401.21 649.171 1400.22 648.856L1393.93 639.56L1400.22 636.545Z" fill="#0061D4"/>
<path d="M1355.69 598.486L1372.65 636.362L1375.61 634.981L1378.94 633.41L1365.74 603.95L1361.06 595.094L1357.97 597.041L1355.69 598.486Z" fill="#CDE5FF"/>
<path opacity="0.15" d="M1379.31 645.725H1377.65C1377.65 645.725 1370.86 636.617 1370.68 636.366C1370.49 636.115 1353.66 598.301 1353.66 598.301C1353.66 598.301 1349.84 588.314 1349.71 588.062C1349.59 587.811 1348.73 578.326 1348.73 578.326H1349.34L1379.31 645.474V645.725Z" fill="#2D2D2D"/>
<path d="M1355.69 598.486L1372.65 636.362L1375.61 634.981L1362.54 605.584L1357.97 597.041L1355.69 598.486Z" fill="#BEE1FF"/>
<path d="M1367.6 608.031C1367.72 607.906 1357.79 586.926 1357.36 586.172C1356.87 585.356 1351.26 577.881 1350.76 577.881C1350.27 577.881 1349.47 578.132 1349.34 578.383C1349.28 578.635 1350.95 587.366 1351.19 588.182C1351.44 588.999 1355.82 598.986 1355.82 598.986C1355.82 598.986 1358.1 598.547 1360.01 597.29C1360.01 597.29 1365.5 608.785 1365.75 608.911C1366.05 609.099 1366.98 608.597 1367.6 608.031Z" fill="#F71735"/>
<path d="M1378.94 633.41L1381.47 644.214C1381.53 644.465 1381.47 644.717 1381.28 644.905C1380.85 645.345 1379.93 646.036 1378.94 645.722L1372.65 636.425L1378.94 633.41Z" fill="#F71735"/>
</g>
<defs>
<clipPath id="clip0_1_41508">
<rect width="695" height="900" fill="white" transform="translate(745)"/>
</clipPath>
</defs>
</svg>
