<svg width="91" height="18" viewBox="0 0 91 18" fill="none" xmlns="http://www.w3.org/2000/svg">
<g clip-path="url(#clip0_2720_68612)">
<path d="M0.496094 5.9988L0.802935 5.26247C0.687279 5.50408 0.588146 5.75259 0.496094 5.9988ZM9.18918 1.85053e-06C7.42107 0.00187235 5.69078 0.498831 4.20407 1.43176C2.71736 2.36469 1.53684 3.69432 0.802935 5.26247L6.56684 8.42638L7.55349 8.97403L7.78949 8.8452L12.2505 6.44291L12.3142 6.40839L16.8296 3.96008C15.9865 2.74009 14.8487 1.74084 13.5164 1.05029C12.1841 0.359735 10.6981 -0.000942724 9.18918 1.85053e-06ZM7.53694 7.90406L2.12472 4.93112C2.78303 3.83826 3.69853 2.9137 4.79564 2.23377C5.89275 1.55385 7.14003 1.13806 8.43447 1.02072C9.72891 0.903388 11.0334 1.08787 12.2403 1.55895C13.4472 2.03002 14.5218 2.77417 15.3756 3.72998L7.53694 7.90406Z" fill="#00B0ED"/>
<path d="M15.9291 13.5423L1.69398 5.75093L0.808858 5.25391C0.656684 5.58072 0.52582 5.91658 0.417045 6.25946C-0.212451 8.22989 -0.127207 10.3514 0.658459 12.2678C1.44412 14.1842 2.88235 15.7786 4.73153 16.7832C6.58072 17.7878 8.72822 18.1414 10.8132 17.7846C12.8983 17.4278 14.7939 16.3824 16.1816 14.8239C16.4079 14.5729 16.6191 14.3094 16.8142 14.0346L15.9291 13.5423ZM9.21869 16.9385C7.9499 16.9371 6.69866 16.6493 5.56311 16.0976C4.42753 15.5458 3.43847 14.7451 2.67343 13.7583C1.90839 12.7716 1.38817 11.6255 1.15354 10.4099C0.918902 9.19431 0.976239 7.94228 1.32105 6.7519L15.2753 14.3315C14.5076 15.1533 13.5724 15.8097 12.5294 16.2586C11.4864 16.7076 10.3588 16.9392 9.21869 16.9385Z" fill="#FF0000"/>
<path d="M16.3407 5.85007L10.8553 8.74249L10.4375 8.97256L10.8883 9.20271L16.3407 12.1043L16.8128 12.3574V5.60156L16.3407 5.85007ZM16.3407 11.674L11.2944 8.99326L16.3407 6.31028V11.674Z" fill="#FFCC2E"/>
<path fill-rule="evenodd" clip-rule="evenodd" d="M86.9483 11.8847V10.0154H90.7057V8.23497H86.9483V6.6594H90.8884V4.91016H86.9483H84.25V6.6594V8.23497V10.0154V11.8847V13.6384H86.9483H90.9978V11.8847H86.9483Z" fill="#131515"/>
<path fill-rule="evenodd" clip-rule="evenodd" d="M56.9444 11.8853V10.0115H60.7064V8.23106H56.9444V6.65548H60.889V4.90625H56.9444H54.2461V6.65548V8.23106V10.0115V11.8853V13.6345H56.9444H60.9986V11.8853H56.9444Z" fill="#131515"/>
<path fill-rule="evenodd" clip-rule="evenodd" d="M78.5491 8.82538V10.6057H79.7315V11.5983C79.531 11.6473 76.8419 12.2481 75.9833 10.1607C75.9833 10.1607 75.134 8.13103 77.4077 6.9026C77.4077 6.9026 79.3253 5.98124 81.9372 7.46786V5.41597C81.9372 5.41597 77.3984 3.82254 74.6961 5.78095C74.6961 5.78095 73.1162 6.77351 73.0845 9.25269C73.0575 10.0378 73.2514 10.8152 73.645 11.5007C74.0387 12.1862 74.6164 12.7541 75.3167 13.1427C75.3167 13.1427 77.8963 14.5893 82.1239 13.0404V8.82538H78.5491Z" fill="#131515"/>
<path fill-rule="evenodd" clip-rule="evenodd" d="M69.8538 5.57686C68.3839 4.75789 65.4893 4.90477 65.4893 4.90477H65.2017H62.8047V13.6419H67.6348C68.2045 13.6554 68.7723 13.5772 69.315 13.4105C70.014 13.1653 70.6306 12.7383 71.0981 12.1757C71.5663 11.6131 71.867 10.9365 71.9679 10.2192C72.1433 9.32757 72.0345 8.40501 71.6566 7.57521C71.2788 6.74541 70.6497 6.04814 69.8538 5.57686ZM69.1462 10.3839C68.6899 11.9194 66.6536 11.8304 66.6536 11.8304H65.4893V6.67624H66.9411C67.2537 6.70009 67.5616 6.76752 67.8544 6.87655C68.1782 7.01952 68.4703 7.22376 68.7123 7.47743C69.557 8.63907 69.251 9.72068 69.1462 10.3839Z" fill="#131515"/>
<path fill-rule="evenodd" clip-rule="evenodd" d="M51.3568 4.83984H50.9687V11.6765L44.8736 4.83984H43.8281V13.6393H45.0563V12.985V6.86056L51.0874 13.6393H52.2014V4.83984H51.3568Z" fill="#131515"/>
<path fill-rule="evenodd" clip-rule="evenodd" d="M41.9953 9.83377V4.83984H40.6941V9.83377L40.653 10.8308C40.5867 11.1906 40.4256 11.5276 40.1855 11.8085C39.9454 12.0894 39.6345 12.3047 39.2833 12.4331C38.4982 12.6896 37.6487 12.6896 36.8636 12.4331C36.0509 11.988 35.9002 11.7165 35.9002 11.7165C35.5852 11.3382 35.5167 10.4258 35.5076 9.83377V4.83984H34.2109V10.0919C34.2109 10.3679 34.2612 10.8842 34.2612 10.8842C34.3157 11.3557 34.4782 11.8093 34.7366 12.2114C34.995 12.6135 35.3427 12.9539 35.7541 13.2075C36.7444 13.6814 37.8603 13.8462 38.9501 13.6793C39.4308 13.6212 39.8945 13.4691 40.3135 13.232C40.7324 12.9949 41.0979 12.6777 41.3881 12.2996C42.0866 11.4317 41.9953 9.83377 41.9953 9.83377Z" fill="#131515"/>
<path fill-rule="evenodd" clip-rule="evenodd" d="M32.8397 12.2539L31.7485 10.6116C31.4135 10.1742 31.0205 9.78201 30.5797 9.44541C31.0311 9.27094 31.4179 8.9677 31.6894 8.5753C31.9611 8.18297 32.1048 7.71979 32.1018 7.24645C32.0989 6.77305 31.9494 6.31165 31.6729 5.92253C31.3964 5.53342 31.0058 5.23478 30.5523 5.0657C29.9599 4.89489 29.3437 4.81529 28.7261 4.8298H26.8633V13.6382H28.1417V9.80592C29.1507 9.74807 29.1644 9.84597 29.379 9.94838C29.5949 10.0763 29.7968 10.2255 29.9816 10.3934C30.2738 10.5047 32.2644 13.6204 32.2644 13.6204H33.803L32.8397 12.2539ZM29.1233 8.6932H28.1417V5.93363H29.1644C30.9906 5.98704 30.7349 7.44246 30.7349 7.44246C30.63 8.80892 29.1233 8.6932 29.1233 8.6932Z" fill="#131515"/>
<path fill-rule="evenodd" clip-rule="evenodd" d="M23.117 4.82422H21.3227H20.0078V13.637H21.2908V9.81368H22.4687C22.9722 9.82969 23.475 9.76501 23.9571 9.6223C24.4385 9.48711 24.8633 9.20573 25.1695 8.81911C25.4757 8.43256 25.6476 7.96083 25.66 7.47252C25.8107 4.90433 23.117 4.82422 23.117 4.82422ZM24.3771 7.45028C24.3177 8.78556 22.7381 8.69652 22.7381 8.69652H21.3227V5.93695H22.6605C23.0088 5.90405 23.3598 5.96083 23.6785 6.10163C23.926 6.22477 24.126 6.42264 24.2486 6.66573C24.3713 6.9088 24.4099 7.18401 24.3589 7.45028H24.3771Z" fill="#131515"/>
</g>
<defs>
<clipPath id="clip0_2720_68612">
<rect width="91" height="18" fill="white"/>
</clipPath>
</defs>
</svg>
