<svg width="87" height="48" viewBox="0 0 87 48" fill="none" xmlns="http://www.w3.org/2000/svg">
<path fill-rule="evenodd" clip-rule="evenodd" d="M0.693359 -19.0347H86.7623V67.0343H0.693359V-19.0347Z" fill="white"/>
<path fill-rule="evenodd" clip-rule="evenodd" d="M82.9648 47.6082V0.391602H4.49023V47.6082H82.9648V47.6082Z" fill="#224B8C" stroke="black" stroke-width="0.268345" stroke-miterlimit="2.613"/>
<path fill-rule="evenodd" clip-rule="evenodd" d="M43.9151 6.22363L44.3474 7.48371H45.6642L44.6148 8.29413L44.9962 9.55733L43.9151 8.80361L42.8341 9.55733L43.2155 8.29458L42.1657 7.48371H43.4829L43.9151 6.22363V6.22363ZM43.9151 37.742L44.3474 39.0016H45.6642L44.6148 39.8125L44.9962 41.0752L43.9151 40.322L42.8341 41.0752L43.2155 39.8125L42.1657 39.0016H43.4829L43.9151 37.742ZM59.5549 21.8267L59.9867 23.0868H61.3034L60.2546 23.8968L60.6355 25.1604L59.5549 24.4067L58.4734 25.1604L58.8547 23.8973L57.8054 23.0868H59.1222L59.5549 21.8267V21.8267ZM28.1928 21.8267L28.625 23.0868H29.9423L28.8925 23.8968L29.2738 25.1604L28.1928 24.4067L27.1118 25.1604L27.4931 23.8973L26.4434 23.0868H27.7606L28.1928 21.8267V21.8267Z" fill="#F2CA30"/>
<path fill-rule="evenodd" clip-rule="evenodd" d="M43.9151 6.22363L44.3474 7.48371H45.6642L44.6148 8.29413L44.9962 9.55733L43.9151 8.80361L42.8341 9.55733L43.2155 8.29458L42.1657 7.48371H43.4829L43.9151 6.22363V6.22363ZM29.7253 14.5293L30.1575 15.7894H31.4743L30.4245 16.5998L30.8063 17.863L29.7253 17.1093L28.6442 17.863L29.0256 16.5998L27.9758 15.7894H29.2926L29.7253 14.5293ZM30.1271 29.5872L30.5594 30.8473H31.8761L30.8268 31.6573L31.2081 32.92L30.1271 32.1668L29.0461 32.92L29.4274 31.6573L28.3777 30.8473H29.6949L30.1271 29.5872V29.5872ZM35.5206 8.38969L35.9528 9.64976H37.2701L36.2203 10.4602L36.6016 11.7234L35.5206 10.9697L34.4396 11.7234L34.8209 10.4602L33.7712 9.64976H35.0879L35.5206 8.38969V8.38969ZM35.5206 35.4085L35.9528 36.6677H37.2701L36.2203 37.4785L36.6016 38.7417L35.5206 37.988L34.4396 38.7417L34.8209 37.4785L33.7712 36.6677H35.0879L35.5206 35.4085V35.4085ZM58.0269 14.5293L57.5947 15.7894H56.2774L57.3276 16.5998L56.9454 17.863L58.0269 17.1093L59.1084 17.863L58.7266 16.5998L59.7764 15.7894H58.4596L58.0269 14.5293ZM58.0269 29.5591L57.5947 30.8192H56.2774L57.3276 31.6296L56.9454 32.8923L58.0269 32.1386L59.1084 32.8932L58.7266 31.6296L59.7764 30.8192H58.4596L58.0269 29.5591ZM52.232 8.38969L51.7993 9.64976H50.4825L51.5314 10.4602L51.1505 11.7234L52.232 10.9697L53.3126 11.7234L52.9312 10.4602L53.9814 9.64976H52.6647L52.232 8.38969V8.38969ZM52.232 35.1616L51.7993 36.4216H50.4825L51.5314 37.2321L51.1505 38.4957L52.232 37.7411L53.3126 38.4957L52.9312 37.2321L53.9814 36.4216H52.6647L52.232 35.1616V35.1616ZM43.9151 37.742L44.3474 39.0016H45.6642L44.6148 39.8125L44.9962 41.0752L43.9151 40.322L42.8341 41.0752L43.2155 39.8125L42.1657 39.0016H43.4829L43.9151 37.742ZM59.5549 21.8267L59.9867 23.0868H61.3034L60.2546 23.8968L60.6355 25.1604L59.5549 24.4067L58.4734 25.1604L58.8547 23.8973L57.8054 23.0868H59.1222L59.5549 21.8267V21.8267ZM28.1928 21.8267L28.625 23.0868H29.9423L28.8925 23.8968L29.2738 25.1604L28.1928 24.4067L27.1118 25.1604L27.4931 23.8973L26.4434 23.0868H27.7606L28.1928 21.8267V21.8267Z" fill="#F2CA30"/>
</svg>
