<svg width="33" height="64" viewBox="0 0 33 64" fill="none" xmlns="http://www.w3.org/2000/svg">
<g clip-path="url(#clip0_9115_37617)">
<path d="M31.3881 31.2227H0.96875V0.803321H31.3881V31.2227Z" fill="white"/>
<path d="M15.5317 47.3438H0.837891V32.6501H15.5317V47.3438Z" fill="white"/>
<path d="M31.4456 47.3438H16.752V32.6501H31.4456V47.3438Z" fill="white"/>
<path d="M15.5317 63.3867H0.837891V48.6931H15.5317V63.3867Z" fill="white"/>
<path d="M31.4456 63.3867H16.752V48.6931H31.4456V63.3867Z" fill="white"/>
<path d="M11.8899 40.8143C11.8899 43.8976 10.2643 45.1502 8.08991 45.1502C6.03265 45.1502 4.48239 43.9892 4.48239 40.8586V34.941H5.79508V40.9021C5.79508 43.1372 6.79285 44.0937 8.13499 44.0937C9.6093 44.0937 10.5784 43.1092 10.5784 40.9021V34.941H11.8899V40.8143ZM0.667969 47.5195H15.7114V32.4756H0.667969V47.5195Z" fill="#0968B0"/>
<path d="M27.9281 45.0225H26.6164L23.4269 39.9256C22.7274 38.8066 22.0578 37.6586 21.5644 36.5727L21.5187 36.5869C21.5955 37.8541 21.6097 39.0592 21.6097 40.7291V45.0225H20.3853V34.9764H21.817L25.0217 40.059C25.7532 41.2351 26.3469 42.2785 26.8087 43.3218L26.8548 43.3086C26.7358 41.9664 26.7063 40.7449 26.7063 39.1944V34.9764H27.9281V45.0225ZM16.6328 47.5195H31.6755V32.4756H16.6328V47.5195Z" fill="#0968B0"/>
<path d="M23.9098 51.9266C23.3441 51.9266 22.9122 51.9865 22.6895 52.0313V55.9349C22.9705 56.0096 23.3441 56.0391 23.7615 56.0391C25.3414 56.0391 26.2807 55.2646 26.2807 53.9091C26.2807 52.5664 25.3414 51.9266 23.9098 51.9266Z" fill="#0968B0"/>
<path d="M26.7995 55.9205C26.1142 56.648 24.9965 57.022 23.7309 57.022C23.3419 57.022 22.9849 57.0076 22.6872 56.9335V60.9569H21.3892V51.0468C22.0162 50.927 22.8355 50.8375 23.8781 50.8375C25.162 50.8375 26.0992 51.1359 26.6954 51.6714C27.2464 52.1481 27.589 52.8777 27.589 53.7737C27.589 54.6811 27.3216 55.3971 26.7995 55.9205ZM16.6328 63.4844H31.6755V48.4407H16.6328V63.4844Z" fill="#0968B0"/>
<path d="M7.22036 51.8525C6.55051 51.8525 6.04412 51.911 5.70117 51.9857V59.9291C6.02686 59.9882 6.5032 59.9882 7.01183 59.9882C9.78361 60.0034 11.2894 58.4389 11.2894 55.7256C11.3046 53.3272 9.96169 51.8525 7.22036 51.8525Z" fill="#0968B0"/>
<path d="M11.213 59.5881C10.2581 60.5276 8.70827 61.0334 6.75659 61.0334C5.81771 61.0334 5.0573 61.0044 4.38623 60.9152V51.0344C5.19212 50.9126 6.1306 50.8242 7.15862 50.8242C9.02177 50.8242 10.3475 51.2423 11.2289 52.061C12.1359 52.8821 12.6577 54.059 12.6577 55.6831C12.6577 57.3215 12.1359 58.6649 11.213 59.5881ZM0.650391 63.5H15.6933V48.4563H0.650391V63.5Z" fill="#0968B0"/>
<path d="M19.5204 11.6681L19.5007 11.7179C19.12 12.1146 18.702 12.5244 18.3379 12.9299C18.3627 12.9794 18.4045 13.0251 18.4502 13.0501C18.4664 12.9506 18.5194 12.8637 18.5281 12.7603C18.6272 12.6237 18.7767 12.7108 18.9054 12.7398C19.1034 12.6941 19.2894 12.7851 19.4918 12.781C19.6416 12.8551 19.6536 13.0458 19.7903 13.1201C19.8272 13.1739 19.7992 13.2363 19.7487 13.2775C19.7903 13.5875 19.9391 13.1944 20.0971 13.2691C20.1623 13.2939 20.2455 13.2856 20.2948 13.3559C20.3194 13.4842 20.477 13.4596 20.4855 13.5835C20.4729 13.6454 20.4069 13.6618 20.3649 13.6951C20.4023 13.8194 20.2364 13.8974 20.2948 14.0302C20.5348 14.0756 20.543 13.7985 20.6544 13.6744C20.5921 13.4596 20.5474 13.2403 20.4234 13.0501C20.2863 13.0208 20.2037 12.8596 20.0676 12.8306C19.8027 12.727 20.1085 12.5615 20.0756 12.4044C19.9353 12.1398 19.7117 11.9037 19.5204 11.6681Z" fill="#0968B0"/>
<path d="M21.0724 16.0625C20.898 16.6164 20.6951 17.1583 20.3477 17.6424C20.2111 17.816 20.0787 18.0562 19.9004 18.1469L20.2768 18.4781C20.2982 18.4574 20.2862 18.4243 20.2896 18.3953C20.2896 18.3459 20.3144 18.2879 20.3767 18.296C20.5587 18.2919 20.5627 18.4864 20.6657 18.5853C20.6454 18.7429 20.782 18.8669 20.7365 19.0117C21.7788 17.9112 22.3002 16.5628 22.3954 15.0694L22.4525 15.0032C22.0813 15.0407 21.6882 15.0158 21.3032 15.02L21.2123 14.9908C21.2374 15.2434 21.17 15.4874 21.1542 15.7358L21.2908 15.8844C21.3284 15.9425 21.3156 16.029 21.2618 16.0749C21.2041 16.112 21.1296 16.108 21.0724 16.0625Z" fill="#0968B0"/>
<path d="M19.6192 19.9961L19.6773 19.9173C19.926 19.7232 20.1944 19.5413 20.4137 19.3013H20.4426C20.393 19.2846 20.3311 19.3342 20.2726 19.309C20.1569 19.2556 20.1368 19.1524 20.1368 19.032L19.6275 18.507L19.5989 18.4282C19.5616 18.5277 19.4874 18.5892 19.4121 18.6641C19.4174 18.7301 19.3922 18.8294 19.4708 18.8751C19.6357 18.9289 19.8513 19.0365 19.8878 19.2304C19.8219 19.4123 19.474 19.5782 19.6893 19.7772C19.7599 19.8759 19.5906 19.9133 19.6192 19.9961Z" fill="#0968B0"/>
<path d="M16.6536 17.8147C16.7608 17.8357 16.6861 17.9514 16.7643 17.9924C16.9344 17.9388 17.0636 18.137 17.1994 18.0133C17.1913 17.8186 17.4108 17.8357 17.5298 17.7855C17.716 17.6742 17.9275 17.5252 17.9064 17.2769L17.8778 17.2399C17.7493 17.2399 17.6835 17.339 17.5885 17.4174C17.4727 17.484 17.4142 17.2937 17.3194 17.339C17.3235 17.3595 17.3442 17.368 17.3612 17.3762C17.3856 17.405 17.3939 17.4675 17.3612 17.4962C17.2199 17.6245 17.1543 17.434 17.0216 17.4466V17.4962C17.026 17.5252 17.0138 17.5707 16.9716 17.5542C16.8892 17.4174 16.7194 17.4675 16.6366 17.3471C16.5828 17.3185 16.5332 17.3557 16.4959 17.3885C16.468 17.4507 16.3355 17.3804 16.3673 17.4878C16.2646 17.5252 16.2524 17.6367 16.1777 17.7033C16.0498 17.6824 15.9921 17.8271 15.8711 17.8231C15.8839 17.848 15.8711 17.8893 15.9089 17.8933C15.9832 17.9266 16.0573 17.9343 16.1489 17.9226C16.2729 17.7238 16.48 17.8893 16.6536 17.8147Z" fill="#0968B0"/>
<path d="M15.9071 21.4865L15.9487 21.4244L15.8204 21.4575C14.2072 21.346 12.7798 20.7755 11.6009 19.6372L11.5889 19.6871L10.7363 20.5434C12.0269 21.6601 13.4831 22.3803 15.1461 22.6071C15.4109 22.6528 15.7126 22.628 15.969 22.707L15.9071 22.6071V21.4865Z" fill="#0968B0"/>
<path d="M16.6657 13.2826C16.7609 13.3364 16.8141 13.2373 16.8931 13.2164C17.0096 13.2288 17.0996 13.3283 17.1708 13.4024C17.2443 13.4355 17.315 13.39 17.3816 13.3655C17.4275 13.0219 17.8575 13.0715 17.9853 12.7488L17.9063 12.7781C17.8738 12.7322 17.7909 12.7531 17.7956 12.6784C17.8653 12.6126 17.9562 12.509 18.0431 12.48C17.6711 12.2483 17.2862 12.0499 16.8642 11.9423C16.699 11.9048 16.5252 11.9007 16.3672 11.8428C16.4466 12.0788 16.3761 12.4264 16.4263 12.6991L16.7235 12.7986C16.8112 12.6538 17.0009 12.625 17.0831 12.4883C17.1382 12.4426 17.1995 12.4883 17.2409 12.5381C17.2533 12.6499 17.2242 12.7614 17.1914 12.869C17.0797 13.0924 16.8141 13.1212 16.6657 13.2826Z" fill="#0968B0"/>
<path d="M19.3225 17.4665C19.3391 17.6034 19.1736 17.6653 19.1945 17.802C19.1405 17.8637 19.0498 17.8722 18.9669 17.8722C18.6402 17.7478 18.2961 17.6694 17.9324 17.6359C17.8995 17.6485 17.8788 17.6777 17.8835 17.7149C18.0321 17.7934 18.2138 17.7973 18.3712 17.8637C18.5111 17.9011 18.6069 18.0747 18.785 18.0211C18.9336 17.9382 19.1817 18.0704 19.2808 17.9134C19.2646 17.7606 19.3964 17.6485 19.463 17.5167L19.5127 17.5041C19.5958 17.5912 19.5915 17.7191 19.6284 17.8142C19.7442 17.6903 19.8356 17.5537 19.9387 17.4253C20.2114 17.0278 20.4435 16.6024 20.5428 16.1467C20.4313 16.1512 20.319 16.1719 20.2161 16.2048C20.0967 16.1967 19.9513 16.2667 19.8483 16.1843C19.8104 16.1512 19.786 16.201 19.7901 16.2341C19.7484 16.2958 19.7072 16.3744 19.6124 16.3457C19.5369 16.3124 19.5369 16.2341 19.5127 16.1762C19.5168 16.2219 19.5005 16.2629 19.4916 16.3043C19.4049 16.3951 19.3763 16.4824 19.3141 16.5819C19.2272 16.6765 19.0865 16.6432 18.9962 16.722C18.9791 16.9206 18.7598 16.8789 18.636 16.9417C18.6268 16.9664 18.6565 16.9703 18.6686 16.9908C18.7263 17.0073 18.8053 17.0073 18.8461 16.95C19.0205 16.9951 18.9838 16.7758 19.0823 16.7017C19.1694 16.6889 19.2524 16.6146 19.3432 16.6726C19.4339 16.7841 19.4548 16.9453 19.4414 17.0903C19.3432 17.1896 19.3931 17.3512 19.3225 17.4665Z" fill="#0968B0"/>
<path d="M17.406 17.0391C17.5053 16.9357 17.7153 16.94 17.7242 16.7911C17.5794 16.7702 17.5053 16.8488 17.406 16.9276C17.3932 16.9603 17.3475 17.0184 17.406 17.0391Z" fill="#0968B0"/>
<path d="M16.3885 21.0391C16.6941 20.9359 17.0496 20.9522 17.3816 20.8986C17.3148 20.8732 17.2488 20.8567 17.1993 20.7909C17.0048 20.7786 16.9138 20.5759 16.8519 20.4224C16.823 20.3109 16.8967 20.2204 16.9428 20.1249C16.8606 19.9552 16.6037 20.0793 16.4541 20.0175C16.4131 19.9842 16.3842 19.9343 16.3262 19.9266L16.3885 20.0175C16.3885 20.3566 16.4297 20.704 16.3885 21.0391Z" fill="#0968B0"/>
<path d="M20.7653 19.5504C20.6494 19.7784 20.3931 19.9228 20.1986 20.0962C19.9302 20.3654 19.4916 20.4229 19.355 20.8121C19.2104 20.9443 19.1607 21.1512 18.958 21.2255C18.8833 21.4241 18.6719 21.4119 18.5517 21.5567C18.2047 21.8665 17.9814 21.3581 17.6673 21.2958L17.0335 21.4074C16.8143 21.4074 16.5958 21.4862 16.3887 21.416C16.4177 21.8377 16.4177 22.2927 16.3887 22.7148L16.4681 22.6649C18.4616 22.5784 20.1816 21.8216 21.6589 20.4809L20.786 19.6495L20.7653 19.5504Z" fill="#0968B0"/>
<path d="M20.043 14.9626L20.1715 15.0905C20.2994 15.1776 20.2123 15.364 20.349 15.4381C20.51 15.5212 20.5678 15.7071 20.6385 15.8477C20.6637 15.8105 20.6637 15.7652 20.6759 15.7279C20.7335 15.5004 20.7248 15.244 20.7955 15.0206C20.5473 15.0332 20.2619 15.0582 20.043 14.9626Z" fill="#0968B0"/>
<path d="M17.6875 10.4885C17.2696 10.3394 16.8115 10.2773 16.3555 10.2069L16.3969 10.298L16.3888 11.419L16.496 11.3981C17.1833 11.4936 17.8113 11.7128 18.3538 12.1553L18.3825 12.2422C18.5689 11.9815 18.8497 11.7579 19.0692 11.5098L19.2765 11.3898L19.177 11.3486C18.7218 10.9681 18.2255 10.6783 17.6875 10.4885Z" fill="#0968B0"/>
<path d="M15.7317 17.7148C15.761 17.6034 15.7151 17.4625 15.7732 17.3674C15.8148 17.2761 15.9263 17.2803 16.0087 17.297C16.058 17.2929 16.0879 17.2306 16.058 17.1896C15.9384 17.1648 15.9929 17.0324 15.951 16.9577C15.9547 16.9165 16.0253 16.9244 16.0087 16.8706C15.9263 16.8046 16.0505 16.7303 15.9799 16.6596C15.9996 16.646 16.0156 16.6223 16.0357 16.6072C15.7851 16.7126 15.5183 16.5603 15.2972 16.4614C15.19 16.3993 15.0328 16.3372 15.0077 16.2048C14.8296 16.4949 14.4907 16.7591 14.2422 17.0281C14.685 17.3918 15.1815 17.6196 15.7317 17.7148Z" fill="#0968B0"/>
<path d="M9.9894 15.1049L10.0798 15.8661C10.1173 16.1599 10.2458 16.4409 10.2369 16.7305C10.2832 16.6683 10.2538 16.5447 10.3656 16.5321C10.3198 16.4409 10.4523 16.3625 10.3782 16.284C10.4148 16.0854 10.44 15.8828 10.614 15.7382C10.8249 15.7295 10.8414 15.4523 11.0519 15.4399C11.1598 15.4356 11.2257 15.5806 11.2718 15.63C11.1388 15.4691 11.1472 15.2044 11.1805 15.0222L11.0893 15.0637C10.7055 15.0551 10.3033 15.0882 9.93945 15.0348L9.9894 15.1049Z" fill="#0968B0"/>
<path d="M14.7501 15.9257L14.6094 15.8552C14.585 15.9588 14.5142 16.0498 14.4395 16.1245L14.4524 16.1328C14.5515 16.0624 14.622 15.9338 14.7501 15.9257Z" fill="#0968B0"/>
<path d="M11.341 19.3408C11.2005 19.2413 11.0761 19.0799 10.9563 18.9432C10.82 18.9065 10.6791 18.8114 10.6087 18.679C10.5674 18.6334 10.605 18.5507 10.5589 18.5174L10.5092 18.5796C10.365 18.6502 10.311 18.501 10.2117 18.4388C10.083 18.3684 10.1455 18.1243 9.9717 18.17C9.9055 18.1657 9.88459 18.0916 9.84337 18.0502C9.68215 18.0667 9.64134 17.8888 9.55403 17.8023C9.53758 17.839 9.55403 17.8888 9.50428 17.9136C9.339 17.9509 9.28093 17.7481 9.16946 17.6656C9.14002 17.678 9.11992 17.7109 9.07789 17.7028C8.979 17.6157 8.91281 17.4918 8.90834 17.3554C8.7723 17.2019 8.83383 16.958 8.859 16.772C8.88377 16.7223 8.95403 16.6935 8.94164 16.6313C8.979 16.5446 9.06997 16.5363 9.15667 16.532C9.18977 16.5485 9.22286 16.582 9.23992 16.6104C9.29332 16.5773 9.41352 16.6149 9.36804 16.4951C9.4385 16.4327 9.54185 16.4118 9.63687 16.3954C9.70286 16.4784 9.73616 16.5735 9.82286 16.6518L9.7652 16.5613C9.6655 16.1556 9.58713 15.7418 9.56682 15.3034C9.57068 15.2786 9.51281 15.2664 9.5457 15.2415L9.55403 15.2541C9.55809 15.1629 9.54977 15.0841 9.56682 15.0222L9.45454 15.0638L8.30469 15.0551C8.37108 16.3791 8.72256 17.5824 9.31809 18.6876C9.6119 19.233 10.0422 19.7255 10.4182 20.2344L11.2417 19.3824L11.341 19.3408Z" fill="#0968B0"/>
<path d="M15.8093 19.879C14.8038 19.8291 13.9228 19.4612 13.1412 18.878C13.166 18.9771 13.298 19.0394 13.2612 19.1635C13.1906 19.2752 13.046 19.279 12.9297 19.2752C12.6941 19.2376 12.5203 19.4155 12.297 19.4405C12.0941 19.5026 12.0243 19.2547 11.8379 19.2752C12.9877 20.2801 14.3035 20.9091 15.842 20.9913L15.9581 21.0703L15.9082 20.93V19.8372L15.8093 19.879Z" fill="#0968B0"/>
<path d="M12.6632 9.68247C12.4064 9.86055 12.1704 10.092 11.9062 10.2494C12.2122 10.4437 12.4642 10.7663 12.7412 11.0226L12.7704 11.1016C13.4738 10.427 14.3298 10.0339 15.2529 9.8441C15.4719 9.82298 15.691 9.74887 15.9059 9.79435C15.8896 9.40126 15.8559 8.99171 15.8973 8.60288C14.6981 8.67354 13.6226 9.0376 12.6632 9.68247Z" fill="#0968B0"/>
<path d="M13.8134 15.738C13.7719 15.7169 13.7675 15.7215 13.7346 15.7585C13.7141 15.7585 13.6891 15.7628 13.6731 15.7502C13.6731 15.5144 13.4083 15.6551 13.3086 15.5309C13.4251 15.7459 13.4865 15.99 13.6065 16.2048C13.6808 16.3952 13.8461 16.5447 13.9208 16.7305C13.9996 16.5818 14.1567 16.4614 14.269 16.325C14.2761 16.2631 14.2649 16.209 14.2316 16.1636C14.1935 16.0771 14.2268 15.953 14.1604 15.8783C14.0534 15.9154 14.1983 16.0233 14.1522 16.0852C14.1068 16.1142 14.0574 16.0771 14.0534 16.0354C13.9577 16.019 13.883 15.9362 13.8546 15.8492C13.933 15.7995 13.8343 15.7786 13.8134 15.738Z" fill="#0968B0"/>
<path d="M11.6815 14.0007C11.6358 14.1993 11.6608 14.431 11.582 14.6172C11.7264 14.551 11.938 14.576 12.0994 14.5967C12.0044 14.5469 12.0827 14.4269 12.0285 14.3607C12.0168 14.2574 11.9997 14.1291 12.0994 14.0629C12.087 13.8931 12.2681 13.8064 12.2858 13.6531C12.3309 13.4797 12.5292 13.5955 12.6247 13.5045C12.6866 13.4712 12.6328 13.4135 12.6328 13.368C12.7154 13.2564 12.8438 13.2604 12.9428 13.1983C13.0135 13.0907 13.1041 12.975 13.2204 12.9086C13.4685 12.9173 13.4726 12.5695 13.7081 12.5613C13.3857 12.3173 13.0799 11.9906 12.7938 11.7092C12.2235 12.3916 11.8344 13.1447 11.6815 14.0007Z" fill="#0968B0"/>
<path d="M11.5986 10.5965L11.1521 11.1634C10.4201 12.1687 10.0719 13.3309 9.96875 14.5967L11.1022 14.576L11.2098 14.6172C11.1643 14.5884 11.1765 14.5386 11.16 14.4976C11.2512 13.3185 11.6648 12.2675 12.4798 11.3906C12.1655 11.1175 11.8717 10.8286 11.6065 10.5177L11.5986 10.5965Z" fill="#0968B0"/>
<path d="M11.8362 15.6787C11.8487 15.6038 11.7369 15.5835 11.7493 15.509C11.828 15.3559 11.7533 15.1076 11.9564 15.0412C11.8118 15.0663 11.6831 15.0952 11.5586 15.004L11.6211 15.1035C11.6288 15.3764 11.7369 15.6371 11.6792 15.9141C11.7241 15.8357 11.7369 15.7281 11.8362 15.6787Z" fill="#0968B0"/>
<path d="M12.2694 15.042L12.2367 15.2615C12.1867 15.3897 12.0261 15.2946 11.9512 15.3813C11.8976 15.4642 11.9557 15.5511 12.0011 15.6171C11.885 15.882 12.2614 15.9649 12.2582 16.2043C12.3733 16.3533 12.2411 16.5687 12.4066 16.7011C12.4434 16.9698 12.3699 17.334 12.6054 17.5448L12.6468 17.8016C12.696 17.9791 12.4357 17.9334 12.4683 18.091C12.5181 18.066 12.5305 18.1322 12.5351 18.1484V18.1407C12.8535 17.7726 13.2216 17.3836 13.5983 17.0567L13.4409 16.8995C13.1469 16.4609 12.915 15.9937 12.804 15.4806L12.6836 15.4185C12.6793 15.5511 12.6172 15.6546 12.6259 15.7866L12.5843 15.8366C12.4976 15.8323 12.4434 15.762 12.3699 15.7164C12.353 15.6711 12.3069 15.5961 12.3776 15.5594C12.4194 15.5553 12.4482 15.5673 12.4767 15.588C12.5138 15.5425 12.4976 15.4766 12.5181 15.4185C12.5305 15.3196 12.4434 15.2282 12.5053 15.1415C12.5843 15.1332 12.6424 15.2282 12.6754 15.2822C12.754 15.3068 12.8162 15.2408 12.8826 15.2118C12.8826 15.1415 12.9814 15.0465 12.8734 15.0047C12.9315 14.8437 12.8907 14.6741 12.8655 14.5168C12.8202 14.3801 12.6673 14.4051 12.5557 14.4173C12.2206 14.5253 12.6091 14.7775 12.5262 14.9846C12.4809 15.1042 12.3569 14.9923 12.2694 15.042Z" fill="#0968B0"/>
<path d="M15.0935 18.33C15.1849 18.232 15.2901 18.1688 15.4036 18.1272C15.0371 18.2015 14.7114 17.9371 14.3987 17.792C14.2202 17.6594 13.9892 17.5522 13.8809 17.3536C13.6377 17.6515 13.3479 17.9621 13.0586 18.1974C13.1865 18.2056 13.2574 18.3467 13.364 18.4082C13.9847 18.9256 14.7583 19.1737 15.4783 19.3516L15.2791 19.2606C15.1307 19.0906 14.9195 18.8923 14.9114 18.6565C15.0602 18.6066 15.0432 18.4413 15.0935 18.33Z" fill="#0968B0"/>
<path d="M20.8945 10.2171C20.9812 10.2378 21.0064 10.3414 21.0641 10.4035C21.3662 10.5647 21.4448 10.8873 21.7094 11.0695C21.8574 11.3799 22.2015 11.6193 22.2141 11.9749C22.5737 12.7696 22.8178 13.6094 22.8424 14.5442L22.8093 14.5938C22.8468 14.5938 22.8805 14.5773 22.9081 14.5566L24.0996 14.5359C24.021 14.4199 24.0545 14.2504 24.0344 14.1095C23.8767 12.2691 23.0907 10.6928 21.8574 9.30318C21.6308 9.60917 21.3205 9.89466 21.035 10.1883L20.8945 10.2171Z" fill="#0968B0"/>
<path d="M9.57761 14.6094L9.54817 14.4482C9.62736 13.1286 10.0487 11.9535 10.7896 10.903C10.9754 10.6922 11.1114 10.4272 11.3435 10.2703C11.0745 10.0177 10.7937 9.72388 10.5116 9.44673L10.483 9.33505C9.30391 10.6465 8.57599 12.144 8.36543 13.8524C8.31954 14.1005 8.34898 14.3572 8.29883 14.6094C8.71264 14.5763 9.1638 14.5763 9.57761 14.6094Z" fill="#0968B0"/>
<path d="M11.6579 9.95703L11.6786 9.89977C12.8863 8.79926 14.2924 8.195 15.9058 8.12068L15.8683 8.0216L15.8559 7.0287L15.8896 6.91276C14.2264 6.97896 12.7497 7.54586 11.439 8.48921C11.1864 8.66261 10.9629 8.92739 10.707 9.07642H10.7438C11.0701 9.31602 11.3809 9.65957 11.6579 9.95703Z" fill="#0968B0"/>
<path d="M15.9046 11.8786C15.239 11.9655 14.6262 12.1929 14.1387 12.7101H14.2298C14.3283 12.8094 14.4901 12.7884 14.5649 12.9212C14.602 12.9955 14.4938 12.987 14.4983 13.0494C14.519 13.0656 14.548 13.0699 14.5649 13.0987C14.6428 13.1279 14.6262 13.0534 14.655 13.0203C14.7586 12.917 14.7756 13.1196 14.8747 13.1196C14.945 13.0739 15.0434 13.0699 15.0938 13.1484C15.1598 13.0904 15.3005 13.1444 15.3212 13.037C15.4497 12.9003 15.3795 12.6896 15.5697 12.602C15.6357 12.6394 15.5657 12.7015 15.5905 12.7596C15.7184 12.8136 15.8633 12.6524 15.9665 12.7805C15.8723 12.5115 15.896 12.1767 15.9046 11.8786Z" fill="#0968B0"/>
<path d="M25.8499 20.1046C25.2993 20.4648 24.7405 20.7999 24.2116 21.209V21.1597C25.0227 19.8112 24.625 17.9623 25.1257 16.4815L25.3117 15.9846C25.2085 16.9073 25.6103 17.6892 25.5807 18.6157C25.5515 19.1743 25.3701 19.6703 25.0763 20.1172H25.1257C25.523 19.5964 25.8329 19.0415 26.2966 18.5452C27.0162 17.8504 27.7488 17.1389 27.8438 16.1751C28.0871 17.784 27.1852 19.1946 25.8499 20.1046ZM24.0912 22.607C23.3801 22.798 22.6195 22.8596 21.9281 23.0953C23.0987 22.0902 23.0327 20.5351 23.8146 19.3519C24.0633 19.0171 24.2694 18.6656 24.5588 18.3471C24.0838 19.3026 24.2897 20.5394 23.7446 21.4654C23.5332 21.8338 23.2313 22.1897 22.9003 22.4791C23.0083 22.475 23.1035 22.3804 23.1977 22.318C24.0871 21.4321 25.2455 21.1842 26.2053 20.4648C26.5902 20.1586 26.9419 19.7576 27.1111 19.3231C26.9287 20.7915 25.4688 22.1692 24.0912 22.607M23.318 24.0261C21.9238 24.5517 20.5218 23.9063 19.1856 23.6914L18.9291 23.6579V23.65C19.5663 23.5055 20.1868 23.3148 20.6954 22.8557C21.4447 22.1359 22.1102 21.3954 22.9417 20.8285C22.3251 21.619 22.2597 22.7438 21.2414 23.2525C20.9896 23.4177 20.6702 23.447 20.4105 23.5712C20.7825 23.5798 21.121 23.447 21.4893 23.41C22.8546 23.1952 24.4183 23.4145 25.374 22.2518C25.0185 23.062 24.1289 23.741 23.318 24.0261ZM21.9866 25.3087C20.745 25.7721 19.4505 25.288 18.4822 24.5517C18.0891 24.3034 17.7417 23.9438 17.2333 23.9767C17.0503 23.9727 16.8731 23.981 16.7157 24.0261C17.6589 24.4648 18.5318 25.0685 19.3344 25.8421C19.1984 25.9956 19.0243 26.1404 18.8589 26.2724C18.0891 25.4413 17.2333 24.6427 16.2773 24.1753C16.0911 24.1999 15.9131 24.3119 15.7437 24.4029C14.9661 24.8951 14.1965 25.5278 13.6178 26.3014L13.1214 25.8916C13.9157 25.0892 14.7927 24.4648 15.7527 24.0181C14.8097 23.7201 14.1931 24.5103 13.4771 24.9115C12.6416 25.4945 11.4424 25.7684 10.4331 25.3668C9.89032 25.1599 9.36524 24.8575 8.97235 24.3658C9.76687 24.9115 10.9498 24.9698 11.8515 24.6139C13.0637 24.0882 14.3208 23.4226 15.7815 23.741C16.0085 23.745 16.2319 23.9727 16.4471 23.7783C17.5303 23.4969 18.7596 23.6914 19.694 24.1875L20.6581 24.5725C21.5521 24.9032 22.7094 24.8127 23.4753 24.2663C23.0824 24.7587 22.545 25.1101 21.9866 25.3087M7.0363 22.3885C8.13661 23.6413 9.93621 23.2238 11.4044 23.5505C11.6111 23.5798 11.8016 23.6622 12.0211 23.6293C11.8469 23.5176 11.6032 23.5302 11.4132 23.4305C10.2629 23.0252 10.0932 21.7802 9.46859 20.9408C10.267 21.4701 10.9372 22.1859 11.6735 22.8762C12.2032 23.3398 12.8396 23.5548 13.5102 23.6914C13.3488 23.7491 13.1376 23.7327 12.964 23.7783C11.7602 24.0758 10.4197 24.5601 9.14169 24.1258C8.31062 23.865 7.45397 23.2072 7.0363 22.3885M5.27001 19.4884C5.95691 21.0433 7.67712 21.1722 8.83225 22.1195C9.04281 22.3054 9.26595 22.4667 9.50595 22.5785L9.51834 22.5662C9.25336 22.326 8.94737 22.0531 8.76098 21.7426C8.08686 20.8041 8.32301 19.4884 7.81823 18.4793C8.27773 19.0295 8.69519 19.5999 8.97235 20.2246C9.38636 21.2425 9.54331 22.393 10.4988 23.1619C9.46453 22.8228 8.25296 22.9176 7.3425 22.2805C6.34574 21.6681 5.456 20.6305 5.27001 19.4884M4.53396 16.3448C4.63346 17.714 6.10554 18.4376 6.78839 19.5714C6.94981 19.8029 7.09031 20.0594 7.30514 20.2537C7.27184 20.1087 7.136 19.9848 7.08585 19.8356C6.84646 19.3603 6.75955 18.7934 6.81762 18.2185C6.88382 17.5197 7.17702 16.8697 7.06514 16.1341C7.66534 17.4285 7.48321 19.0415 7.81823 20.4439C7.90493 20.7501 8.08301 21.023 8.19895 21.3166C6.96666 20.477 5.28686 19.6788 4.74067 18.1402C4.50919 17.6102 4.48361 16.9532 4.53396 16.3448ZM4.57539 13.8212C4.64544 13.5154 4.69924 13.2009 4.83204 12.9196C4.57945 14.2102 5.44848 15.1412 5.73376 16.262C5.85336 16.6799 5.88239 17.1306 6.05234 17.5237C6.06838 17.532 6.08138 17.5158 6.09316 17.5032C5.66757 16.3115 6.27976 15.207 6.89539 14.2764C7.04483 14.0242 7.13174 13.7428 7.20605 13.4533C7.27184 13.9911 7.136 14.6114 7.05722 15.1702C6.90778 15.8815 6.68443 16.5556 6.49031 17.2464C6.36219 17.6768 6.39529 18.1647 6.46148 18.6157L6.39935 18.5662C5.94818 17.7347 5.05478 17.0853 4.79021 16.1751C4.57133 15.4512 4.42615 14.6114 4.57539 13.8212M5.05112 12.4315C5.02615 11.4553 5.43163 10.6567 6.00219 9.92898C6.01925 9.92066 6.03163 9.90401 6.05234 9.90807C5.42331 10.864 5.94453 12.0675 5.91529 13.1554L5.83244 14.2681C5.84483 14.2764 5.84483 14.3097 5.87386 14.2969C5.91123 14.1733 5.91975 14.0407 5.94453 13.9123C6.09316 13.0149 6.87123 12.3779 7.55367 11.757C7.69803 11.596 7.82636 11.4305 7.90067 11.2403C7.84666 11.6872 7.70615 12.1379 7.52077 12.5513C6.99062 13.5856 6.01031 14.4334 5.83244 15.6165C5.74554 14.4833 4.97214 13.6352 5.05112 12.4315M6.7094 9.13446C7.00361 8.76675 7.37965 8.50989 7.80158 8.40269C6.9829 8.96533 7.0363 9.97447 6.776 10.8141C6.69316 11.1243 6.54859 11.4098 6.47752 11.7284L6.49884 11.7448C6.63488 11.3848 6.87488 11.0457 7.17316 10.7517C7.7561 10.2143 8.61661 9.87924 8.90189 9.08492C8.8893 10.1895 7.96727 11.0583 7.08585 11.6786C6.72179 11.9972 6.37031 12.3613 6.17214 12.7708C6.15123 12.4935 6.21356 12.2122 6.19265 11.9146C6.09742 10.9505 6.02717 9.85 6.7094 9.13446ZM10.0357 7.27741C9.42717 7.81061 9.00565 8.48533 8.55428 9.11396C8.1492 9.61467 7.63245 9.94523 7.17316 10.3759C7.42128 9.86259 7.4294 9.2502 7.78087 8.77893C8.28159 7.90604 9.20808 7.60025 10.0357 7.27741ZM12.4264 7.36005C13.5724 6.79314 14.826 6.49162 16.1904 6.46664C19.3098 6.4705 22.2877 8.3034 23.6451 11.1905C24.5054 12.8494 24.75 15.1328 24.1908 17.0064C23.6246 19.2196 21.7628 21.4573 19.5953 22.3676C17.1549 23.5631 13.6877 23.2648 11.5118 21.7052C8.48849 19.633 7.25133 16.0636 8.16585 12.5391C8.71996 10.4457 10.3868 8.33223 12.4264 7.36005M23.9342 8.03456C24.5421 8.57629 24.8152 9.27964 24.9931 10.0072L25.093 10.239C24.2116 9.60614 23.4134 8.75436 22.8507 7.8567L22.1638 7.16187C22.7683 7.41812 23.4176 7.57101 23.9342 8.03456M26.0859 10.0283C26.2806 10.8969 25.9988 11.7452 26.1762 12.6218L26.1681 12.6301C25.6956 11.6995 24.6916 11.261 24.001 10.5162C23.5998 10.0738 23.4258 9.53609 23.3263 8.96533C23.7234 9.92066 24.7904 10.1314 25.403 10.9339C25.6103 11.1201 25.6763 11.3769 25.8085 11.5877L25.8288 11.567C25.4771 10.8143 25.3578 9.96614 25.1137 9.1635C24.9894 8.81609 24.7454 8.47294 24.4183 8.25406C25.2211 8.41893 25.92 9.25873 26.0859 10.0283M26.6026 10.2183C27.3346 11.2112 27.4958 12.7913 26.9622 13.929C26.7636 14.4128 26.6231 14.9259 26.5446 15.4598C26.5074 15.3688 26.4993 15.2445 26.4666 15.1412C26.1762 14.0283 25.1212 13.2344 24.6873 12.1832C24.5508 11.8398 24.4351 11.4845 24.3685 11.1117C24.8323 11.9684 25.9734 12.4108 26.284 13.354C26.4124 13.594 26.4038 13.8916 26.4826 14.1481C26.4993 14.1481 26.5159 14.1359 26.5159 14.1192C26.3789 13.1471 26.4205 12.1296 26.5527 11.1698C26.5446 10.6488 26.4952 10.144 26.2053 9.74259C26.3919 9.85061 26.4743 10.0571 26.6026 10.2183ZM27.2895 16.6587C26.855 17.2752 26.3291 17.8504 25.9283 18.4793C25.9734 17.9826 26.0321 17.371 25.8371 16.8989C25.5025 15.8855 25.2085 14.8555 25.1137 13.7428L25.1257 13.3168C25.3783 14.4541 26.4952 15.2362 26.4244 16.5107C26.4495 16.8202 26.3537 17.0813 26.2966 17.3542L26.3171 17.3745L26.3667 17.317C26.5326 16.6922 26.6152 16.0344 26.8717 15.4512C27.2396 14.6114 27.6944 13.7635 27.5088 12.7499C28.067 13.9456 27.8973 15.542 27.2895 16.6587ZM0.667969 31.5312H31.6971V0.496279H0.667969V31.5312Z" fill="#0968B0"/>
<path d="M22.8718 15.0203L22.8009 14.9701L22.8422 15.0822C22.7762 16.4597 22.3171 17.6759 21.5311 18.7555C21.3782 18.9376 21.2338 19.161 21.043 19.2893C21.3573 19.5372 21.7059 19.9096 21.9654 20.1953L21.9987 20.1332C23.2641 18.6893 23.9843 17.018 24.0635 15.0822L24.1124 14.9831L24.0503 15.012L22.8718 15.0203Z" fill="#0968B0"/>
<path d="M15.8475 10.2405C14.7967 10.3148 13.8861 10.7532 13.0879 11.4112C13.4026 11.6305 13.6832 11.982 13.9691 12.2344C13.9898 12.2055 14.0105 12.1763 14.0316 12.1434C14.4245 11.862 14.8298 11.6059 15.2928 11.4898C15.4995 11.4693 15.7019 11.3698 15.9175 11.4196C15.8727 11.0307 15.8727 10.6005 15.9175 10.1992L15.8475 10.2405Z" fill="#0968B0"/>
<path d="M16.5374 7.81781C16.5707 7.75101 16.6659 7.77599 16.7153 7.7967L17.3112 7.54025C17.551 7.56096 17.8162 7.59 17.9565 7.78817V7.81781C17.8081 7.94127 17.6176 8.04076 17.419 7.95771C17.1459 8.01172 16.7644 8.16908 16.5455 7.88787C16.5374 7.86736 16.5122 7.83832 16.5374 7.81781ZM20.0909 8.5701C20.1735 8.59507 20.2487 8.63244 20.2769 8.71934C20.2562 8.81396 20.364 8.89294 20.298 8.96766C20.0751 9.02553 20.0542 8.77274 19.8803 8.71081C19.8556 8.67751 19.8473 8.6365 19.8517 8.59142C19.9303 8.49579 20.0042 8.65315 20.0909 8.5701M16.3674 8.01599C16.3674 7.97903 16.3845 7.94573 16.4056 7.9169C16.4635 7.8836 16.5122 7.93335 16.5374 7.97457C16.5417 8.03223 16.5668 8.13172 16.5177 8.16482C16.5668 8.17315 16.5916 8.13619 16.6367 8.13619C17.5843 8.20644 18.4619 8.4834 19.2477 8.9303V8.90959C19.4085 8.83081 19.6158 8.72746 19.7807 8.86837C19.9798 8.79386 20.0166 9.03792 20.178 9.06655C20.3729 9.18249 20.5918 9.39772 20.6166 9.62513C20.6535 9.70005 20.7693 9.75325 20.7861 9.83203C20.9187 9.55081 21.1831 9.35203 21.4109 9.10817L21.5516 9.0501C20.3027 7.85903 18.8176 7.20137 17.1626 6.97375C16.897 6.92807 16.6083 6.95304 16.3555 6.87446C16.4056 7.20137 16.3932 7.64807 16.3674 8.01599" fill="#0968B0"/>
<path d="M16.3643 9.79228C16.522 9.73848 16.683 9.80467 16.841 9.80893C17.6516 9.94112 18.4166 10.202 19.066 10.7021C18.9882 10.6197 18.8926 10.5245 18.8755 10.4047C18.8887 10.3882 18.9054 10.384 18.9255 10.3882C18.9338 10.2595 18.7974 10.1937 18.7766 10.0776C18.7974 10.053 18.8268 10.028 18.8674 10.0402C19.0081 10.173 19.1281 10.3176 19.2315 10.4666C19.3226 10.4294 19.3967 10.4875 19.4633 10.5369C19.5836 10.6073 19.5088 10.7604 19.6002 10.8432C19.6169 11.0871 19.9141 11.2236 19.8971 11.4678C19.9019 11.5255 19.972 11.4802 19.9972 11.5088L20.2455 11.815C20.1998 11.8731 20.2363 11.9434 20.2863 11.9848C20.3982 12.0343 20.4607 11.8938 20.5722 11.9145C20.7334 12.0055 20.5474 12.1127 20.5635 12.212C20.6254 12.2162 20.704 12.1626 20.7533 12.2248C20.7742 12.3155 20.68 12.3734 20.6422 12.4315C20.6422 12.5224 20.7163 12.5019 20.7829 12.5224C20.8575 12.5184 20.9027 12.6093 20.8822 12.6713C21.0893 12.8865 20.8207 13.1182 20.9196 13.3456C20.986 13.4946 20.9027 13.639 20.8122 13.7511C20.8158 13.933 20.6504 14.0445 20.5844 14.1976L20.3736 14.2386C20.2621 14.3507 20.4682 14.4875 20.357 14.5578L20.8207 14.5659L20.7706 14.5161C20.704 14.3338 20.7204 14.0902 20.8327 13.9289C20.9027 13.7799 20.9196 13.602 21.0522 13.4739C21.0808 13.4658 21.1344 13.4118 21.1596 13.4739C21.1669 13.614 21.1551 13.7756 21.0893 13.8997C21.2215 14.0902 21.2051 14.3387 21.2177 14.5742C21.627 14.5494 22.0282 14.5409 22.4292 14.5454L22.3921 14.4668C22.3295 13.7013 22.1728 12.9775 21.8536 12.3241C21.7677 12.3279 21.7056 12.3982 21.6061 12.3734C21.5728 12.361 21.5525 12.3279 21.5561 12.2908C21.3907 12.1338 21.2877 11.9267 21.1011 11.7862C20.8908 11.8069 20.7951 11.5628 20.6049 11.5381C20.4355 11.4678 20.5515 11.1947 20.307 11.2688C20.1874 11.2195 20.0719 11.1285 20.0467 10.9921C20.0467 10.7766 20.0053 10.5448 19.8108 10.4047C19.6619 10.3507 19.6002 10.5494 19.4512 10.5161C19.3681 10.4751 19.4053 10.3673 19.3801 10.2969C19.3519 10.2349 19.281 10.1894 19.2942 10.1068C19.4885 9.85056 19.0589 9.85421 19.1527 9.60203C19.1281 9.4199 18.9421 9.34964 18.8465 9.20487C18.2059 8.91533 17.5649 8.71695 16.841 8.62984C16.6627 8.60548 16.4975 8.64223 16.3438 8.55959L16.3856 8.63817C16.377 9.02294 16.4022 9.43228 16.3643 9.79228Z" fill="#0968B0"/>
<path d="M15.9496 13.7301C15.8256 13.9368 15.6183 13.9823 15.4243 14.0402C15.3703 14.1068 15.3829 14.2511 15.2552 14.2387C15.2134 14.3297 15.0723 14.3835 15.1267 14.5159C15.0601 14.6566 15.0934 14.8387 15.056 14.9914C14.8118 15.1447 14.8826 14.789 14.7581 14.7145L14.7169 14.7847C14.6678 14.7969 14.6343 14.7681 14.6018 14.7352C14.5636 14.7226 14.5019 14.7104 14.4692 14.7435C14.4148 14.8343 14.332 14.9088 14.3529 15.0332C14.3279 15.1076 14.2036 15.0826 14.2203 15.1614C14.3567 15.1571 14.506 15.1323 14.6379 15.1033C14.7338 15.1281 14.8118 15.0582 14.907 15.0536C14.9403 15.0702 14.9774 15.1033 14.9648 15.153H14.9981C15.0641 15.1033 15.0934 15.0288 15.0641 14.9543C15.0723 14.8676 15.1677 14.8676 15.226 14.8426C15.2796 14.8676 15.2463 14.9212 15.2552 14.9626C15.4408 15.0332 15.2095 15.1697 15.1843 15.2688C15.1344 15.3474 15.1843 15.5254 15.0274 15.5007C14.9981 15.4921 14.9774 15.4633 14.9858 15.43H14.9648C14.9608 15.4962 15.0109 15.5872 15.0769 15.616C15.1929 15.5214 15.1967 15.3595 15.3618 15.3388C15.4489 15.2483 15.3248 15.1076 15.4534 15.0332C15.6692 15.0288 15.8995 14.938 16.0702 15.1116C16.0566 15.1859 16.0282 15.2194 16.0899 15.2812C16.0491 15.3762 16.0203 15.4797 15.9417 15.5583C15.9618 15.6119 15.9452 15.6785 15.8995 15.7155C15.8418 15.9679 15.5521 15.8477 15.3829 15.9346C15.6432 16.1336 15.9581 16.2077 16.2966 16.1829C16.4751 16.1748 16.3959 15.9553 16.4869 15.8562C16.5447 15.5662 16.8105 15.7652 16.9709 15.6869C17.0329 15.5622 17.0958 15.4426 17.1119 15.3017C17.0091 15.2359 16.9671 15.1116 17.0004 14.9914C16.9301 14.8962 16.9385 14.7226 16.7854 14.7063C16.7602 14.673 16.7807 14.6316 16.8016 14.6069C16.7977 14.5159 16.8885 14.4873 16.9133 14.4164C16.8183 14.3547 16.8432 14.2178 16.8513 14.1398C16.6899 14.1849 16.6727 13.9742 16.5533 13.9285C16.5244 13.8332 16.4213 13.817 16.3389 13.8006C16.1399 13.8954 16.1062 13.6511 15.9581 13.5935C15.9417 13.548 15.908 13.4818 15.9581 13.4446C16.0321 13.3825 16.1316 13.4363 16.218 13.4322L16.1482 13.3951C16.0814 13.3206 15.937 13.366 15.8507 13.3951C15.933 13.4775 15.8995 13.6261 15.9496 13.7301Z" fill="#0968B0"/>
</g>
<defs>
<clipPath id="clip0_9115_37617">
<rect width="32" height="64" fill="white" transform="translate(0.15625)"/>
</clipPath>
</defs>
</svg>
