<svg width="93" height="64" viewBox="0 0 93 64" fill="none" xmlns="http://www.w3.org/2000/svg">
<g clip-path="url(#clip0_9115_37600)">
<path d="M0 0.00390625H92.4321V63.9954H0V0.00390625Z" fill="#0096FF"/>
<path fill-rule="evenodd" clip-rule="evenodd" d="M31.872 34.9255H35.3071V25.7981H31.872V34.9255ZM33.5894 24.8376C33.9661 24.8375 34.3343 24.725 34.6475 24.5143C34.9607 24.3036 35.2047 24.0042 35.3488 23.6539C35.4929 23.3036 35.5306 22.9182 35.457 22.5464C35.3834 22.1746 35.202 21.8331 34.9355 21.5651C34.6691 21.297 34.3297 21.1146 33.9602 21.0407C33.5907 20.9668 33.2078 21.0048 32.8598 21.15C32.5118 21.2951 32.2143 21.5409 32.0051 21.8561C31.7959 22.1714 31.6843 22.542 31.6843 22.9211C31.6844 23.1729 31.7337 23.4221 31.8295 23.6546C31.9252 23.8872 32.0656 24.0985 32.2425 24.2764C32.4194 24.4544 32.6294 24.5955 32.8605 24.6918C33.0916 24.7881 33.3393 24.8376 33.5894 24.8376ZM15.1195 35.1473C19.1047 35.1473 19.9847 33.0171 20.0534 31.3025V25.7981H16.6587V30.7766C16.6587 30.98 16.6189 31.1814 16.5415 31.3693C16.4641 31.5572 16.3508 31.728 16.2078 31.8718C16.0649 32.0156 15.8952 32.1297 15.7085 32.2075C15.5217 32.2853 15.3216 32.3253 15.1195 32.3253C14.9173 32.3253 14.7172 32.2853 14.5304 32.2075C14.3437 32.1297 14.174 32.0156 14.0311 31.8718C13.8881 31.728 13.7748 31.5572 13.6974 31.3693C13.62 31.1814 13.5802 30.98 13.5802 30.7766V25.7981H10.1855V31.3025C10.2546 33.0174 11.1343 35.1473 15.1195 35.1473V35.1473ZM24.4643 26.8489V25.7981H21.139V34.9255H24.4643V29.7397C24.4706 29.333 24.6356 28.9452 24.9236 28.6598C25.2116 28.3745 25.5996 28.2146 26.0037 28.2146C26.4078 28.2146 26.7958 28.3745 27.0838 28.6598C27.3718 28.9452 27.5368 29.333 27.5431 29.7397V34.9255H30.8688V29.4214C30.8688 27.7065 30.58 25.5351 27.199 25.5351C25.8803 25.5351 25.1242 25.9221 24.4643 26.8489V26.8489ZM43.3168 31.6661C42.9704 32.0846 42.1583 32.2938 41.5605 32.2938C41.0296 32.2938 40.5204 32.0815 40.1449 31.7037C39.7695 31.3258 39.5586 30.8134 39.5586 30.2791C39.5586 29.7447 39.7695 29.2323 40.1449 28.8544C40.5204 28.4766 41.0296 28.2643 41.5605 28.2643C42.1694 28.2643 42.9487 28.4831 43.3225 28.9147L43.3164 25.957C42.5882 25.5248 41.7734 25.4142 40.8731 25.4142C38.2112 25.4142 36.0537 27.586 36.0537 30.2648C36.0537 32.9437 38.2112 35.1159 40.8731 35.1159C41.7734 35.1159 42.6164 35.0057 43.3164 34.573L43.3168 31.6661V31.6661ZM47.1948 29.1584C47.1948 28.1968 47.8468 27.5407 48.6513 27.5407C49.4558 27.5407 50.1085 28.1968 50.1085 29.1584H47.1948V29.1584ZM49.9238 31.9974C49.6751 32.5199 49.1983 32.8236 48.6513 32.8236C47.8468 32.8236 47.1948 32.1675 47.1948 31.1225L53.3319 31.1133C53.3639 30.8453 53.3803 30.567 53.3803 30.2787C53.3803 27.3307 51.6355 25.4084 48.5963 25.4084C45.5572 25.4084 43.812 27.3307 43.812 30.2787C43.812 33.2259 45.5572 35.1485 48.5963 35.1485C50.9939 35.1485 52.5861 33.9519 53.1514 31.9993L49.9238 31.9974ZM59.0413 21.0815C55.9903 21.0676 54.0113 21.9671 53.9972 24.7881V34.9255H57.3239V28.3707H58.986V25.7981H57.3365V24.7884C57.3365 23.682 57.8588 23.5024 59.0413 23.5024V21.0815V21.0815ZM78.4043 22.8321C78.9898 23.2352 80.035 24.2057 79.8981 25.3559C79.1516 24.8272 78.6488 23.778 78.4043 22.8321Z" fill="white"/>
<path fill-rule="evenodd" clip-rule="evenodd" d="M78.1992 24.0156C78.8111 24.3757 79.9524 25.2986 79.8964 26.4557C79.1151 25.9816 78.5101 24.9408 78.1992 24.0156Z" fill="white"/>
<path fill-rule="evenodd" clip-rule="evenodd" d="M78.5176 25.538C79.2553 25.9726 80.32 26.8514 80.2521 28.2615C79.6605 27.8184 78.6763 26.2241 78.5176 25.538ZM78.909 26.9973C79.4804 27.4891 80.4638 28.7168 80.0465 30.1691C79.5727 29.6005 78.8613 27.7171 78.909 26.9973ZM80.2403 24.0742C80.5718 24.6585 80.9853 26.4168 80.3311 27.4399C79.9229 26.6406 79.9416 25.0647 80.2403 24.0742Z" fill="white"/>
<path fill-rule="evenodd" clip-rule="evenodd" d="M81.0544 25.8672C81.2562 26.6315 81.3913 28.5564 80.3312 29.5312C80.1835 28.9595 80.5978 26.6104 81.0544 25.8672Z" fill="white"/>
<path fill-rule="evenodd" clip-rule="evenodd" d="M81.4838 28.2148C81.4423 29.1612 81.1398 30.9394 79.6742 31.627C79.7031 31.0369 80.8258 28.7861 81.4838 28.2148ZM78.9185 28.4678C79.3461 29.1128 80.1193 30.61 79.2202 32.0693C78.9169 31.6761 78.6785 29.1474 78.9185 28.4678Z" fill="white"/>
<path fill-rule="evenodd" clip-rule="evenodd" d="M81.2988 30.7197C81.023 31.681 79.8824 33.3821 78.3237 33.5786C78.5934 32.898 80.3608 31.0986 81.2988 30.7197ZM78.5503 30.1553C78.8654 31.1074 79.1054 32.8093 77.6695 33.8381C77.5108 33.3667 78.104 30.7197 78.5503 30.1553ZM77.6733 31.7981C77.5833 32.9759 77.1755 34.7442 75.3628 34.6505C75.3593 34.1702 77.0603 32.1324 77.6733 31.7981ZM80.2269 33.2796C79.554 34.0585 78.2421 35.3776 76.3214 34.8033C76.6037 34.3606 79.5124 33.2262 80.2269 33.2796ZM65.4553 22.8281C64.8705 23.2312 63.8245 24.2017 63.9614 25.3519C64.7087 24.8233 65.2115 23.7741 65.4553 22.8281Z" fill="white"/>
<path fill-rule="evenodd" clip-rule="evenodd" d="M65.6647 24.0156C65.0517 24.3757 63.9115 25.2986 63.9668 26.4557C64.7492 25.9816 65.3542 24.9408 65.6647 24.0156Z" fill="white"/>
<path fill-rule="evenodd" clip-rule="evenodd" d="M65.341 25.538C64.6033 25.9726 63.5386 26.8514 63.6073 28.2615C64.1982 27.8184 65.1831 26.2241 65.341 25.538ZM64.9508 26.9973C64.3786 27.4891 63.3959 28.7168 63.8125 30.1691C64.2863 29.6005 64.9977 27.7171 64.9508 26.9973ZM63.618 24.0742C63.288 24.6585 62.8737 26.4168 63.5279 27.4399C63.9369 26.6406 63.9182 25.0647 63.618 24.0742Z" fill="white"/>
<path fill-rule="evenodd" clip-rule="evenodd" d="M62.809 25.8672C62.608 26.6315 62.4722 28.5564 63.5323 29.5312C63.6799 28.9595 63.2649 26.6104 62.809 25.8672Z" fill="white"/>
<path fill-rule="evenodd" clip-rule="evenodd" d="M62.3789 28.2148C62.4205 29.1612 62.723 30.9394 64.1894 31.627C64.16 31.0369 63.0366 28.7861 62.3789 28.2148ZM64.9447 28.4678C64.5155 29.1128 63.7438 30.61 64.6429 32.0693C64.9454 31.6761 65.1838 29.1474 64.9447 28.4678Z" fill="white"/>
<path fill-rule="evenodd" clip-rule="evenodd" d="M62.5605 30.7196C62.8363 31.6809 63.9762 33.382 65.5356 33.5785C65.2652 32.8979 63.4978 31.0985 62.5605 30.7196ZM65.309 30.1553C64.9939 31.1073 64.754 32.8092 66.1898 33.8381C66.3493 33.3666 65.7553 30.7196 65.309 30.1553ZM66.1868 31.798C66.2768 32.9758 66.6831 34.7441 68.4973 34.6504C68.5004 34.1701 66.7994 32.1324 66.1868 31.798ZM63.6328 33.2795C64.305 34.0584 65.6184 35.3775 67.5383 34.8032C67.256 34.3606 64.3473 33.2261 63.6328 33.2795ZM77.82 35.3864C75.3687 34.4957 73.3775 34.6711 71.9317 35.1867C70.4863 34.6708 68.4947 34.4953 66.0426 35.3864C67.5223 36.0417 69.7119 36.0716 70.0964 35.0293C70.5405 35.0692 71.015 35.1687 71.5136 35.351C70.563 35.761 69.8924 36.307 69.5345 36.7269C69.5643 36.801 69.7268 36.9573 69.8081 36.9872C70.5405 36.2966 71.2542 35.8286 71.9313 35.5223C72.6076 35.829 73.3221 36.297 74.0538 36.9872C74.1358 36.9573 74.2976 36.8014 74.3273 36.7269C73.9695 36.307 73.2993 35.761 72.3483 35.351C72.8048 35.1823 73.2812 35.0742 73.7654 35.0293C74.1507 36.0716 76.3396 36.0417 77.82 35.3864V35.3864ZM71.9378 33.524C73.3636 33.5265 74.7412 33.005 75.812 32.0575C74.9403 31.5961 74.9998 30.9872 75.0445 30.7488C75.0891 30.5108 75.2516 30.6148 75.3542 30.6148C75.9032 30.6148 76.4792 30.4513 77.1898 29.7214C77.9902 28.8987 78.2419 27.071 77.0117 25.8797C75.6846 24.5952 74.0233 25.247 74.164 25.6121C73.8974 25.6271 73.3206 25.8797 73.1799 26.1481C73.0391 26.4156 72.774 26.4679 72.4108 26.4905C72.048 26.5128 72.1152 26.8103 72.1152 26.907C72.1152 27.0038 72.0267 27.0706 71.9744 27.0564C71.7757 26.9992 71.8558 27.2944 71.8558 27.3835C71.8558 27.4733 71.7745 27.5178 71.7299 27.5178C71.4846 27.5178 71.5533 27.7409 71.5594 27.8004C71.567 27.8599 71.546 27.9635 71.4632 28.0092C71.3858 28.0526 71.2935 28.2476 71.2935 28.3962C71.2935 28.6642 71.538 28.8504 71.9439 29.156C72.3513 29.4608 72.4028 29.7514 72.4112 29.9595C72.4188 30.1679 72.4364 30.5042 72.5291 30.7265C72.6401 30.9945 72.6252 31.4859 72.0633 31.5081C71.3763 31.5354 70.1544 32.0886 70.051 32.1258C69.504 32.3232 68.7049 32.3416 68.3276 32.0068C67.9507 31.6717 68.1437 31.2102 68.3344 30.9346C68.5648 31.1657 68.9051 31.1507 69.0974 31.158C69.2896 31.1657 70.2284 31.0167 70.3616 30.9722C70.4947 30.9277 70.5538 30.9423 70.6351 30.9722C70.9933 31.1027 71.4865 31.1434 71.6856 30.4513C71.8859 29.7587 71.4121 29.9526 71.3526 29.9821C71.2939 30.0124 71.2119 30.0044 71.2424 29.9449C71.3297 29.7691 71.1985 29.7886 71.1237 29.7813C70.9322 29.7618 70.6797 29.9671 70.5985 30.0416C70.5172 30.1161 70.436 30.1088 70.4062 30.0942C70.1514 29.9664 69.3335 29.6696 69.1569 29.7368C69.1779 29.6247 69.0077 29.1705 68.9639 29.1191C69.0077 28.7394 68.9639 27.9424 68.8529 27.6526C68.8343 27.6079 68.8273 27.5593 68.8323 27.5112C68.8374 27.4631 68.8544 27.4171 68.8819 27.3773C69.0756 27.0859 69.6074 27.3996 69.8966 27.3923C70.2422 27.3831 70.2967 27.2387 70.3913 27.1201C70.4829 27.0061 70.5493 27.0706 70.5985 27.0383C70.661 26.998 70.6023 26.9163 70.6244 26.871C70.6461 26.8264 70.6721 26.8487 70.7308 26.7969C70.7903 26.7443 70.7247 26.6325 70.7541 26.588C70.8392 26.4594 71.0715 26.5623 70.9315 26.2233C70.8548 26.0383 70.9612 25.8359 71.065 25.702C71.2325 25.4854 71.8794 24.5687 70.7388 23.6174C69.6509 22.7102 68.55 22.7835 67.8397 23.5579C67.129 24.3322 67.4842 25.4636 67.5582 25.7615C67.6325 26.0594 67.4197 26.3293 67.1736 26.4467C66.9524 26.5523 66.4092 26.9232 66.0693 27.251C66.0617 27.3689 66.0582 27.4879 66.0582 27.6073C66.0586 30.8743 68.6911 33.524 71.9378 33.524V33.524Z" fill="white"/>
<path fill-rule="evenodd" clip-rule="evenodd" d="M66.289 26.8143C66.411 25.9045 66.7441 25.0522 67.2678 24.3063C67.3029 24.1278 67.3639 23.9473 67.457 23.7734C66.6872 24.6763 66.2102 25.7944 66.0898 26.9779C66.1547 26.9222 66.2195 26.8692 66.289 26.8143V26.8143ZM77.096 30.0622C76.7816 30.7304 76.3411 31.3307 75.799 31.8297C75.8318 31.8493 75.8631 31.8711 75.8989 31.89L75.9519 31.9176L75.9557 31.9226C76.6029 31.3165 77.1042 30.5698 77.4214 29.7393C77.3184 29.8525 77.2098 29.9602 77.096 30.0622V30.0622Z" fill="white"/>
<path fill-rule="evenodd" clip-rule="evenodd" d="M71.9332 21.0234C68.3188 21.0234 65.3888 23.9722 65.3888 27.6101C65.3888 31.248 68.3192 34.1968 71.9332 34.1968C75.5484 34.1968 78.4785 31.248 78.4785 27.6101C78.4785 23.9722 75.548 21.0234 71.9332 21.0234V21.0234ZM77.1464 23.9212C76.779 24.1715 76.3945 24.3955 75.9959 24.5915C75.7676 24.122 75.4867 23.6805 75.1586 23.2754C75.4527 23.0984 75.7346 22.8977 75.9982 22.6723C76.4338 23.036 76.8199 23.4559 77.1464 23.9212V23.9212ZM75.8597 22.5591C75.6045 22.7743 75.3321 22.9681 75.0453 23.1384C74.7044 22.7387 74.3186 22.3803 73.8955 22.0703C74.0396 21.9429 74.1713 21.8019 74.2888 21.6492C74.8528 21.8757 75.3817 22.1821 75.8597 22.5591V22.5591ZM72.9224 22.6416C73.1436 23.0101 73.3382 23.3933 73.5072 23.7868C73.0225 23.9171 72.5237 23.9869 72.0221 23.9945V22.8078C72.3289 22.7993 72.6326 22.7432 72.9224 22.6416V22.6416ZM72.0225 22.6328V21.3828C72.3165 21.7316 72.5854 22.101 72.827 22.4884C72.5673 22.576 72.2963 22.6246 72.0225 22.6328ZM72.2289 21.3613C72.7221 21.5486 73.1825 21.7916 73.6056 22.0799C73.4173 22.2209 73.212 22.3371 72.9945 22.4258C72.7633 22.0541 72.5075 21.6985 72.2289 21.3613ZM72.0225 24.1699C72.5476 24.1625 73.0697 24.0889 73.5766 23.9507C73.7548 24.3845 73.9001 24.8306 74.0134 25.2867L74.0126 25.2951C73.3645 25.4437 72.6985 25.5217 72.0225 25.5278V24.1699ZM73.0879 22.5779C73.3269 22.4772 73.5516 22.3452 73.7563 22.1855C74.1759 22.4888 74.5566 22.8389 74.8911 23.2271C74.5062 23.441 74.0995 23.6125 73.6781 23.7388C73.507 23.3391 73.3099 22.9513 73.0879 22.5779V22.5779ZM73.7486 21.9655C73.3066 21.6595 72.8304 21.4066 72.33 21.2119C72.9544 21.2507 73.5549 21.377 74.1175 21.5836C74.0066 21.7221 73.8831 21.85 73.7486 21.9655V21.9655ZM71.8428 21.3947V22.632C71.572 22.6234 71.304 22.5751 71.0471 22.4884C71.2862 22.1053 71.5521 21.7398 71.8428 21.3947V21.3947ZM70.8804 22.4266C70.663 22.3373 70.4577 22.2208 70.2693 22.0799C70.6975 21.7887 71.1578 21.5483 71.641 21.3636C71.3641 21.7004 71.11 22.0555 70.8804 22.4266V22.4266ZM71.5518 21.2096C71.0488 21.4043 70.5702 21.6576 70.1258 21.9644C69.9911 21.8486 69.8674 21.7205 69.7562 21.5816C70.3335 21.3703 70.9384 21.2449 71.5518 21.2096L71.9332 34.0244C68.4134 34.0244 65.5608 31.1528 65.5608 27.6101C65.5608 24.9028 67.2274 22.5875 69.5849 21.6465C69.7039 21.8024 69.8367 21.9425 69.979 22.0688C69.6887 22.281 69.4156 22.5161 69.1623 22.7717C69.2427 22.7725 69.3209 22.7763 69.4022 22.7863C69.627 22.5694 69.8668 22.3687 70.1197 22.1859C70.3241 22.3461 70.5489 22.478 70.7881 22.5783C70.6702 22.776 70.5592 22.9767 70.4566 23.1814C70.5058 23.2121 70.5527 23.247 70.6019 23.2808C70.7106 23.0639 70.8285 22.8512 70.9529 22.6427C71.2352 22.7418 71.5338 22.7986 71.8432 22.8086V23.9952C71.666 23.992 71.4889 23.9813 71.3126 23.963C71.3557 24.0271 71.3893 24.0882 71.4205 24.1511C71.5613 24.1619 71.7021 24.168 71.8428 24.1703V26.4553H72.0225V25.7044C72.5896 25.6996 73.1551 25.6443 73.7124 25.5389C73.8101 25.5002 73.9092 25.4698 73.9932 25.4506C74.0191 25.3788 74.0721 25.3001 74.177 25.2207C74.0644 24.7715 73.9205 24.3308 73.7464 23.902C74.1842 23.7692 74.6064 23.589 75.0056 23.3645C75.332 23.7647 75.6111 24.2017 75.8372 24.6667C75.6323 24.7623 75.4237 24.8514 75.2112 24.932C75.3386 24.9316 75.4721 24.9404 75.6083 24.9619C75.7105 24.9185 75.8116 24.8729 75.9116 24.8256C75.9474 24.9016 75.981 24.978 76.0123 25.0556C76.0844 25.079 76.1591 25.107 76.2328 25.1377C76.1823 25.0071 76.1279 24.878 76.0695 24.7508C76.477 24.551 76.8699 24.3224 77.2452 24.0667C77.939 25.1165 78.3082 26.3497 78.306 27.6105C78.306 31.1532 75.4527 34.0248 71.9329 34.0248L71.5518 21.2096V21.2096ZM10.1823 38.0466H81.1354V37.8266H10.1823V38.0466V38.0466ZM65.0676 40.4483C65.4334 40.2145 65.5219 39.963 65.5219 39.8574C65.5223 39.8471 65.5205 39.8367 65.5168 39.8271C65.513 39.8174 65.5073 39.8086 65.5001 39.8012C65.4928 39.7939 65.4842 39.7881 65.4746 39.7842C65.465 39.7803 65.4548 39.7785 65.4445 39.7787C65.4334 39.7787 65.417 39.7849 65.3945 39.7899C65.3675 39.7982 65.3392 39.802 65.311 39.801C65.1664 39.801 64.9669 39.745 64.9669 39.5219C64.9669 39.2827 65.15 39.1987 65.2888 39.1987C65.417 39.1987 65.739 39.2708 65.739 39.7342C65.739 40.13 65.2839 40.4982 65.1168 40.5538L65.0676 40.4483V40.4483ZM13.9718 39.3054C13.5423 39.3503 13.4477 39.4351 13.4477 40.0244V41.4902C13.4477 41.9394 13.4477 42.9959 11.9996 42.9959C10.6157 42.9959 10.6157 41.8998 10.6157 41.5631V39.8117C10.6157 39.3956 10.5375 39.3342 10.1133 39.3058V39.2017H11.6929V39.3058C11.252 39.3403 11.1848 39.4129 11.1848 39.8117V41.6077C11.1848 41.9678 11.1848 42.7482 12.1568 42.7482C12.5917 42.7482 12.9106 42.5682 13.0719 42.3044C13.1448 42.1808 13.2001 41.9954 13.2001 41.5405V40.0252C13.2001 39.4248 13.0662 39.3288 12.676 39.3061V39.2021H13.9718V39.3054V39.3054ZM14.515 41.0218C14.515 40.6686 14.4094 40.6633 14.3197 40.6633C14.2419 40.6633 14.1805 40.6744 14.1584 40.6859V40.5899C14.418 40.5164 14.674 40.4303 14.9255 40.3319L14.964 40.3431V40.7846C15.2387 40.5266 15.4519 40.3316 15.7827 40.3316C16.0398 40.3316 16.4334 40.4817 16.4334 41.1735V42.463C16.4334 42.7275 16.5006 42.8124 16.7737 42.835V42.916H15.6148V42.835C15.822 42.8177 15.9681 42.7901 15.9681 42.362V41.185C15.9681 40.841 15.8673 40.6383 15.5362 40.6383C15.368 40.6383 15.1944 40.7508 14.9808 40.9592V42.5421C14.9808 42.7279 15.0594 42.8181 15.3508 42.8354V42.9164H14.1694V42.8354C14.4319 42.8181 14.515 42.7456 14.515 42.4123V41.0218V41.0218ZM16.9446 42.8354C17.2906 42.8181 17.3852 42.7843 17.3852 42.3459V41.0406C17.3852 40.7085 17.2795 40.7024 17.1899 40.7024C17.1121 40.7024 17.0392 40.7135 16.9667 40.7251V40.6394C17.257 40.5442 17.5405 40.4387 17.8289 40.3319L17.851 40.3484V42.3459C17.851 42.7171 17.8784 42.8131 18.2641 42.8354V42.9164H16.9446V42.8354ZM17.5679 39.0804C17.7358 39.0804 17.8582 39.2094 17.8582 39.366C17.8582 39.5296 17.7358 39.6524 17.5679 39.6524C17.3677 39.6524 17.2895 39.4731 17.2895 39.366C17.2895 39.2605 17.373 39.0804 17.5679 39.0804ZM19.8289 40.5657H19.2655V42.1755C19.2655 42.3494 19.2655 42.6822 19.55 42.6822C19.7282 42.6822 19.8285 42.5578 19.8903 42.4849L19.9628 42.5463C19.8285 42.7878 19.5668 42.9721 19.3101 42.9721C19.027 42.9721 18.7997 42.8212 18.7997 42.2591V40.5654H18.5044C18.4977 40.5613 18.492 40.5556 18.488 40.5487C18.484 40.5419 18.4818 40.5341 18.4815 40.5262C18.4815 40.4594 18.6044 40.4264 18.7272 40.3035C18.9385 40.0847 19.0213 39.9607 19.2266 39.6632C19.2655 39.6632 19.2655 39.6908 19.2655 39.7365V40.3872H19.8289V40.5657V40.5657ZM20.4961 41.1792C20.5857 40.6859 20.8032 40.5335 21.1099 40.5335C21.5505 40.5335 21.6065 40.9097 21.6454 41.1792H20.4961V41.1792ZM22.2314 41.9935C22.1032 42.2027 21.8633 42.5858 21.3666 42.5858C20.9981 42.5858 20.5464 42.3547 20.4793 41.3577H22.2142C22.1532 40.6237 21.7572 40.3319 21.2323 40.3319C20.786 40.3319 20.094 40.6748 20.094 41.7125C20.094 42.5118 20.5182 42.9728 21.1377 42.9728C21.9411 42.9728 22.2649 42.2081 22.3206 42.0334L22.2314 41.9935V41.9935ZM24.3378 42.3444C24.2928 42.5467 24.075 42.6826 23.8404 42.6826C23.4712 42.6826 23.0691 42.367 23.0691 41.527C23.0691 40.7608 23.449 40.4847 23.7618 40.4847C24.0247 40.4847 24.2982 40.6656 24.3375 41.0479V42.3444H24.3378V42.3444ZM25.1771 42.5931C24.8032 42.6208 24.8032 42.5083 24.8032 42.2776V39.0908L24.7758 39.0796C24.5099 39.1764 24.2371 39.2559 23.9579 39.3299V39.4163C24.0025 39.411 24.0582 39.411 24.0914 39.411C24.3378 39.411 24.3378 39.5288 24.3378 39.6973V40.5692C24.1532 40.408 23.9854 40.3316 23.7454 40.3316C23.1194 40.3316 22.5888 40.975 22.5888 41.7128C22.5888 42.8607 23.3876 42.9724 23.6054 42.9724C24.0193 42.9724 24.2261 42.7655 24.3268 42.6139H24.3378V42.9559L24.36 42.9724C24.6537 42.8676 24.9097 42.7774 25.1775 42.6822V42.5931H25.1771V42.5931ZM30.5687 39.3054C30.2174 39.3453 30.0389 39.3676 30.0389 40.0252V42.9809H29.9431L27.4892 39.9016H27.4781V42.0925C27.4781 42.6707 27.5956 42.7951 28.0022 42.8116V42.9164H26.6896V42.8116C27.1138 42.7832 27.2309 42.6991 27.2309 42.0925V39.6152C27.0016 39.3342 26.9128 39.3054 26.6896 39.3054V39.2013H27.6452L29.7799 41.9013H29.7909V40.0244C29.7909 39.3787 29.6349 39.3338 29.2565 39.3054V39.2013H30.5687V39.3054V39.3054ZM32.2541 42.2223C32.2541 42.3916 32.2369 42.4592 32.0633 42.544C32.013 42.5716 31.8394 42.6454 31.7166 42.6454C31.5094 42.6454 31.3473 42.4707 31.3473 42.2058V42.1946C31.3473 42.0027 31.4087 41.6879 32.2541 41.4065V42.2223ZM33.1166 42.544C33.0552 42.5943 32.9827 42.6503 32.8656 42.6503C32.7034 42.6503 32.7034 42.4876 32.7034 42.324V41.2272C32.7034 40.8928 32.7034 40.3327 31.8734 40.3327C31.2253 40.3327 30.962 40.7308 30.962 40.9535C30.962 41.0425 31.0299 41.1996 31.2027 41.1996C31.3481 41.1996 31.4541 41.0767 31.4541 40.9589C31.4541 40.9093 31.4263 40.826 31.4263 40.7416C31.4263 40.5692 31.6388 40.4686 31.823 40.4686C31.9905 40.4686 32.2537 40.5293 32.2537 40.932V41.2725C31.3412 41.6318 30.8568 41.823 30.8568 42.3858C30.8568 42.7636 31.1467 42.9728 31.4473 42.9728C31.7555 42.9728 32.0515 42.7463 32.259 42.5605C32.2869 42.9671 32.5196 42.9728 32.6195 42.9728C32.708 42.9728 32.8812 42.9667 33.1158 42.6903V42.544H33.1166V42.544ZM34.549 40.5657H33.9856V42.1755C33.9856 42.3494 33.9856 42.6822 34.2698 42.6822C34.4483 42.6822 34.549 42.5578 34.6104 42.4849L34.6829 42.5463C34.549 42.7878 34.2862 42.9721 34.0298 42.9721C33.7471 42.9721 33.5202 42.8212 33.5202 42.2591V40.5654H33.2241C33.2175 40.5611 33.212 40.5554 33.2081 40.5486C33.2042 40.5417 33.202 40.5341 33.2016 40.5262C33.2016 40.4594 33.3245 40.4264 33.4473 40.3035C33.6583 40.0847 33.7414 39.9607 33.9466 39.6632C33.9859 39.6632 33.9859 39.6908 33.9859 39.7365V40.3872H34.5494V40.5657H34.549V40.5657ZM34.7664 42.8354C35.1128 42.8181 35.207 42.7843 35.207 42.3459V41.0406C35.207 40.7085 35.1014 40.7024 35.0117 40.7024C34.9335 40.7024 34.861 40.7135 34.7889 40.7251V40.6394C35.0788 40.5442 35.3627 40.4387 35.6507 40.3319L35.6728 40.3484V42.3459C35.6728 42.7171 35.7003 42.8131 36.0855 42.8354V42.9164H34.7664V42.8354ZM35.3901 39.0804C35.5576 39.0804 35.6804 39.2094 35.6804 39.366C35.6804 39.5296 35.558 39.6524 35.3901 39.6524C35.1895 39.6524 35.1113 39.4731 35.1113 39.366C35.1113 39.2605 35.1948 39.0804 35.3901 39.0804ZM37.6908 42.8189C37.022 42.8189 36.8943 41.7819 36.8943 41.3643C36.8943 40.778 37.2006 40.4847 37.5515 40.4847C38.0638 40.4847 38.3484 41.099 38.3484 41.7992C38.3484 42.6047 37.9749 42.8189 37.6908 42.8189V42.8189ZM37.5962 40.3319C36.8489 40.3319 36.39 40.9416 36.39 41.6357C36.39 42.3966 36.8943 42.9724 37.6129 42.9724C38.4606 42.9724 38.8527 42.1935 38.8527 41.6357C38.8527 40.8176 38.3263 40.3319 37.5962 40.3319ZM39.4684 41.0218C39.4684 40.6686 39.3623 40.6633 39.2731 40.6633C39.1945 40.6633 39.1331 40.6744 39.111 40.6859V40.5899C39.3706 40.5164 39.6266 40.4303 39.8781 40.3319L39.917 40.3431V40.7846C40.1917 40.5266 40.4049 40.3316 40.7356 40.3316C40.9927 40.3316 41.386 40.4817 41.386 41.1735V42.463C41.386 42.7275 41.4532 42.8124 41.7271 42.835V42.916H40.5678V42.835C40.7749 42.8177 40.9203 42.7901 40.9203 42.362V41.185C40.9203 40.841 40.8192 40.6383 40.4888 40.6383C40.3206 40.6383 40.147 40.7508 39.933 40.9592V42.5421C39.933 42.7279 40.0116 42.8181 40.3034 42.8354V42.9164H39.122V42.8354C39.3845 42.8181 39.468 42.7456 39.468 42.4123V41.0218H39.4684V41.0218ZM43.4864 41.1531C43.3632 40.5788 43.1122 40.4609 42.8665 40.4609C42.5598 40.4609 42.4427 40.6805 42.4427 40.8268C42.4427 40.9393 42.4767 41.1021 42.683 41.2257L43.2804 41.5858C43.5547 41.7543 43.7504 41.9121 43.7504 42.2499C43.7504 42.7386 43.2972 42.9728 42.9401 42.9728C42.6884 42.9728 42.4484 42.8688 42.2932 42.8738C42.2264 42.8738 42.2035 42.8903 42.17 42.9406H42.0975V42.0641H42.1867C42.2535 42.3624 42.3603 42.8515 42.9066 42.8515C43.0969 42.8515 43.3586 42.7624 43.3586 42.4415C43.3586 42.2614 43.2468 42.1267 43.0679 42.0253L42.7498 41.8395C42.4042 41.6422 42.0975 41.4345 42.0975 41.0176C42.0975 40.7028 42.3374 40.3323 42.878 40.3323C43.1236 40.3323 43.2964 40.444 43.391 40.444C43.4414 40.444 43.4692 40.4049 43.4864 40.3884H43.5471L43.5696 41.1531H43.4864V41.1531ZM48.7037 40.3845C48.5645 39.7952 48.1628 39.3461 47.475 39.3461C47.1969 39.3461 46.8738 39.4586 46.6392 39.6881C46.421 39.902 46.1765 40.2609 46.1765 41.0694C46.1765 42.2595 46.8395 42.7482 47.5437 42.7482C48.23 42.7482 48.6316 42.3494 48.8044 42.1804L48.9044 42.2818C48.8991 42.2929 48.4199 42.9962 47.3926 42.9962C46.4943 42.9962 45.5273 42.4557 45.5273 41.0579C45.5273 39.8006 46.4657 39.1211 47.4262 39.1211C47.9233 39.1211 48.2853 39.3061 48.4081 39.3061C48.4356 39.3061 48.6198 39.3061 48.6652 39.1211H48.7816L48.8323 40.3845H48.7037V40.3845ZM51.8142 42.9164H50.6324V42.8354C50.9075 42.8077 51.0139 42.7793 51.0139 42.3467V41.2334C51.0139 40.8571 50.8911 40.6379 50.5817 40.6379C50.4192 40.6379 50.2002 40.722 49.9706 40.9919V42.3467C49.9706 42.7793 50.077 42.8077 50.3513 42.8354V42.9164H49.1474V42.8354C49.4491 42.7962 49.5052 42.7567 49.5052 42.3467V39.6977C49.5052 39.5292 49.5052 39.4113 49.2599 39.4113C49.2264 39.4113 49.1699 39.4113 49.1535 39.4167V39.3303C49.4045 39.2562 49.6765 39.1768 49.9424 39.08L49.9706 39.0965V40.7957H49.9809C50.1785 40.5139 50.4516 40.3331 50.7892 40.3331C51.474 40.3331 51.4785 41.0034 51.4785 41.2284V42.3471C51.4785 42.7571 51.5342 42.7851 51.8139 42.8358V42.9164H51.8142V42.9164ZM51.9744 42.8354C52.3201 42.8181 52.4154 42.7843 52.4154 42.3459V41.0406C52.4154 40.7085 52.309 40.7024 52.2201 40.7024C52.1419 40.7024 52.0694 40.7135 51.9966 40.7251V40.6394C52.2873 40.5442 52.5703 40.4387 52.8579 40.3319L52.8812 40.3484V42.3459C52.8812 42.7171 52.9087 42.8131 53.2939 42.8354V42.9164H51.9744V42.8354ZM52.5989 39.0804C52.6367 39.0795 52.6743 39.0862 52.7094 39.1002C52.7446 39.1141 52.7766 39.135 52.8035 39.1617C52.8305 39.1883 52.8519 39.2201 52.8664 39.2552C52.8809 39.2903 52.8883 39.328 52.8881 39.366C52.8881 39.5296 52.766 39.6524 52.5989 39.6524C52.3979 39.6524 52.3189 39.4731 52.3189 39.366C52.3189 39.2605 52.4028 39.0804 52.5989 39.0804ZM53.5533 42.8354C53.8818 42.8127 53.9833 42.7402 53.9833 42.4311V39.7519C53.9833 39.4993 53.9489 39.4098 53.7315 39.4098C53.6598 39.4098 53.6087 39.4152 53.5423 39.4202V39.3303C53.8379 39.2562 54.1332 39.1768 54.4258 39.0793L54.4483 39.0904V42.4473C54.4483 42.7736 54.5429 42.8177 54.8671 42.835V42.916H53.5537V42.8354H53.5533V42.8354ZM56.8904 42.3444C56.845 42.5467 56.6276 42.6826 56.3934 42.6826C56.0237 42.6826 55.6217 42.367 55.6217 41.527C55.6217 40.7608 56.0016 40.4847 56.3144 40.4847C56.5769 40.4847 56.8515 40.6656 56.8904 41.0479V42.3444V42.3444ZM57.7293 42.5931C57.3558 42.6208 57.3558 42.5083 57.3558 42.2776V39.0908L57.3284 39.0796C57.0617 39.1764 56.7897 39.2559 56.5097 39.3299V39.4163C56.5551 39.411 56.6112 39.411 56.644 39.411C56.8904 39.411 56.8904 39.5288 56.8904 39.6973V40.5692C56.7066 40.408 56.538 40.3316 56.298 40.3316C55.672 40.3316 55.1418 40.975 55.1418 41.7128C55.1418 42.8607 55.9406 42.9724 56.158 42.9724C56.5715 42.9724 56.7787 42.7655 56.8794 42.6139H56.8904V42.9559L56.9122 42.9724C57.2059 42.8676 57.4619 42.7774 57.7297 42.6822V42.5931H57.7293V42.5931ZM58.2038 41.0414C58.2038 40.7086 58.0982 40.7032 58.0077 40.7032C57.9295 40.7032 57.8685 40.7143 57.8178 40.7258V40.6387C58.0965 40.5485 58.3711 40.4462 58.641 40.3319L58.6684 40.3431V40.8418H58.6795C58.942 40.4437 59.1327 40.3319 59.344 40.3319C59.5332 40.3319 59.645 40.449 59.645 40.6341C59.645 40.7742 59.5668 40.8809 59.4333 40.8809C59.2372 40.8809 59.1815 40.6851 59.0472 40.6867C58.9137 40.6867 58.6681 40.9677 58.6681 41.1477V42.4127C58.6681 42.802 58.8573 42.8243 59.1426 42.8358V42.9168H57.8067V42.8358C58.113 42.7797 58.2031 42.7632 58.2031 42.4473V41.0414H58.2038V41.0414ZM60.1752 41.1792C60.2638 40.6859 60.4816 40.5335 60.7875 40.5335C61.2292 40.5335 61.2846 40.9097 61.3238 41.1792H60.1752ZM61.9098 41.9935C61.7808 42.2027 61.5417 42.5858 61.0446 42.5858C60.6773 42.5858 60.2245 42.3547 60.1573 41.3577H61.8926C61.8316 40.6237 61.436 40.3319 60.9107 40.3319C60.4644 40.3319 59.7732 40.6748 59.7732 41.7125C59.7732 42.5118 60.197 42.9728 60.8169 42.9728C61.6199 42.9728 61.9434 42.2081 61.9994 42.0334L61.9098 41.9935V41.9935ZM62.5625 41.0218C62.5625 40.6686 62.4576 40.6633 62.3679 40.6633C62.2897 40.6633 62.2287 40.6744 62.2054 40.6859V40.5899C62.4572 40.5174 62.7181 40.4333 62.9729 40.3319L63.0118 40.3431V40.7846C63.2869 40.5266 63.4997 40.3316 63.8305 40.3316C64.0876 40.3316 64.4816 40.4817 64.4816 41.1735V42.463C64.4816 42.7275 64.5488 42.8124 64.8215 42.835V42.916H63.6622V42.835C63.8694 42.8177 64.0155 42.7901 64.0155 42.362V41.185C64.0155 40.841 63.9155 40.6383 63.584 40.6383C63.4158 40.6383 63.2422 40.7508 63.029 40.9592V42.5421C63.029 42.7279 63.1072 42.8181 63.3994 42.8354V42.9164H62.2176V42.8354C62.4793 42.8181 62.5625 42.7456 62.5625 42.4123V41.0218V41.0218ZM67.3549 41.1531C67.2328 40.5788 66.9814 40.4609 66.7357 40.4609C66.4287 40.4609 66.3119 40.6805 66.3119 40.8268C66.3119 40.9393 66.3455 41.1021 66.5519 41.2257L67.1492 41.5858C67.4235 41.7543 67.6192 41.9121 67.6192 42.2499C67.6192 42.7386 67.166 42.9728 66.8094 42.9728C66.5576 42.9728 66.3184 42.8688 66.1612 42.8738C66.0949 42.8738 66.0727 42.8903 66.0392 42.9406H65.9671V42.0641H66.0556C66.1227 42.3624 66.2284 42.8515 66.7762 42.8515C66.9654 42.8515 67.2278 42.7624 67.2278 42.4415C67.2278 42.2614 67.1161 42.1267 66.9379 42.0253L66.6182 41.8395C66.2734 41.6422 65.9671 41.4345 65.9671 41.0176C65.9671 40.7028 66.2063 40.3323 66.7472 40.3323C66.9925 40.3323 67.166 40.444 67.2606 40.444C67.3106 40.444 67.3396 40.4049 67.3552 40.3884H67.417L67.4395 41.1531H67.3549V41.1531ZM72.2899 41.6207C72.2289 41.1497 72.0946 41.0928 71.6769 41.0875L70.8686 41.0763V42.306C70.8686 42.7275 70.9803 42.7947 71.3767 42.8112V42.916H69.8142V42.8112C70.233 42.7878 70.2998 42.7041 70.2998 42.2434V39.8102C70.2998 39.3672 70.1655 39.3334 69.8142 39.305V39.201H72.7713L72.7885 40.0002H72.6508C72.568 39.5008 72.4234 39.411 71.8051 39.411H71.0475C70.9075 39.411 70.8686 39.4336 70.8686 39.6014V40.8491H71.6769C72.1335 40.8491 72.2342 40.7366 72.2899 40.3158H72.4181V41.6203H72.2899V41.6207V41.6207ZM75.5221 42.7133C75.2211 42.7928 75.0086 42.8707 74.7489 42.9674L74.7386 42.9563V42.4929L74.4978 42.7336C74.2804 42.9509 74.0122 42.9728 73.9108 42.9728C73.6819 42.9728 73.2501 42.8392 73.2501 42.2449V40.8279C73.2501 40.4913 73.0712 40.4801 72.9045 40.4686V40.3891H73.7158V42.2223C73.7158 42.301 73.7666 42.6496 74.1347 42.6496C74.3022 42.6496 74.4708 42.5709 74.6218 42.448C74.6718 42.4023 74.7103 42.3459 74.7103 42.1609V40.8391C74.7103 40.6141 74.6886 40.4963 74.2968 40.4851V40.3891H75.1761V42.3148C75.1761 42.5171 75.1872 42.6461 75.5225 42.635V42.7133H75.5221V42.7133ZM76.0874 41.0218C76.0874 40.6686 75.981 40.6633 75.8921 40.6633C75.8139 40.6633 75.7529 40.6744 75.7304 40.6859V40.5899C75.9899 40.5162 76.2458 40.4301 76.4971 40.3319L76.536 40.3431V40.7846C76.8111 40.5266 77.0247 40.3316 77.3547 40.3316C77.6118 40.3316 78.0051 40.4817 78.0051 41.1735V42.463C78.0051 42.7275 78.0722 42.8124 78.3465 42.835V42.916H77.1872V42.835C77.3943 42.8177 77.5404 42.7901 77.5404 42.362V41.185C77.5404 40.841 77.4397 40.6383 77.109 40.6383C76.94 40.6383 76.7664 40.7508 76.554 40.9592V42.5421C76.554 42.7279 76.6314 42.8181 76.9228 42.8354V42.9164H75.7411V42.8354C76.0039 42.8181 76.0874 42.7456 76.0874 42.4123V41.0218V41.0218ZM80.3297 42.3444C80.2851 42.5467 80.0673 42.6826 79.8327 42.6826C79.463 42.6826 79.061 42.367 79.061 41.527C79.061 40.7608 79.4409 40.4847 79.7537 40.4847C80.0162 40.4847 80.2908 40.6656 80.3297 41.0479V42.3444V42.3444ZM81.169 42.5931C80.7955 42.6208 80.7955 42.5083 80.7955 42.2776V39.0908L80.768 39.0796C80.5022 39.1764 80.2294 39.2559 79.9498 39.3299V39.4163C79.9944 39.411 80.0505 39.411 80.0848 39.411C80.3301 39.411 80.3301 39.5288 80.3301 39.6973V40.5692C80.1462 40.408 79.9784 40.3316 79.7385 40.3316C79.1117 40.3316 78.5815 40.975 78.5815 41.7128C78.5815 42.8607 79.3803 42.9724 79.5977 42.9724C80.0112 42.9724 80.2191 42.7655 80.3191 42.6139H80.3301V42.9559L80.3526 42.9724C80.6464 42.8676 80.9023 42.7774 81.1693 42.6822V42.5931H81.169V42.5931Z" fill="white"/>
</g>
<defs>
<clipPath id="clip0_9115_37600">
<rect width="92.4321" height="64" fill="white"/>
</clipPath>
</defs>
</svg>
