<svg width="130" height="40" viewBox="0 0 130 40" fill="none" xmlns="http://www.w3.org/2000/svg">
<g clip-path="url(#clip0_8_11)">
<path d="M7.88958 16.15H10.4196C10.5096 12.76 11.8796 9.67 14.0596 7.37L12.2696 5.58C9.52958 8.45 7.97958 12.18 7.88958 16.15ZM12.7596 5.09L14.5496 6.88C16.8496 4.7 19.9296 3.33 23.3296 3.24V0.71C19.3596 0.8 15.6296 2.34 12.7596 5.09M23.6796 13.63C23.3796 13.63 23.0996 13.67 22.8196 13.76C22.7796 13.8 22.7596 13.83 22.7796 13.86C22.8496 13.96 23.0596 13.75 23.0896 13.94C23.1096 14.08 22.8596 13.98 22.8796 14.08C22.8996 14.16 23.0796 14.13 23.0796 14.25C23.0796 14.36 22.9696 14.56 22.8896 14.62C22.7796 14.69 22.1696 14.77 22.1096 14.91C22.0596 15.03 22.0096 15.14 21.9096 15.25C21.8096 15.36 21.3196 15.65 21.3196 15.72C21.3196 15.9 21.5496 15.67 21.6196 15.6C21.7196 15.49 21.8696 15.49 22.0196 15.4C22.2396 15.28 22.3196 15.71 22.0896 15.72C21.9496 15.73 21.8296 16.13 21.5996 16.06C21.5396 16.04 21.3796 15.94 21.3496 16.04C21.3096 16.15 21.6796 16.17 21.7996 16.24C22.0996 16.44 21.5696 16.42 21.4896 16.48C21.4096 16.53 21.4496 16.65 21.5596 16.6C21.6696 16.55 21.8196 16.44 21.8896 16.63C21.9796 16.88 21.4796 17.8 21.3296 17.7C21.2496 17.65 21.1696 17.72 21.0896 17.75C21.1896 17.96 21.3196 18.15 21.4596 18.33C21.5596 18.17 21.7196 17.93 21.7796 17.93C21.8696 17.93 21.8396 17.85 21.8796 17.79C21.9196 17.71 22.0396 17.79 22.0396 17.68C22.0396 17.57 22.3296 17.42 22.3596 17.26C22.3796 17.17 22.2696 17.09 22.3196 17.02C22.3696 16.93 22.4096 16.92 22.4696 16.9C22.5296 16.88 22.6596 17.01 22.6996 16.96C22.7396 16.9 22.9396 16.95 23.0896 17.04C23.1596 17.08 23.2896 17.04 23.3696 17.15C23.4796 17.31 23.3696 17.32 23.3796 17.36C23.3996 17.4 23.4496 17.34 23.4796 17.36C23.5396 17.42 23.1796 17.63 23.2296 17.75C23.2696 17.86 22.9296 18.43 22.8296 18.52C22.6996 18.64 22.4896 18.51 22.3996 18.53C22.3096 18.55 22.2896 18.63 22.1496 18.6C22.0396 18.57 21.9096 18.62 21.7896 18.67C22.2996 19.11 22.9596 19.39 23.6796 19.39C23.8396 19.39 23.9896 19.38 24.1396 19.35C24.2296 19.23 24.2696 19.08 24.2896 18.93C24.2996 18.85 24.2896 18.74 24.3296 18.67C24.3696 18.61 24.5996 18.32 24.6996 18.32C24.7796 18.32 24.8396 18.4 24.9596 18.36C25.1896 18.29 25.3296 18.35 25.3296 18.45C25.3296 18.59 25.0396 18.55 25.0496 18.63C25.0496 18.68 25.2696 18.77 25.3396 18.69C25.4696 18.54 25.4496 18.35 25.4196 18.31C25.3296 18.19 25.3296 18.15 25.4696 18.19C25.5496 18.22 25.5496 17.9 25.6296 17.77C25.7396 17.6 25.4296 17.72 25.3096 17.74C25.1896 17.76 25.0896 17.5 25.0896 17.41C25.0896 17.35 25.3196 17.64 25.4296 17.64C25.5596 17.64 25.7096 17.5 25.7096 17.38C25.7096 17.27 25.4596 17.26 25.4296 17.12C25.4096 17.05 25.6296 17.12 25.6196 17.05C25.6096 16.99 25.6396 16.83 25.4996 16.77C25.3596 16.71 25.2296 16.26 25.1196 16.23C25.0196 16.2 24.9396 16.34 24.8796 16.39C24.8196 16.44 24.7196 16.35 24.7696 16.31C24.8396 16.24 25.0096 16.1 25.0396 15.99C25.0996 15.8 25.3396 16 25.2996 15.73C25.2496 15.44 25.0096 15.5 25.1196 15.36C25.2396 15.22 25.1496 14.99 24.9096 15.03C24.7996 15.05 24.6896 14.87 24.6696 14.72C24.6696 14.63 24.4196 14.65 24.4296 14.56C24.4496 14.38 24.1696 14.36 24.0096 14.37C23.8396 14.38 23.5196 14.12 23.4796 14.06C23.4396 14 23.2096 14.12 23.2896 13.87C23.3696 13.63 23.5996 13.91 23.6896 13.84C23.7896 13.77 23.7596 13.69 23.7496 13.63C23.7296 13.63 23.7096 13.63 23.6896 13.63M24.0396 12.94C24.2796 12.96 24.5196 13.01 24.7496 13.08C24.8096 12.93 24.9596 12.86 25.0796 12.78C25.2296 12.68 25.3296 12.57 25.3096 12.84C25.2896 13.03 25.2096 13.14 25.1096 13.22C25.3596 13.33 25.5896 13.46 25.8096 13.63C25.8596 13.67 25.8996 13.7 25.9496 13.74L26.1896 13.5C26.1896 13.5 26.1896 13.48 26.1896 13.47C26.1896 13.33 26.3896 13.17 26.6196 13.07L27.4096 12.28C27.4096 12.28 27.3696 12.28 27.3496 12.28C27.2396 12.27 27.0896 12.49 26.9896 12.42C26.8696 12.35 27.3396 11.94 27.5496 12.02C27.5796 12.03 27.6096 12.04 27.6396 12.06L27.7396 11.96C26.7396 11.07 25.4496 10.5 24.0296 10.42V12.95L24.0396 12.94ZM24.0396 9.7C25.6496 9.78 27.1196 10.43 28.2496 11.45L30.0396 9.66C28.4496 8.19 26.3596 7.26 24.0496 7.17V9.7H24.0396ZM24.0396 6.47C26.1796 6.54 28.1596 7.3 29.7596 8.51C29.5796 8.27 29.3996 8.02 29.3096 7.93C29.1496 7.77 28.5696 7.56 28.6296 7.47C28.6896 7.37 29.1996 7.79 29.2896 7.71C29.3996 7.62 29.0296 7.15 29.0596 7.13C29.0996 7.1 29.5296 7.53 29.7496 7.9C29.8396 8.03 30.0796 7.97 30.2596 8.09C30.4196 8.2 30.4296 8.39 30.5696 8.5C30.5896 8.52 30.8796 8.69 30.7096 8.67C30.6596 8.67 30.5896 8.56 30.5296 8.61C30.4996 8.64 30.5496 8.82 30.6496 9.01L31.4896 8.17C31.3696 7.92 31.1296 7.6 30.9596 7.56C30.7896 7.52 30.6796 7.66 30.5596 7.76C30.4396 7.86 30.2896 7.89 30.2696 7.82C30.2496 7.75 30.2896 7.56 30.2796 7.49C30.2696 7.39 30.1896 7.32 30.1696 7.22C30.1096 7 30.1996 6.76 30.0696 6.61C29.9196 6.45 29.8196 6.21 29.7096 6.02C29.5796 5.82 29.3596 5.51 29.3496 5.25C27.7196 4.42 25.9096 3.96 24.0296 3.91V6.44L24.0396 6.47ZM24.0396 3.24C26.1496 3.3 28.1796 3.84 29.9896 4.82C30.1596 4.79 30.3296 4.77 30.4396 4.72C30.6696 4.62 31.1096 4.85 31.3196 4.98C31.5096 5.09 31.6596 5.26 31.8796 5.38C32.0996 5.5 32.4496 5.86 32.5296 6.21C32.6096 6.56 32.8296 6.54 32.7196 6.68C32.6596 6.75 32.7496 6.78 32.8596 6.84L34.6196 5.08C31.7396 2.34 28.0196 0.8 24.0396 0.71V3.24V3.24ZM35.1096 5.59L33.2396 7.46C33.4096 7.76 33.7296 8.13 34.1896 8.6C34.3796 8.79 34.5796 8.98 34.7396 9.15C34.8996 9.31 35.9196 10.58 35.7196 10.76C35.7096 10.77 35.6896 10.79 35.6796 10.8C36.4696 12.47 36.9096 14.3 36.9596 16.16H39.4896C39.3996 12.19 37.8596 8.46 35.1196 5.59M39.4896 16.87H36.9696C36.8796 20.26 35.5096 23.35 33.3296 25.65L35.1196 27.44C37.8696 24.57 39.4096 20.84 39.4896 16.87M27.4496 21.97C27.4496 22.09 27.3296 21.99 27.2896 22.04C27.2496 22.09 28.2796 22.57 28.4496 22.59C28.5596 22.61 28.7696 22.69 29.1396 22.61C29.3896 22.56 29.4596 22.68 29.5796 22.67C29.7496 22.67 29.8496 22.44 29.9496 22.3C30.1996 21.94 30.1596 21.89 30.2196 21.83C30.3096 21.76 30.5596 22.32 30.5296 22.67C30.5296 22.73 30.5196 22.78 30.5096 22.83L30.5396 22.86C32.0096 21.27 32.9396 19.18 33.0296 16.87H31.1096C31.1796 16.98 31.2896 17.12 31.4096 17.37C31.5096 17.57 31.5596 17.89 31.7296 17.9C31.9896 17.92 32.2596 18.14 32.2696 18.33C32.2796 18.71 31.0996 18.81 30.9396 18.76C30.8096 18.72 30.7196 18.71 30.7096 18.92C30.6996 19.15 30.2796 19.15 30.1196 19.29C29.9296 19.45 29.9096 19.73 29.7896 19.93C29.7196 20.05 29.2796 20.46 29.1596 20.55C28.8696 20.75 28.3396 20.76 28.5796 20.89C28.7496 20.98 29.1496 21.02 29.0996 20.92C29.0396 20.81 29.1296 20.8 29.1996 20.89C29.2496 20.96 29.4396 20.83 29.4296 20.71C29.4296 20.6 29.3996 20.41 29.5096 20.4C29.6796 20.39 29.8596 20.2 29.9496 20.22C30.0496 20.24 30.1796 20.45 30.0796 21.11C29.9796 21.76 29.6696 22.22 29.5496 22.42C29.4096 22.64 29.2796 22.47 29.0996 22.38C28.8696 22.26 28.5196 22.27 28.2796 22.19C28.1496 22.15 27.4496 21.88 27.4596 21.98M28.3796 12.6C28.2996 12.6 28.2296 12.58 28.1596 12.56L27.5696 13.15C27.6796 13.18 27.8096 13.14 27.9496 13.2C28.1096 13.27 28.0296 12.76 28.2696 12.81C28.5196 12.86 28.5796 13.01 28.3796 13.09C28.2196 13.14 28.4196 13.28 28.2196 13.34C28.0396 13.4 28.3696 13.56 28.3596 13.63C28.3596 13.73 28.1096 13.76 28.4796 13.88C28.8396 13.99 28.4796 13.57 28.5396 13.52C28.6096 13.45 28.7996 13.63 28.8496 13.55C28.8696 13.52 28.9096 13.47 28.9496 13.41C28.7796 13.13 28.5896 12.85 28.3796 12.6M30.5496 10.17L28.7596 11.96C29.0696 12.3 29.3396 12.67 29.5696 13.07C29.7796 13.1 30.0696 13.19 30.2496 13.42C30.3796 13.59 30.7596 13.93 30.6996 14.08C30.6696 14.17 30.7396 14.29 30.8296 14.35C30.9596 14.44 31.0596 14.44 31.1296 14.35C31.2596 14.18 31.2796 13.96 31.4596 13.81C31.6696 13.63 32.1096 14.14 32.1096 14.24C32.1096 14.33 31.9996 14.36 31.9596 14.52C31.9196 14.75 31.7196 15.02 31.9396 15.09C32.2596 15.2 32.2996 15.07 32.4596 14.85C32.5296 14.74 32.5196 14.58 32.5896 14.47C32.6396 14.41 32.7096 14.38 32.7796 14.33C32.6596 13.83 32.4996 13.34 32.2996 12.88C32.2496 12.83 32.1996 12.8 32.1296 12.77C32.0196 12.73 32.0796 12.63 31.9296 12.58C31.7596 12.52 31.6896 12.48 31.6696 12.17C31.6596 11.93 31.8796 12.25 31.9296 12.21C31.9396 12.21 31.9496 12.19 31.9596 12.17C31.5696 11.44 31.0996 10.77 30.5396 10.17M31.1796 16.13C31.1796 16.13 31.1696 16.15 31.1596 16.16H33.0196C33.0196 15.89 32.9896 15.63 32.9596 15.36C32.9496 15.39 32.9296 15.42 32.9196 15.44C32.7796 15.73 32.7596 15.55 32.7696 15.43C32.7796 15.27 32.8396 15.12 32.8996 14.95C32.8796 14.86 32.8696 14.78 32.8496 14.7C32.7896 14.78 32.7096 14.84 32.5896 14.9C32.5096 14.94 32.4296 15.14 32.3996 15.21C32.3596 15.3 32.1596 15.19 31.9896 15.27C31.6896 15.41 31.3896 15.43 31.6096 15.74C31.7496 15.93 31.2796 15.88 31.1796 16.13M30.7596 26.58C30.6896 26.74 30.3496 27.03 30.4096 27.12C31.0896 26.69 31.7296 26.19 32.3196 25.64L30.5296 23.86C30.4096 23.98 30.2796 24.09 30.1496 24.2C30.1196 24.4 30.1496 24.57 30.3996 24.64C30.6696 24.72 31.1196 25 31.0296 25.27C30.9196 25.51 30.6596 25.87 30.5296 26.11C30.4196 26.31 30.8396 26.4 30.7596 26.59M32.6796 25.01L32.8196 25.15C34.8796 22.98 36.1696 20.07 36.2596 16.87H33.7296C33.6396 19.37 32.6396 21.65 31.0396 23.36L31.9496 24.27C31.9496 24.27 31.9596 24.24 31.9696 24.23C32.0496 24.07 32.0096 23.86 32.0296 23.71C32.0296 23.61 32.3896 23.64 32.4096 23.8C32.4296 23.93 32.4996 24.03 32.6196 24.36C32.7096 24.6 32.7496 24.82 32.6896 25M31.0896 9.66C31.0896 9.66 31.0796 9.68 31.0696 9.69C31.4896 10.14 31.8596 10.63 32.1896 11.15C32.2296 11.1 32.2596 11.06 32.3096 11.12C32.3996 11.22 32.2196 11.41 32.4796 11.36C32.6396 11.33 32.6096 11.53 32.4796 11.64C32.5596 11.79 32.6396 11.94 32.7196 12.09C32.8096 12.13 32.8796 12.18 32.8996 12.24C32.9396 12.42 33.0196 12.62 33.0396 12.81C33.1696 13.13 33.2796 13.45 33.3696 13.79C33.4996 13.68 33.6496 13.74 33.6596 13.93C33.6796 14.12 33.6196 14.32 33.5396 14.48C33.6496 15.03 33.7196 15.59 33.7396 16.16H36.2696C36.2196 14.52 35.8596 12.91 35.1996 11.42C35.1496 11.46 35.0796 11.46 34.9996 11.57C34.8696 11.73 34.6696 11.53 34.5496 11.39C34.3396 11.13 33.8396 10.39 33.6196 10.36C33.4296 10.33 33.2896 10.09 33.0896 10.04C32.8896 10 32.6496 9.89 32.6196 9.68C32.5896 9.47 32.5096 9.38 32.2896 9.34C32.0396 9.3 31.8696 9.2 31.6996 9.02L31.0996 9.63C31.0996 9.63 31.0996 9.65 31.0996 9.66M34.6396 27.93L32.8496 26.14C31.9296 27.02 30.8696 27.76 29.7296 28.35C29.3496 28.63 28.8896 28.84 28.5396 29C28.3896 29.07 28.2396 29.15 28.0696 29.15C28.0196 29.15 27.9696 29.13 27.9196 29.1C26.7096 29.51 25.4096 29.74 24.0696 29.78V32.31C28.0396 32.22 31.7696 30.68 34.6396 27.94M25.2796 25.72C25.1996 25.63 25.0296 25.62 24.9096 25.66C24.4996 25.77 24.6396 25.44 24.0696 25.53V25.85C24.4796 25.83 24.8896 25.79 25.2796 25.72M24.0696 26.55V29.08C25.0896 29.05 26.0896 28.9 27.0396 28.64C26.8396 28.47 26.7496 28.2 26.5096 28.12C26.0896 27.97 25.9796 27.72 26.1996 27.34C26.3196 27.14 26.2796 27.06 26.1296 26.84C25.9496 26.58 25.7296 26.46 25.5596 26.39C25.0696 26.48 24.5696 26.54 24.0696 26.56M23.9096 22.3C24.1796 22.25 24.4596 22.18 24.7096 22.15C24.9796 22.12 24.6996 22.5 24.8596 22.52C25.0496 22.54 25.8196 22.67 25.8796 22.5C25.9296 22.36 25.9396 22.29 26.0996 22.26C26.4096 22.19 26.6596 22.2 26.9296 22C27.0296 21.93 27.2196 21.9 27.2796 21.79C27.3396 21.68 27.2396 21.17 27.0496 21.25C26.9596 21.29 26.8396 21.43 26.6496 21.52C26.4696 21.61 26.3396 21.65 26.2096 21.48C26.0896 21.32 26.2796 21.2 26.3696 21.1C26.5196 20.94 26.6496 20.77 26.8196 20.77C26.8796 20.77 27.2196 20.6 27.1996 20.45C27.1596 20.25 26.7696 20.47 26.6696 20.38C26.6096 20.32 26.6696 20.18 26.6196 20.16C26.5696 20.14 26.4296 20.34 26.5396 20.45C26.5996 20.51 26.4396 20.66 26.2696 20.55C26.1396 20.46 26.0996 20.95 26.1196 21.03C26.1296 21.12 26.3096 21.09 26.1896 21.25C26.0696 21.41 26.0196 21.29 25.9296 21.37C25.8196 21.46 25.7996 21.5 25.9296 21.64C26.0396 21.75 25.8696 21.96 25.8296 21.76C25.7996 21.63 25.5296 21.67 25.4796 21.52C25.4296 21.37 25.2096 21.39 24.9396 21.25C24.7396 21.15 24.7596 21.45 25.1096 21.53C25.3996 21.6 25.3896 21.63 25.2996 21.81C25.2296 21.96 25.2396 21.69 24.8996 21.6C24.6796 21.54 24.6696 21.42 24.4896 21.43C24.3096 21.43 24.3696 21.6 24.1796 21.56C24.0396 21.53 24.0196 21.72 23.8796 21.77C23.7196 21.84 23.7296 22.13 23.5696 22.21C23.3296 22.33 22.8296 22.24 22.8496 22C22.8696 21.76 22.8796 21.58 23.0196 21.5C23.1396 21.43 23.3396 21.64 23.5096 21.57C23.6896 21.49 23.6396 21.3 23.5396 21.18C23.5096 21.14 23.3796 21.07 23.3796 21.03C23.3796 20.98 23.6396 20.96 23.7596 20.87C23.8896 20.78 24.0296 20.55 24.0896 20.5C24.1596 20.44 24.2996 20.43 24.3096 20.38C24.3296 20.31 24.2096 20.2 24.2196 20.12C24.2296 20.04 24.2596 19.98 24.3196 19.98C24.3796 19.98 24.4496 20.16 24.4096 20.2C24.3596 20.25 24.4396 20.33 24.5196 20.29C24.5996 20.26 24.8996 20.14 24.9896 20.12C25.1096 20.09 24.9596 19.82 24.9896 19.78C25.0296 19.73 25.0596 19.79 25.1096 19.75C25.1596 19.71 25.0196 19.66 25.0396 19.56C25.0596 19.49 25.3696 19.4 25.2796 19.35C25.1896 19.3 25.0796 19.46 25.0096 19.49C24.8596 19.56 24.7796 19.39 24.7796 19.26C24.7796 19.2 24.8696 18.98 24.7896 18.93C24.6896 18.87 24.6696 19.13 24.6496 19.18C24.6296 19.26 24.5596 19.36 24.6696 19.57C24.7296 19.68 24.6996 20.07 24.5796 20.11C24.4496 20.16 24.3996 19.91 24.3396 19.81C24.3296 19.79 24.3196 19.78 24.3096 19.77H24.2996C24.2996 19.77 24.2896 19.77 24.2796 19.77C24.2796 19.77 24.2696 19.78 24.2596 19.79C24.2496 19.8 24.2296 19.83 24.2196 19.86C24.2196 19.88 24.1896 19.92 24.1696 19.98C24.1596 20.02 24.1296 20.05 24.0796 20.06C23.9496 20.08 23.8196 20.08 23.6896 20.08C23.6396 20.08 23.5896 20.08 23.5396 20.08C23.5596 20.16 23.5896 20.25 23.6096 20.3C23.6796 20.43 23.8096 20.54 23.7896 20.64C23.7696 20.74 23.3596 20.83 23.3196 20.75C23.2796 20.66 23.4196 20.48 23.4096 20.4C23.3896 20.25 23.3196 20.16 23.3196 20.06C22.5996 19.99 21.9396 19.7 21.4096 19.26L19.6196 21.05C20.4996 21.84 21.6096 22.37 22.8396 22.54C23.0096 22.43 23.0896 22.24 23.2196 22.35C23.4396 22.52 23.6996 22.29 23.8696 22.27M23.3196 25.65C22.9596 25.68 22.4296 25.67 22.2996 25.58C22.0396 25.4 21.7196 25.22 21.6796 25.07C21.6196 24.82 21.2696 24.63 21.2696 24.39C21.2696 24.13 21.6296 24.04 21.5396 23.77C21.4596 23.56 21.6696 23.29 22.0496 23.11C20.9396 22.84 19.9396 22.29 19.1196 21.55L17.3296 23.34C18.9796 24.87 21.0796 25.74 23.3296 25.82V25.64L23.3196 25.65ZM23.3196 26.54C21.0796 26.46 18.9696 25.66 17.2596 24.23C17.2996 24.28 17.3296 24.32 17.3596 24.37C17.4796 24.57 17.8796 24.98 17.6196 25.14C17.4096 25.28 17.0496 25.18 16.8496 25.18C16.6296 25.18 16.3096 25.5 16.1296 25.54C15.8896 25.58 15.7496 25.56 15.5296 25.47C15.4696 25.45 15.4096 25.4 15.3296 25.35L15.0496 25.63C17.2196 27.69 20.1296 28.98 23.3296 29.07V26.54H23.3196ZM23.3196 29.77C19.9296 29.68 16.8396 28.31 14.5396 26.13L12.7496 27.92C15.6196 30.66 19.3496 32.21 23.3196 32.29V29.76V29.77ZM11.1096 16.85C11.1496 18.16 11.3796 19.42 11.7896 20.6C11.8096 20.6 11.8196 20.6 11.8296 20.6C12.0896 20.59 12.4296 20.6 12.5896 20.47C12.8396 20.28 12.6096 19.59 12.7596 19.31C12.9496 18.96 13.4296 18.12 13.5796 18.11C13.7096 18.11 13.6996 18.2 13.7696 18.22C13.6896 17.77 13.6496 17.32 13.6296 16.86H11.0996L11.1096 16.85ZM14.5396 7.87C12.4896 10.04 11.1896 12.95 11.1096 16.15H13.6396C13.7296 13.65 14.7296 11.37 16.3296 9.66L14.5396 7.87V7.87ZM23.3196 6.46V3.94C20.1196 4.03 17.2196 5.32 15.0396 7.38L16.8296 9.17C18.5396 7.57 20.8196 6.56 23.3196 6.48M23.3196 9.71V7.18C21.0096 7.27 18.9096 8.19 17.3296 9.67L19.1196 11.46C20.2496 10.44 21.7096 9.8 23.3296 9.71M20.9196 17.48C20.9196 17.48 20.9196 17.45 20.9196 17.43C20.9196 17.43 20.9196 17.43 20.9196 17.42C20.9196 17.41 20.9196 17.4 20.9196 17.38C20.9196 17.38 20.9196 17.37 20.9196 17.36C20.9196 17.36 20.9196 17.35 20.9196 17.34C20.9196 17.34 20.9196 17.34 20.9196 17.33V17.32C20.9196 17.3 20.9196 17.29 20.9296 17.27C20.9296 17.27 20.9296 17.24 20.9396 17.22C20.9396 17.22 20.9396 17.22 20.9396 17.21C20.9396 17.21 20.9396 17.19 20.9496 17.18C20.9496 17.18 20.9496 17.18 20.9496 17.17C20.9496 17.17 20.9496 17.15 20.9596 17.15C20.9596 17.15 20.9596 17.15 20.9596 17.14C20.9596 17.13 20.9696 17.12 20.9796 17.11C20.9996 17.08 21.0296 17.08 21.0696 17.08C21.1296 17.08 21.2096 17.13 21.2896 17.13C21.3496 17.13 21.3996 17.12 21.4496 17.06C21.4696 17.03 21.4896 17 21.5096 16.97C21.5196 16.94 21.5296 16.91 21.5296 16.88C21.5296 16.87 21.5296 16.86 21.5296 16.85C21.5196 16.82 21.4796 16.81 21.4096 16.84C21.3996 16.84 21.3796 16.84 21.3696 16.85C21.3396 16.85 21.3096 16.86 21.2796 16.86C21.2696 16.86 21.2496 16.86 21.2396 16.86C21.1996 16.86 21.1696 16.84 21.1396 16.8C21.1396 16.79 21.1196 16.77 21.1196 16.76C21.1196 16.74 21.0996 16.72 21.0896 16.7C21.0396 16.63 20.9796 16.6 20.9096 16.56C20.8796 16.54 20.8396 16.52 20.8096 16.49C20.7896 16.48 20.7796 16.46 20.7596 16.44C20.7496 16.43 20.7296 16.41 20.7196 16.4C20.7196 16.4 20.7096 16.4 20.7096 16.39C20.7096 16.39 20.6896 16.37 20.6796 16.37C20.6796 16.37 20.6696 16.36 20.6596 16.35C20.6596 16.35 20.6496 16.34 20.6396 16.33C20.6396 16.33 20.6296 16.32 20.6196 16.31C20.6196 16.31 20.6096 16.31 20.5996 16.3L20.5796 16.29C20.5796 16.29 20.5696 16.29 20.5596 16.29C20.5596 16.29 20.5396 16.29 20.5296 16.28C20.5296 16.28 20.5296 16.28 20.5196 16.28C20.5096 16.28 20.4996 16.28 20.4896 16.27C20.4096 16.25 20.3196 16.27 20.2296 16.36C20.2196 16.37 20.1996 16.39 20.1896 16.4C20.1796 16.42 20.1596 16.43 20.1496 16.46C20.1396 16.48 20.1196 16.5 20.1096 16.53C20.0796 16.58 20.0596 16.64 20.0296 16.7C19.8296 17.24 19.5896 17.07 19.6296 17.26C19.6296 17.28 19.6896 17.3 19.7796 17.31C19.8096 17.31 19.8496 17.31 19.8896 17.31C19.9296 17.31 19.9696 17.31 20.0196 17.31C20.0596 17.31 20.1096 17.31 20.1496 17.3C20.1696 17.3 20.1896 17.3 20.2096 17.3C20.2196 17.3 20.2296 17.3 20.2496 17.3C20.2596 17.3 20.2696 17.3 20.2796 17.3C20.2896 17.3 20.2996 17.3 20.3096 17.3C20.3196 17.3 20.3396 17.3 20.3496 17.29H20.3696C20.3896 17.29 20.4096 17.28 20.4196 17.27C20.4496 17.26 20.4796 17.25 20.4996 17.24C20.4996 17.24 20.5496 17.22 20.5796 17.22C20.6296 17.21 20.6796 17.22 20.7196 17.22C20.7496 17.23 20.8096 17.25 20.8496 17.31C20.8796 17.36 20.9196 17.44 20.9296 17.51M19.1396 20.6L20.9296 18.81C20.7796 18.63 20.6596 18.44 20.5496 18.24C20.5196 18.27 20.4996 18.31 20.4796 18.34C20.4396 18.42 20.4896 18.69 20.3796 18.8C20.2396 18.95 19.8496 18.47 19.7296 18.44C19.5696 18.39 19.4896 18.57 19.4896 18.62C19.5096 18.76 19.4896 18.81 19.4296 18.82C19.3696 18.83 19.0696 18.63 19.1996 18.58C19.3596 18.52 19.1596 18.39 19.0896 18.33C18.9696 18.24 18.7896 18.33 18.7096 18.21C18.6196 18.08 18.4496 17.99 18.3896 17.98C18.3496 17.97 18.1796 17.9 18.0596 17.96C17.9696 18.01 17.8696 17.91 17.7996 17.84C17.7596 17.8 17.7296 17.76 17.6896 17.72C17.8996 18.82 18.4096 19.81 19.1296 20.61M16.5596 15.58C16.3596 15.56 16.1596 15.64 16.0496 15.81C15.9796 15.93 15.9496 16.06 15.9796 16.19H16.8796C16.8796 16.02 16.8996 15.85 16.9296 15.68C16.8096 15.62 16.6796 15.59 16.5596 15.58M18.3096 13.66C18.3096 13.66 18.3596 13.64 18.3796 13.62C18.6896 13.44 19.0896 13.48 19.2596 13.55C19.4796 13.65 19.7596 13.89 19.8896 13.99C19.9496 14.03 19.9696 13.95 20.2296 13.91C20.3396 13.89 20.3596 14 20.5196 14.02C20.5796 14.02 20.6296 14.03 20.6796 14.02L19.1196 12.46C18.7996 12.82 18.5296 13.21 18.2996 13.63M18.6196 11.96L16.8296 10.17C15.3596 11.76 14.4296 13.85 14.3396 16.16H15.5896C15.7996 15.82 15.7296 15.57 15.7996 15.37C15.8696 15.18 15.9796 15.01 16.0796 14.84C16.1696 14.69 16.2796 14.52 16.4696 14.52C16.8796 14.52 16.9796 14.3 17.2396 14.19C17.4996 14.07 17.9596 14 17.8996 13.87C17.8596 13.78 16.9496 14.14 16.9196 14.07C16.8896 13.95 17.2096 13.96 17.3496 13.84C17.3796 13.81 17.3996 13.8 17.4296 13.79C17.7296 13.12 18.1196 12.5 18.6096 11.97M14.2696 24.83C14.2696 24.83 14.2496 24.83 14.2496 24.84C14.3496 24.95 14.4396 25.06 14.5496 25.16L14.7496 24.96C14.5596 24.84 14.3896 24.77 14.2796 24.83M14.9496 18.01C14.7996 17.84 15.0496 17.36 15.0796 17.27C15.1196 17.17 15.3396 17.04 15.4096 16.89H14.3496C14.3696 17.44 14.4396 17.99 14.5496 18.52C14.8096 18.61 15.2896 18.41 14.9396 18M16.4296 22.26C16.4296 22.31 16.4296 22.36 16.4196 22.41C16.5496 22.57 16.6896 22.73 16.8296 22.88L18.6196 21.09C17.7796 20.16 17.1896 18.99 16.9696 17.69C16.9196 17.71 16.8696 17.69 16.8396 17.65C16.7996 17.59 16.8596 17.52 16.9296 17.46C16.8996 17.27 16.8796 17.08 16.8696 16.88H15.6796C15.6896 17.07 15.7696 17.34 15.6396 17.44C15.5396 17.52 15.3896 17.44 15.2996 17.45C15.0696 17.48 15.0196 17.76 15.0796 17.94C15.1196 18.07 15.1696 18.16 15.1496 18.3C15.1296 18.43 15.0596 18.53 15.2596 18.63C15.4496 18.73 15.7496 19.11 15.7196 19.17C15.6896 19.25 15.4996 19.09 15.4896 19.24C15.4896 19.33 15.7596 19.21 15.7496 19.53C15.7396 19.71 15.7896 19.92 15.8396 20.04C15.9496 20.3 16.0796 20.48 16.0696 20.78C16.0696 21.03 16.0196 21.3 16.1296 21.53C16.2396 21.77 16.4396 21.96 16.4396 22.24M22.6796 12.8C22.6796 12.8 22.5196 12.99 22.4196 13.16C22.7096 13.05 23.0196 12.98 23.3296 12.95V10.42C21.9096 10.5 20.6196 11.07 19.6196 11.96L21.4096 13.75C21.6196 13.58 21.8396 13.43 22.0796 13.32C22.1396 13.29 22.1996 13.26 22.2696 13.23C22.3896 13.02 22.6596 12.78 22.6796 12.81M12.2596 27.44L14.0496 25.65C13.6996 25.28 13.3696 24.89 13.0596 24.48C12.9196 24.42 12.7796 24.35 12.6796 24.23C12.5296 24.04 12.4496 23.76 12.3696 23.76C12.2896 23.76 12.3696 23.94 12.1996 23.96C11.9796 23.99 11.6596 23.44 11.5396 23.24C11.3896 23 11.1596 23 11.0396 22.78C11.0096 22.72 10.9296 22.52 10.8496 22.64C10.7296 22.84 10.2996 22.21 10.1996 22.25C10.0896 22.29 10.1896 22.42 10.1196 22.48C9.99958 22.59 9.63958 22 9.50958 22.06C9.38958 22.12 9.35958 22.19 9.34958 22.35C9.34958 22.51 9.53958 22.93 9.46958 22.96C9.36958 23.01 8.85958 21.7 8.96958 21.64C9.02958 21.61 9.01958 21.7 9.08958 21.66C9.15958 21.62 9.03958 21.52 9.00958 21.38C8.96958 21.23 8.84958 21.23 8.82958 21.07C8.82958 20.91 9.04958 20.96 9.04958 20.88C9.04958 20.8 9.06958 20.71 9.12958 20.65C9.20958 20.58 9.38958 20.65 9.41958 20.42C9.44958 20.22 9.54958 20.41 9.56958 20.55C9.58958 20.72 10.0196 20.76 10.0496 20.65C10.0596 20.58 9.87958 20.58 9.87958 20.51C9.87958 20.39 10.1196 20.51 10.2796 20.51C10.3496 20.51 10.4796 20.4 10.6396 20.49C10.8196 20.58 10.9196 20.63 11.0396 20.64C10.6496 19.45 10.4196 18.18 10.3896 16.87H7.85958C7.94958 20.84 9.48958 24.57 12.2396 27.44M7.14958 16.52C7.14958 12.11 8.86958 7.96 11.9796 4.85C15.1296 1.72 19.2796 0 23.6896 0C28.0996 0 32.2496 1.72 35.3596 4.83C38.4696 7.94 40.1896 12.09 40.1896 16.5C40.1896 20.91 38.4696 25.06 35.3596 28.18C32.2396 31.3 28.0996 33.01 23.6896 33.01C19.2796 33.01 15.1296 31.29 12.0196 28.18C8.89958 25.06 7.18958 20.92 7.18958 16.5M16.4796 18.43C16.4796 18.43 16.6196 17.85 16.5996 17.64C16.5796 17.43 16.4696 17.24 16.4396 17.25C16.3996 17.27 16.4596 17.39 16.4596 17.6C16.4696 17.9 16.3296 18.15 16.3296 18.25C16.3296 18.34 16.4196 18.56 16.4796 18.43ZM16.5596 19.23C16.5696 19.12 16.5596 18.79 16.4796 18.73C16.3996 18.67 16.4096 18.79 16.3596 18.78C16.3196 18.78 16.3196 18.62 16.2696 18.62C16.2096 18.62 16.2896 18.88 16.3496 19.03C16.4096 19.18 16.5496 19.43 16.5696 19.23M20.0496 19.26C20.1196 19.26 20.1796 19 20.1296 18.87C20.0796 18.74 19.8496 18.84 19.8296 18.9C19.8096 18.96 19.9796 19.26 20.0496 19.26M22.6996 16.4C22.4596 16.34 22.5096 16.47 22.3596 16.49C22.1196 16.52 22.3296 16.31 22.2096 16.22C22.1596 16.18 22.0196 16.39 22.0096 16.52C22.0096 16.58 22.0096 16.79 22.0996 16.8C22.1996 16.8 22.7396 16.87 22.9196 16.91C23.1196 16.96 22.9196 16.47 22.6896 16.41M22.1896 16.09C22.3096 16.09 22.2996 16 22.3696 16C22.4396 16 22.3796 16.09 22.4996 16.09C22.6196 16.09 22.7396 15.78 22.3596 15.78C22.0496 15.78 22.0896 16.08 22.1796 16.08M22.7296 18.94C22.7096 18.87 22.5896 18.88 22.6196 18.94C22.6496 19.01 22.5796 19.07 22.6496 19.15C22.7296 19.24 22.9096 19.23 23.0096 19.15C23.0596 19.09 23.0296 18.99 22.9896 18.96C22.9196 18.93 22.7596 18.99 22.7396 18.92M26.9496 2.22C26.5696 2.05 25.1296 2.05 25.1696 2.43C25.1996 2.75 25.9996 2.45 26.2096 2.43C26.4196 2.41 27.2896 2.39 26.9496 2.22M25.2296 3.09C24.9496 2.91 25.1796 2.65 24.9596 2.48C24.7996 2.36 24.3596 2.48 24.2496 2.62C24.0596 2.87 24.4996 2.78 24.6596 2.86C24.8396 2.94 25.2196 3.27 25.2896 3.2C25.3596 3.13 25.2796 3.12 25.2396 3.09M31.7396 4.96C31.8796 5.01 31.8796 4.75 31.6396 4.55C31.3996 4.36 31.0796 4.45 31.1696 4.55C31.2496 4.64 31.6096 4.91 31.7396 4.96ZM33.2496 12.33C33.2496 12.41 33.4796 12.96 33.4996 13.11C33.5196 13.26 33.5696 13.71 33.6896 13.67C33.7696 13.64 33.7596 13.36 33.7396 13.26C33.6896 12.95 33.6296 12.67 33.5096 12.32C33.4496 12.13 33.1796 11.52 33.0896 11.54C33.0096 11.56 33.2196 11.99 33.2496 12.12C33.2696 12.21 33.2496 12.25 33.2396 12.33M30.3796 12.31C30.2496 12.31 30.2196 12.46 30.3396 12.52C30.3996 12.55 30.5796 12.52 30.6596 12.47C30.7496 12.41 30.8496 12.35 30.8296 12.22C30.8196 12.14 30.6296 11.91 30.7296 11.83C30.8296 11.74 30.9396 11.88 31.0496 11.84C31.1796 11.79 31.1596 11.72 31.1696 11.61C31.1696 11.46 31.1096 11.26 30.9396 11.26C30.8096 11.26 30.5896 11.6 30.5796 11.63C30.5596 11.67 30.5296 11.79 30.5796 11.92C30.6596 12.1 30.6296 12.31 30.3796 12.31M32.4896 17.8C32.3396 17.8 32.1696 18.03 32.2196 18.03C32.3296 18.03 32.4096 18.11 32.4996 18.09C32.6596 18.06 32.6396 17.79 32.4996 17.8M26.6796 12.7C26.7496 12.74 27.0696 12.56 27.0096 12.52C26.9496 12.47 26.5796 12.3 26.5696 12.41C26.5596 12.58 26.6096 12.67 26.6796 12.71M26.5796 12.82C26.4596 12.76 25.9796 13.35 26.0596 13.44C26.0896 13.48 26.6196 12.85 26.5796 12.82ZM23.2796 20.46C23.3996 20.28 23.0996 20.16 23.0196 20.48C22.9496 20.78 23.1596 20.64 23.2796 20.46ZM5.80958 6.94C5.80958 6.94 5.81958 6.94 5.82958 6.94C5.82958 6.94 5.82958 6.94 5.83958 6.94C6.12958 6.71 7.30958 5.8 7.70958 5.39C8.31958 4.86 8.76958 4.19 9.20958 3.53C9.67958 2.84 10.1796 2.19 10.7996 1.63C10.8496 1.59 10.8896 1.55 10.9396 1.51C10.9396 1.51 10.9596 1.46 10.9396 1.44C9.86958 1.74 8.75958 2.18 7.92958 2.9C6.37958 4.12 5.84958 6.6 5.78958 6.94V6.95M3.55958 11.06C3.55958 11.35 3.55958 11.59 3.53958 11.74C3.53958 11.74 3.53958 11.74 3.53958 11.75C3.53958 11.77 3.58958 11.74 3.58958 11.74C3.58958 11.74 3.58958 11.74 3.59958 11.73C3.83958 11.42 4.60958 10.48 5.64958 9.6C6.22958 9.12 6.84958 8.65 7.39958 8.13C8.15958 7.4 8.60958 6.18 8.73958 5.51C8.74958 5.45 8.75958 5.41 8.75958 5.38C8.74958 5.38 8.69958 5.39 8.68958 5.4C8.60958 5.5 8.52958 5.6 8.45958 5.71C8.01958 6.31 7.54958 6.67 6.93958 7.07C5.90958 7.72 5.18958 8.21 4.60958 9C4.60958 9 4.60958 9.01 4.59958 9.02C4.56958 9.07 4.51958 9.04 4.53958 9C4.71958 8.43 4.78958 8.07 4.91958 7.56C5.11958 6.73 5.20958 5.63 5.51958 4.9C5.71958 4.44 5.99958 4.04 6.35958 3.69C6.36958 3.65 6.35958 3.61 6.35958 3.61C6.30958 3.62 6.21958 3.66 6.15958 3.69C5.07958 4.23 4.35958 5.09 3.87958 6.18C3.57958 6.85 3.49958 7.55 3.49958 8.26C3.49958 8.5 3.49958 8.74 3.51958 8.97C3.54958 9.56 3.57958 10.41 3.57958 11.05M1.94958 15.31C2.21958 16.1 2.58958 17.26 2.66958 17.56C2.66958 17.57 2.71958 17.55 2.72958 17.52C2.94958 16.68 3.85958 15.05 4.42958 14.28C4.46958 14.22 4.50958 14.17 4.54958 14.12C5.11958 13.37 5.71958 12.64 6.09958 11.77C6.35958 11.17 6.76958 9.87 6.78958 9.75C6.78958 9.75 6.76958 9.75 6.75958 9.75C6.75958 9.75 6.71958 9.75 6.68958 9.76C6.68958 9.76 6.67958 9.76 6.66958 9.77C6.66958 9.77 6.66958 9.77 6.65958 9.78C6.24958 10.4 5.55958 11.12 5.08958 11.53C4.33958 12.14 3.74958 12.61 3.29958 13.51C3.24958 13.61 3.18958 13.74 3.13958 13.88C2.99958 14.2 2.86958 14.59 2.85958 14.6C2.85958 14.62 2.80958 14.66 2.79958 14.61C2.78958 14.57 2.87958 13.51 2.87958 13.36C2.91958 12.5 2.75958 11.65 2.63958 10.8C2.49958 9.73 2.39958 8.84 2.68958 7.58C2.70958 7.49 2.72958 7.41 2.75958 7.32C2.77958 7.26 2.78958 7.21 2.80958 7.14C2.80958 7.13 2.79958 7.08 2.77958 7.07C1.64958 8.44 1.00958 10.95 1.28958 12.89C1.38958 13.57 1.86958 15.15 1.92958 15.31M3.76958 23.44C3.80958 23.41 3.80958 23.4 3.79958 23.3C3.67958 22.13 3.86958 21.18 4.25958 20.07C4.83958 18.41 5.38958 16.71 5.56958 14.96C5.58958 14.73 5.61958 14.37 5.60958 14.26C5.59958 14.26 5.54958 14.28 5.53958 14.29C5.28958 14.91 4.70958 15.84 4.36958 16.37C3.71958 17.38 2.98958 18.39 2.89958 19.61C2.87958 19.92 2.87958 20.33 2.91958 20.66C2.91958 20.66 2.90958 20.7 2.87958 20.69C2.87958 20.69 2.85958 20.69 2.85958 20.67C2.77958 20.37 2.68958 20.02 2.57958 19.64C1.98958 17.63 0.569583 16.37 0.569583 13.42C0.569583 13.41 0.529583 13.36 0.509583 13.35C0.479583 13.4 0.389583 13.61 0.309583 13.86C-0.960417 17.95 1.61958 20.88 2.12958 21.5C2.59958 22.07 3.36958 22.87 3.75958 23.44M4.20958 27.26C5.05958 27.83 6.35958 28.59 6.80958 28.88C6.80958 28.88 6.83958 28.82 6.82958 28.8C6.82958 28.8 6.82958 28.79 6.82958 28.78C6.25958 27.66 6.17958 26.44 6.07958 25.21C5.98958 24.14 6.18958 22.81 6.13958 21.77C6.08958 20.91 5.81958 19.98 5.59958 19.24C5.56958 19.14 5.55958 19.12 5.55958 19.12C5.53958 19.12 5.50958 19.16 5.50958 19.18C5.50958 19.18 5.50958 19.18 5.50958 19.19C5.39958 20.46 4.93958 21.6 4.77958 22.64C4.58958 23.86 4.71958 25.43 5.04958 26.32C5.06958 26.37 5.01958 26.38 4.99958 26.35C4.32958 25.33 2.87958 23.86 2.11958 23.08C1.15958 22.07 0.499583 21.12 0.129583 19.96C0.129583 19.96 0.0795827 19.92 0.0695827 19.92C0.0695827 19.93 0.0595827 20.03 0.0595827 20.08C0.0295827 21.71 0.569583 23.31 1.48958 24.63C2.22958 25.69 3.16958 26.54 4.22958 27.25M11.2396 32.88C11.3096 32.9 11.3796 32.91 11.4896 32.92C11.4896 32.89 11.4796 32.87 11.4796 32.87C11.4796 32.87 11.4196 32.81 11.4096 32.8C10.6496 32.05 10.1796 31.12 9.81958 30.14C9.55958 29.41 9.30958 28.68 9.05958 27.95C8.69958 26.92 7.92958 25.27 6.99958 24.2H6.98958C6.97958 24.21 6.95958 24.25 6.96958 24.27C7.27958 25.19 7.29958 26.23 7.42958 27.18C7.80958 29.92 9.06958 31.22 9.11958 31.26C9.14958 31.3 9.11958 31.34 9.08958 31.31C9.02958 31.27 8.98958 31.24 8.92958 31.19C8.06958 30.48 7.19958 30.05 6.18958 29.58C5.37958 29.2 4.69958 28.88 3.95958 28.36C2.43958 27.32 1.81958 26.51 1.78958 26.47C1.76958 26.45 1.72958 26.45 1.70958 26.46C1.80958 26.84 1.96958 27.17 2.12958 27.51C2.75958 28.83 3.73958 29.85 4.88958 30.74C6.02958 31.62 7.27958 32.12 8.69958 32.36C9.54958 32.5 10.3896 32.7 11.2396 32.88M12.1996 35.43C13.2296 35.36 14.2196 35.13 15.2096 34.87C15.8596 34.7 17.1096 34.42 17.5496 34.33H17.5696C17.5696 34.33 17.5596 34.3 17.5396 34.28C17.5396 34.28 17.5096 34.26 17.4896 34.26C16.9296 34.12 15.3796 33.66 14.3096 32.63C13.6196 31.99 12.9696 31.31 12.2796 30.67C11.7296 30.15 10.4996 29.11 10.4196 29.08C10.4096 29.08 10.3996 29.14 10.4096 29.14C10.5896 29.38 11.2296 30.84 11.6296 31.59C12.1996 32.67 12.9496 33.53 14.0596 33.94C14.0596 33.94 14.0696 33.94 14.0796 33.95C14.0996 33.98 14.0696 34.01 13.9896 34C13.9896 34 13.9796 34 13.9696 34C12.7196 33.8 11.4996 33.74 10.2396 33.68C9.27958 33.63 8.29958 33.57 7.37958 33.25C6.76958 33.04 6.29958 32.85 5.55958 32.29C5.55958 32.29 5.50958 32.27 5.47958 32.29C5.47958 32.29 5.47958 32.29 5.47958 32.3C6.30958 33.54 7.75958 34.58 8.92958 35.01C9.95958 35.4 11.0696 35.51 12.1796 35.43M36.5496 1.63C37.1696 2.19 37.6696 2.84 38.1396 3.53C38.5896 4.19 39.0296 4.86 39.6496 5.39C40.0496 5.8 41.2296 6.71 41.5196 6.94C41.5196 6.94 41.5196 6.94 41.5296 6.94H41.5496C41.5496 6.94 41.5496 6.94 41.5496 6.93C41.4896 6.59 40.9596 4.12 39.4096 2.89C38.5796 2.17 37.4696 1.73 36.3996 1.43C36.3896 1.45 36.3996 1.5 36.3996 1.5C36.4496 1.55 36.4896 1.58 36.5396 1.62M40.9996 3.68C41.3596 4.03 41.6396 4.43 41.8396 4.89C42.1496 5.62 42.2396 6.72 42.4396 7.55C42.5596 8.06 42.6396 8.41 42.8196 8.99C42.8396 9.04 42.7796 9.06 42.7596 9.01C42.7596 9.01 42.7596 9 42.7496 8.99C42.1696 8.2 41.4496 7.71 40.4196 7.06C39.8096 6.66 39.3396 6.3 38.8996 5.7C38.8196 5.6 38.7396 5.5 38.6696 5.39C38.6696 5.39 38.6196 5.37 38.5996 5.37C38.5996 5.39 38.5996 5.44 38.6196 5.5C38.7496 6.16 39.1996 7.39 39.9596 8.12C40.5096 8.64 41.1196 9.11 41.7096 9.59C42.7496 10.46 43.5096 11.4 43.7596 11.72L43.7696 11.73C43.7696 11.73 43.8196 11.76 43.8196 11.74C43.8196 11.74 43.8196 11.74 43.8196 11.73C43.8096 11.58 43.7996 11.34 43.7996 11.05C43.7996 10.41 43.8296 9.56 43.8596 8.97C43.8696 8.73 43.8796 8.49 43.8796 8.26C43.8796 7.55 43.7996 6.85 43.4996 6.18C43.0196 5.09 42.2996 4.22 41.2196 3.69C41.1596 3.66 41.0696 3.63 41.0196 3.61C41.0196 3.61 41.0096 3.64 41.0196 3.69M42.2696 11.52C41.7996 11.12 41.1096 10.4 40.6996 9.77C40.6996 9.77 40.6996 9.77 40.6996 9.76C40.6996 9.76 40.6896 9.75 40.6796 9.75C40.6496 9.73 40.6196 9.73 40.6096 9.74C40.5896 9.74 40.5796 9.74 40.5796 9.74C40.6096 9.86 41.0096 11.16 41.2696 11.76C41.6496 12.63 42.2596 13.36 42.8196 14.11C42.8596 14.16 42.8996 14.22 42.9396 14.27C43.5096 15.04 44.4196 16.67 44.6396 17.51C44.6396 17.53 44.6996 17.56 44.6996 17.55C44.7796 17.25 45.1496 16.09 45.4196 15.3C45.4796 15.14 45.9596 13.56 46.0596 12.88C46.3396 10.95 45.6996 8.44 44.5696 7.06C44.5496 7.06 44.5396 7.12 44.5396 7.13C44.5596 7.19 44.5796 7.24 44.5996 7.31C44.6196 7.39 44.6496 7.48 44.6696 7.57C44.9596 8.83 44.8696 9.72 44.7196 10.79C44.6096 11.64 44.4396 12.49 44.4796 13.35C44.4796 13.49 44.5796 14.55 44.5596 14.6C44.5496 14.65 44.4996 14.61 44.4996 14.59C44.4996 14.59 44.3596 14.19 44.2196 13.87C44.1596 13.73 44.1096 13.6 44.0596 13.5C43.6096 12.6 43.0196 12.13 42.2696 11.52M44.4896 20.66L44.4696 20.68C44.4396 20.68 44.4296 20.66 44.4296 20.65C44.4696 20.32 44.4796 19.91 44.4496 19.6C44.3596 18.38 43.6296 17.37 42.9796 16.36C42.6396 15.83 42.0596 14.91 41.8096 14.28C41.8096 14.28 41.7596 14.24 41.7396 14.25C41.7396 14.36 41.7596 14.72 41.7796 14.95C41.9596 16.7 42.5196 18.4 43.0896 20.06C43.4696 21.17 43.6696 22.12 43.5496 23.29C43.5396 23.39 43.5296 23.4 43.5796 23.43C43.9696 22.86 44.7396 22.07 45.2096 21.49C45.7196 20.87 48.2996 17.93 47.0296 13.85C46.9496 13.6 46.8596 13.39 46.8296 13.34C46.8096 13.34 46.7796 13.39 46.7696 13.41C46.7696 16.35 45.3496 17.61 44.7596 19.63C44.6496 20.01 44.5596 20.37 44.4796 20.66M47.2196 19.96C46.8496 21.12 46.1896 22.07 45.2296 23.08C44.4796 23.86 43.0196 25.33 42.3496 26.35C42.3296 26.38 42.2796 26.37 42.2996 26.32C42.6196 25.43 42.7596 23.86 42.5696 22.64C42.3996 21.6 41.9496 20.46 41.8396 19.19C41.8396 19.19 41.8396 19.19 41.8396 19.18C41.8396 19.16 41.8096 19.12 41.7896 19.12C41.7896 19.12 41.7796 19.14 41.7496 19.24C41.5296 19.98 41.2596 20.91 41.2096 21.77C41.1496 22.81 41.3496 24.14 41.2596 25.21C41.1596 26.44 41.0796 27.66 40.5096 28.78C40.5096 28.78 40.5096 28.79 40.5096 28.8C40.4996 28.83 40.5296 28.88 40.5296 28.88C40.9796 28.59 42.2796 27.83 43.1296 27.26C44.1896 26.55 45.1396 25.7 45.8696 24.64C46.7896 23.31 47.3196 21.71 47.2896 20.09C47.2896 20.03 47.2896 19.94 47.2796 19.93C47.2696 19.93 47.2196 19.96 47.2196 19.97M45.5596 26.49C45.5596 26.49 44.9096 27.34 43.3896 28.38C42.6496 28.89 41.9696 29.22 41.1596 29.6C40.1496 30.07 39.2796 30.5 38.4196 31.21C38.3596 31.26 38.3196 31.29 38.2596 31.33C38.2296 31.35 38.1996 31.31 38.2296 31.28C38.2696 31.23 39.5396 29.94 39.9196 27.2C40.0496 26.24 40.0696 25.21 40.3796 24.29C40.3796 24.26 40.3796 24.23 40.3596 24.22H40.3496C39.4196 25.28 38.6496 26.93 38.2896 27.97C38.0296 28.7 37.7896 29.44 37.5296 30.16C37.1696 31.15 36.6996 32.07 35.9396 32.82C35.9296 32.83 35.8696 32.89 35.8696 32.89C35.8696 32.89 35.8696 32.91 35.8596 32.94C35.9696 32.92 36.0396 32.91 36.1096 32.9C36.9596 32.73 37.7996 32.52 38.6496 32.38C40.0696 32.14 41.3096 31.64 42.4596 30.76C43.6096 29.88 44.5796 28.85 45.2196 27.53C45.3796 27.19 45.5396 26.85 45.6396 26.48C45.6196 26.48 45.5896 26.48 45.5596 26.49M41.7696 32.29C41.0396 32.85 40.5596 33.04 39.9496 33.25C39.0296 33.56 38.0496 33.63 37.0896 33.68C35.8296 33.75 34.6096 33.8 33.3596 34C33.3596 34 33.3496 34 33.3396 34C33.2596 34.01 33.2296 33.98 33.2496 33.95C33.2496 33.95 33.2596 33.94 33.2696 33.94C34.3796 33.53 35.1396 32.67 35.6996 31.59C36.0896 30.84 36.7396 29.38 36.9196 29.14C36.9196 29.14 36.9196 29.09 36.9096 29.08C36.8196 29.11 35.5996 30.15 35.0496 30.66C34.3596 31.3 33.7096 31.98 33.0196 32.62C31.9396 33.65 30.3996 34.1 29.8296 34.25C29.8196 34.25 29.7896 34.26 29.7896 34.27C29.7696 34.29 29.7696 34.31 29.7596 34.32H29.7796C30.2096 34.42 31.4696 34.69 32.1196 34.86C33.1096 35.12 34.1096 35.35 35.1296 35.42C36.2396 35.5 37.3496 35.38 38.3796 35C39.5596 34.56 41.0096 33.53 41.8296 32.29C41.8296 32.29 41.8296 32.29 41.8296 32.28C41.7996 32.26 41.7496 32.28 41.7496 32.28M37.6996 35.96C37.6996 35.96 37.7496 35.98 37.7596 35.99C36.8996 36.87 35.7896 37.48 34.7296 37.78C33.9396 38 33.1496 38.04 32.3396 37.95C31.0896 37.81 29.9896 37.31 28.9496 36.63C28.3296 36.22 27.7196 35.81 27.1096 35.39C26.4096 34.91 25.6296 34.82 24.8096 34.96C24.3696 35.01 24.6996 35.22 24.7696 35.26C25.8696 35.8 26.8996 36.44 27.8696 37.19C28.5296 37.67 29.6996 38.8 29.6996 38.8L28.8196 39.55C28.8196 39.55 28.1496 38.8 27.8596 38.51C25.9396 36.51 24.2396 35.63 23.8596 35.41C23.7896 35.37 23.7296 35.34 23.6596 35.34C23.5896 35.34 23.5296 35.38 23.4596 35.41C23.0796 35.63 21.3796 36.51 19.4596 38.51C19.1696 38.8 18.4996 39.55 18.4996 39.55L17.6196 38.8C17.6196 38.8 18.7896 37.67 19.4496 37.19C20.4196 36.45 21.4496 35.8 22.5496 35.26C22.6196 35.23 22.9496 35.01 22.5096 34.96C21.6896 34.83 20.9196 34.92 20.2096 35.39C19.5996 35.81 18.9896 36.22 18.3696 36.63C17.3396 37.31 16.2296 37.81 14.9796 37.95C14.1696 38.04 13.3796 38 12.5896 37.78C11.5296 37.48 10.4196 36.87 9.55958 35.98C9.56958 35.97 9.59958 35.95 9.62958 35.95C9.69958 35.98 9.74958 36.01 9.81958 36.04C11.0996 36.7 12.4496 36.78 13.8396 36.51C14.7896 36.33 15.6696 35.95 16.5496 35.57C17.1796 35.3 17.8096 35 18.4596 34.79C20.1496 34.23 21.8596 34.24 23.5696 34.67C23.5996 34.67 23.6296 34.68 23.6596 34.69C23.6896 34.69 23.7196 34.69 23.7496 34.67C25.4696 34.23 27.1796 34.23 28.8596 34.79C29.5096 35.01 30.1396 35.3 30.7696 35.57C31.6496 35.95 32.5296 36.33 33.4796 36.51C34.8696 36.78 36.2196 36.7 37.4996 36.04C37.5696 36 37.6196 35.98 37.6896 35.95" fill="#009EDB"/>
<path d="M126.23 34.5C126.23 34.16 126.07 33.87 125.76 33.64C125.45 33.41 124.78 33.18 123.78 32.97C122.55 32.71 121.53 32.3 120.72 31.73C119.91 31.16 119.5 30.36 119.5 29.32C119.5 28.28 119.92 27.45 120.77 26.7C121.62 25.96 122.79 25.58 124.29 25.58C125.79 25.58 127.08 25.95 127.98 26.68C128.88 27.41 129.33 28.34 129.33 29.46H126.12C126.12 29 125.97 28.62 125.68 28.32C125.38 28.02 124.92 27.86 124.29 27.86C123.76 27.86 123.34 27.98 123.04 28.23C122.74 28.48 122.59 28.79 122.59 29.16C122.59 29.51 122.76 29.79 123.09 30.02C123.42 30.24 124 30.44 124.84 30.6C126.14 30.86 127.23 31.26 128.08 31.79C128.94 32.32 129.37 33.19 129.37 34.38C129.37 35.44 128.91 36.32 128 37.01C127.09 37.71 125.86 38.05 124.31 38.05C122.63 38.05 121.34 37.62 120.46 36.76C119.57 35.9 119.13 34.98 119.13 34H122.19C122.22 34.63 122.45 35.08 122.88 35.35C123.31 35.63 123.81 35.76 124.38 35.76C125.62 35.76 126.25 35.34 126.25 34.49M112.48 28.18C111.57 28.18 110.89 28.57 110.45 29.34V37.83H107.24V25.81H110.25L110.36 27.19C111.22 26.12 112.37 25.59 113.82 25.59C114.96 25.59 115.88 25.93 116.58 26.61C117.28 27.29 117.62 28.48 117.62 30.18V37.84H114.4V30.17C114.4 29.4 114.23 28.88 113.9 28.6C113.57 28.33 113.1 28.19 112.48 28.19M97.4397 31.71V31.94C97.4397 32.92 97.6297 33.75 97.9997 34.43C98.3797 35.12 99.0197 35.46 99.9297 35.46C100.84 35.46 101.46 35.12 101.84 34.43C102.21 33.75 102.4 32.91 102.4 31.94V31.71C102.4 30.75 102.21 29.93 101.84 29.23C101.47 28.53 100.82 28.18 99.9097 28.18C98.9997 28.18 98.3697 28.53 97.9997 29.23C97.6297 29.93 97.4397 30.76 97.4397 31.71M94.2197 31.94V31.71C94.2197 29.96 94.7197 28.5 95.7097 27.34C96.6997 26.17 98.0997 25.59 99.9097 25.59C101.72 25.59 103.15 26.17 104.13 27.34C105.11 28.51 105.61 29.96 105.61 31.71V31.94C105.61 33.69 105.12 35.14 104.13 36.31C103.14 37.47 101.74 38.05 99.9297 38.05C98.1197 38.05 96.6997 37.47 95.7097 36.31C94.7197 35.15 94.2197 33.69 94.2197 31.94M92.3797 37.83H89.1597V25.81H92.3797V37.83ZM88.9597 22.7C88.9597 22.22 89.1197 21.82 89.4497 21.51C89.7797 21.19 90.2097 21.04 90.7597 21.04C91.3097 21.04 91.7497 21.2 92.0697 21.51C92.3997 21.82 92.5597 22.22 92.5597 22.7C92.5597 23.18 92.3997 23.57 92.0697 23.88C91.7397 24.2 91.3097 24.35 90.7597 24.35C90.2097 24.35 89.7697 24.19 89.4497 23.88C89.1197 23.57 88.9597 23.17 88.9597 22.7ZM87.6097 37.76C87.3397 37.85 87.0497 37.92 86.7397 37.98C86.4197 38.04 86.0697 38.06 85.6797 38.06C84.6297 38.06 83.7897 37.79 83.1697 37.24C82.5497 36.69 82.2397 35.78 82.2397 34.51V28.17H80.4697V25.82H82.2397V22.85H85.4497V25.82H87.4897V28.17H85.4497V34.18C85.4497 34.68 85.5497 35.02 85.7597 35.18C85.9697 35.34 86.2697 35.42 86.6797 35.42C86.8697 35.42 87.0497 35.42 87.2097 35.39C87.3697 35.37 87.4997 35.35 87.6097 35.33V37.76V37.76ZM73.9897 35.6C74.5297 35.6 74.9897 35.48 75.3697 35.24C75.7497 35 76.0197 34.73 76.1897 34.45V32.36H74.8797C74.0297 32.36 73.4097 32.54 73.0097 32.9C72.6197 33.26 72.4197 33.7 72.4197 34.23C72.4197 34.63 72.5597 34.96 72.8397 35.22C73.1197 35.48 73.4997 35.61 73.9897 35.61M76.6497 37.84C76.5197 37.56 76.4097 37.2 76.3297 36.76C76.0097 37.11 75.6097 37.42 75.1097 37.68C74.6197 37.94 74.0097 38.06 73.2897 38.06C72.1397 38.06 71.1697 37.72 70.3897 37.04C69.5997 36.36 69.2097 35.5 69.2097 34.46C69.2097 33.2 69.6797 32.22 70.6097 31.53C71.5397 30.84 72.9197 30.49 74.7497 30.49H76.1797V29.79C76.1797 29.23 76.0397 28.79 75.7497 28.46C75.4597 28.13 75.0097 27.96 74.3997 27.96C73.2497 27.96 72.6797 28.44 72.6797 29.4H69.4697C69.4697 28.36 69.9297 27.46 70.8597 26.71C71.7897 25.96 73.0297 25.58 74.5797 25.58C75.9597 25.58 77.1097 25.93 78.0297 26.64C78.9397 27.34 79.3997 28.4 79.3997 29.81V34.9C79.3997 35.58 79.4397 36.13 79.5197 36.55C79.5997 36.97 79.7197 37.34 79.8797 37.64V37.83H76.6297L76.6497 37.84ZM67.2797 21.66V37.84H63.9497L57.4597 27.18V37.84H54.1197V21.66H57.4597L63.9497 32.33V21.66H67.2797V21.66ZM108.89 12.64C108.89 13.6 109.06 14.42 109.4 15.1C109.74 15.78 110.33 16.12 111.18 16.12C112.16 16.12 112.86 15.7 113.28 14.87V10.1C112.87 9.27 112.18 8.86 111.2 8.86C110.36 8.86 109.77 9.2 109.42 9.89C109.07 10.57 108.89 11.41 108.89 12.41V12.64ZM113.6 18.51L113.44 17.23C113.07 17.7 112.63 18.06 112.12 18.33C111.61 18.6 111.02 18.73 110.36 18.73C108.87 18.73 107.72 18.15 106.89 17C106.07 15.84 105.66 14.39 105.66 12.64V12.41C105.66 10.58 106.07 9.1 106.89 7.97C107.71 6.84 108.87 6.27 110.38 6.27C111.55 6.27 112.51 6.7 113.27 7.57V1.43H116.49V18.5H113.59L113.6 18.51ZM99.3297 8.85C98.6497 8.85 98.1197 9.08 97.7497 9.54C97.3797 10 97.1397 10.6 97.0297 11.34H101.5V11.09C101.49 10.45 101.31 9.91 100.96 9.49C100.62 9.06 100.07 8.85 99.3297 8.85ZM104.4 16.55C104.01 17.1 103.43 17.6 102.64 18.05C101.85 18.5 100.88 18.73 99.7097 18.73C97.8397 18.73 96.3697 18.16 95.3197 17.02C94.2697 15.88 93.7397 14.51 93.7397 12.9V12.47C93.7397 10.65 94.2497 9.17 95.2597 8C96.2697 6.84 97.6397 6.26 99.3497 6.26C101.06 6.26 102.39 6.8 103.29 7.88C104.19 8.96 104.65 10.39 104.65 12.17V13.54H96.9897C97.0997 14.32 97.4097 14.95 97.9097 15.42C98.4097 15.9 99.0797 16.14 99.8997 16.14C101.12 16.14 102.09 15.69 102.8 14.8L104.39 16.56L104.4 16.55ZM92.7997 18.43C92.5297 18.52 92.2397 18.59 91.9297 18.65C91.6097 18.7 91.2597 18.73 90.8697 18.73C89.8197 18.73 88.9797 18.46 88.3597 17.91C87.7397 17.36 87.4297 16.45 87.4297 15.18V8.83H85.6597V6.49H87.4297V3.51H90.6397V6.48H92.6797V8.82H90.6397V14.83C90.6397 15.33 90.7397 15.67 90.9497 15.83C91.1597 15.99 91.4597 16.07 91.8697 16.07C92.0597 16.07 92.2397 16.07 92.3997 16.04C92.5597 16.02 92.6897 16 92.8097 15.98V18.41L92.7997 18.43ZM84.4397 18.51H81.2197V6.48H84.4397V18.5V18.51ZM81.0197 3.38C81.0197 2.9 81.1797 2.5 81.5097 2.19C81.8397 1.88 82.2697 1.72 82.8197 1.72C83.3697 1.72 83.8097 1.88 84.1297 2.19C84.4597 2.5 84.6197 2.9 84.6197 3.38C84.6197 3.86 84.4597 4.25 84.1297 4.56C83.7997 4.88 83.3697 5.03 82.8197 5.03C82.2697 5.03 81.8297 4.87 81.5097 4.56C81.1797 4.25 81.0197 3.85 81.0197 3.38ZM73.7797 8.87C72.8697 8.87 72.1897 9.26 71.7497 10.03V18.52H68.5397V6.48H71.5497L71.6597 7.86C72.5197 6.79 73.6697 6.26 75.1197 6.26C76.2597 6.26 77.1797 6.6 77.8697 7.28C78.5697 7.96 78.9197 9.15 78.9197 10.85V18.51H75.6997V10.84C75.6997 10.07 75.5397 9.55 75.2097 9.27C74.8797 9 74.4097 8.86 73.7897 8.86M63.0397 2.33H66.3797V12.99C66.3797 14.87 65.7897 16.3 64.6197 17.27C63.4497 18.24 61.9697 18.73 60.1797 18.73C58.3897 18.73 56.8797 18.25 55.7097 17.27C54.5497 16.3 53.9697 14.87 53.9697 12.99V2.32H57.3197V12.99C57.3197 14.06 57.5697 14.83 58.0797 15.31C58.5897 15.79 59.2897 16.03 60.1797 16.03C61.0697 16.03 61.7797 15.79 62.2797 15.31C62.7797 14.83 63.0397 14.05 63.0397 12.99V2.32V2.33Z" fill="#231F20"/>
</g>
<defs>
<clipPath id="clip0_8_11">
<rect width="129.35" height="39.55" fill="white"/>
</clipPath>
</defs>
</svg>
